<svg xmlns="http://www.w3.org/2000/svg" xmlns:xlink="http://www.w3.org/1999/xlink" width="375" height="485" viewBox="0 0 375 485">
  <defs>
    <clipPath id="clip-path">
      <rect id="Rectangle_2242" data-name="Rectangle 2242" width="375" height="485" transform="translate(0 3089)" fill="#fff" stroke="#707070" stroke-width="1"/>
    </clipPath>
    <radialGradient id="radial-gradient" cx="0.5" cy="0.5" r="0.5" gradientUnits="objectBoundingBox">
      <stop offset="0" stop-color="#d4d516"/>
      <stop offset="1" stop-color="#fafafa" stop-opacity="0"/>
    </radialGradient>
  </defs>
  <g id="landing-5" transform="translate(0 -3089)" clip-path="url(#clip-path)">
    <ellipse id="Ellipse_387" data-name="Ellipse 387" cx="200.373" cy="211.184" rx="200.373" ry="211.184" transform="translate(184.343 2970.945) rotate(41)" opacity="0.595" fill="url(#radial-gradient)"/>
    <g id="Group_10855" data-name="Group 10855" transform="translate(5.182 3167.763)">
      <g id="Path_1131" data-name="Path 1131" transform="translate(32.318 152.78)" fill="#e8f0fb">
        <path d="M 290 60.53707885742188 L 10 60.53707885742188 C 4.761692523956299 60.53707885742188 0.5 56.27538681030273 0.5 51.03707885742188 L 0.5 10.00000095367432 C 0.5 4.761693477630615 4.761692523956299 0.5000009536743164 10 0.5000009536743164 L 290 0.5000009536743164 C 295.2383117675781 0.5000009536743164 299.5 4.761693477630615 299.5 10.00000095367432 L 299.5 51.03707885742188 C 299.5 56.27538681030273 295.2383117675781 60.53707885742188 290 60.53707885742188 Z" stroke="none"/>
        <path d="M 10 1 C 5.037384033203125 1 1 5.037384033203125 1 10 L 1 51.03707885742188 C 1 55.99969482421875 5.037384033203125 60.03707885742188 10 60.03707885742188 L 290 60.03707885742188 C 294.9626159667969 60.03707885742188 299 55.99969482421875 299 51.03707885742188 L 299 10 C 299 5.037384033203125 294.9626159667969 1 290 1 L 10 1 M 10 0 L 290 0 C 295.5228576660156 0 300 4.477153778076172 300 10 L 300 51.03707885742188 C 300 56.5599250793457 295.5228576660156 61.03707885742188 290 61.03707885742188 L 10 61.03707885742188 C 4.477142333984375 61.03707885742188 0 56.5599250793457 0 51.03707885742188 L 0 10 C 0 4.477153778076172 4.477142333984375 0 10 0 Z" stroke="none" fill="#1821bc"/>
      </g>
      <g id="Group_10854" data-name="Group 10854">
        <text id="First_time_reaching_out" data-name="First time reaching out" transform="translate(88.318 172.78)" fill="rgba(0,0,0,0.6)" font-size="16" font-family="ReadexPro-Regular, Readex Pro" letter-spacing="0.033em"><tspan x="0" y="16">First time reaching out</tspan></text>
        <path id="comment-solid" d="M12.023,32C5.383,32,0,36.372,0,41.767A8.663,8.663,0,0,0,2.679,47.9,11.954,11.954,0,0,1,.107,52.4a.365.365,0,0,0-.07.41.362.362,0,0,0,.342.225,10.847,10.847,0,0,0,6.6-2.413,14.312,14.312,0,0,0,5.043.911c6.64,0,11.979-4.373,11.979-9.767S18.663,32,12.023,32Z" transform="translate(52.316 140.78)" fill="#1821bc"/>
      </g>
    </g>
    <g id="Group_10851" data-name="Group 10851" transform="translate(3.682 3091.763)">
      <g id="Rectangle_453" data-name="Rectangle 453" transform="translate(32.318 152.78)" fill="#e8f0fb" stroke="#1821bc" stroke-width="1">
        <rect width="300" height="60" rx="10" stroke="none"/>
        <rect x="0.5" y="0.5" width="299" height="59" rx="9.5" fill="none"/>
      </g>
      <g id="Group_10854-2" data-name="Group 10854">
        <text id="Preparing_for_an_interview" data-name="Preparing for an interview" transform="translate(88.318 172.78)" fill="rgba(0,0,0,0.6)" font-size="16" font-family="ReadexPro-Regular, Readex Pro" letter-spacing="0.033em"><tspan x="0" y="16">Preparing for an interview</tspan></text>
        <path id="laptop-solid" d="M4.8,34.4H19.2V44h2.4V33.8A1.806,1.806,0,0,0,19.8,32H4.2a1.806,1.806,0,0,0-1.8,1.8V44H4.8ZM23.4,45.166H.6a.6.6,0,0,0-.6.6v.6a2.4,2.4,0,0,0,2.4,2.4H21.6a2.4,2.4,0,0,0,2.4-2.4v-.6A.625.625,0,0,0,23.4,45.166Z" transform="translate(52.318 142.013)" fill="#1821bc"/>
      </g>
    </g>
    <g id="Group_10850" data-name="Group 10850" transform="translate(3.682 3023.746)">
      <g id="Rectangle_453-2" data-name="Rectangle 453" transform="translate(32.318 142.21)" fill="#e8f0fb" stroke="#707070" stroke-width="1">
        <rect width="302" height="62.585" rx="10" stroke="none"/>
        <rect x="0.5" y="0.5" width="301" height="61.585" rx="9.5" fill="none"/>
      </g>
      <g id="Group_10852" data-name="Group 10852">
        <text id="Developing_specialty" data-name="Developing specialty" transform="translate(88.318 163.546)" fill="rgba(0,0,0,0.6)" font-size="16" font-family="ReadexPro-Regular, Readex Pro" letter-spacing="0.033em"><tspan x="0" y="16">Developing specialty</tspan></text>
        <path id="wand-magic-sparkles-solid" d="M10.976.22a.339.339,0,0,1,.635,0l.622,1.662,1.663.623a.34.34,0,0,1,0,.636l-1.663.623-.622,1.662a.339.339,0,0,1-.635,0l-.622-1.662-1.7-.623a.308.308,0,0,1-.181-.318.308.308,0,0,1,.181-.318l1.7-.623Zm7.879.4a2.119,2.119,0,0,1,3,0l1.526,1.526a2.12,2.12,0,0,1,0,2.994L6.551,21.966a2.12,2.12,0,0,1-2.994,0L2.032,20.44a2.118,2.118,0,0,1,0-3Zm1.5,2L15.719,7.249l1.028,1.028,4.632-4.633ZM.33,5.171l2.493-.935.935-2.493a.509.509,0,0,1,.953,0l.935,2.493,2.493.935a.509.509,0,0,1,0,.953l-2.493.935L4.712,9.552a.509.509,0,0,1-.953,0L2.824,7.059.33,6.124a.509.509,0,0,1,0-.953ZM15.86,16.465l2.493-.935.935-2.493a.508.508,0,0,1,.953,0l.935,2.493,2.493.935a.508.508,0,0,1,0,.953l-2.493.935-.935,2.493a.508.508,0,0,1-.953,0l-.935-2.493-2.493-.935a.508.508,0,0,1,0-.953Z" transform="translate(52.318 162.21)" fill="#1821bc"/>
      </g>
    </g>
    <g id="Group_1280" data-name="Group 1280" transform="translate(4.682 2942.778)">
      <g id="Path_1135" data-name="Path 1135" transform="translate(32.318 145.878)" fill="#e8f0fb">
        <path d="M 292 60.79898452758789 L 10 60.79898452758789 C 4.761692523956299 60.79898452758789 0.5 56.53728866577148 0.5 51.29898452758789 L 0.5 9.999982833862305 C 0.5 4.761674880981445 4.761692523956299 0.4999827146530151 10 0.4999827146530151 L 292 0.4999827146530151 C 297.2383117675781 0.4999827146530151 301.5 4.761674880981445 301.5 9.999982833862305 L 301.5 51.29898452758789 C 301.5 56.53728866577148 297.2383117675781 60.79898452758789 292 60.79898452758789 Z" stroke="none"/>
        <path d="M 10 0.9999809265136719 C 5.037384033203125 0.9999809265136719 1 5.037368774414062 1 9.999980926513672 L 1 51.29898071289062 C 1 56.2615966796875 5.037384033203125 60.29898452758789 10 60.29898452758789 L 292 60.29898452758789 C 296.9626159667969 60.29898452758789 301 56.2615966796875 301 51.29898071289062 L 301 9.999980926513672 C 301 5.037368774414062 296.9626159667969 0.9999809265136719 292 0.9999809265136719 L 10 0.9999809265136719 M 10 -1.9073486328125e-05 L 292 -1.9073486328125e-05 C 297.5228576660156 -1.9073486328125e-05 302 4.477134704589844 302 9.999980926513672 L 302 51.29898071289062 C 302 56.82183074951172 297.5228576660156 61.29898452758789 292 61.29898452758789 L 10 61.29898452758789 C 4.477142333984375 61.29898452758789 0 56.82183074951172 0 51.29898071289062 L 0 9.999980926513672 C 0 4.477134704589844 4.477142333984375 -1.9073486328125e-05 10 -1.9073486328125e-05 Z" stroke="none" fill="#1821bc"/>
      </g>
      <g id="Group_10853" data-name="Group 10853">
        <text id="Personal_growth" data-name="Personal growth" transform="translate(88.318 166.177)" fill="rgba(0,0,0,0.6)" font-size="16" font-family="ReadexPro-Regular, Readex Pro" letter-spacing="0.033em"><tspan x="0" y="16">Personal growth</tspan></text>
        <path id="hand-holding-droplet-solid" d="M11.965,11.555a3.922,3.922,0,0,0,3.963-3.88c0-1.667-2.38-5.034-3.469-6.485a.664.664,0,0,0-1.063,0c-1.015,1.415-3.432,4.78-3.432,6.447A3.961,3.961,0,0,0,11.965,11.555ZM23.68,14.9a1.663,1.663,0,0,0-2.331-.353L16.36,18.223H11.334a.64.64,0,0,1-.629-.666.665.665,0,0,1,.629-.667H14.6a1.417,1.417,0,0,0,1.391-1.109,1.336,1.336,0,0,0-1.318-1.558h-6.7a4.983,4.983,0,0,0-3.089,1.094L2.937,16.89.629,16.852A.641.641,0,0,0,0,17.52v4.037a.664.664,0,0,0,.629.667H15.053a4.367,4.367,0,0,0,2.571-.845l5.63-4.147A1.62,1.62,0,0,0,23.68,14.9Z" transform="translate(52.318 164.953)" fill="#1821bc"/>
      </g>
    </g>
    <g id="Introduction" transform="translate(4.115 3373.975)">
      <g id="variations-sitting" transform="translate(0.885 0.024)">
        <g id="a-person_sitting" data-name="a-person/sitting" transform="translate(0 0)">
          <g id="pose_sitting_bike" data-name="pose/sitting/bike" transform="translate(0 29.534)">
            <path id="_-Background" data-name="ðŸŽ¨-Background" d="M-35.327,110.807c-2.828,36.238-52.2,41.441-62.055,6.525l-.006,0c-.035-.136-.109-.408-.149-.542h.006a34.2,34.2,0,0,1-.952-10.707h0A33.138,33.138,0,0,1-89.8,85.892h0a32.466,32.466,0,0,1,4.614-4.119,77.67,77.67,0,0,0,13.4,24.866l-.222.274q.416.23.827.46c.1.115.2.244.293.363a1.664,1.664,0,0,0,1.394,2.116c-.293.689.425.961.856,1.085,1.42.325,3.089.4,4.164-.4a3.151,3.151,0,0,0-.6-4.729c.006-.016.011-.032.017-.049a1,1,0,0,1-.532-.218,3.141,3.141,0,0,0-2.362.038c-4.992-8.11-10-16.923-12.77-26.531a31.41,31.41,0,0,1,3.623-1.535v0l.164-.057h0a30.716,30.716,0,0,1,3.515-.98h0l.429-.09h0a30.95,30.95,0,0,1,6.52-.6h0l.5.01v0c.746.021,1.514.076,2.264.148-.007.028-.019.064-.034.105a.968.968,0,0,1,.179.027l.026-.112c.592.067,1.189.148,1.777.247h0l.421.073h0A31.581,31.581,0,0,1-42.055,88.224h0a32.713,32.713,0,0,1,4.671,8.434h0l.184.5h0a33.792,33.792,0,0,1,1.866,13.648Zm-53.931-47.57c-11.34,10.793-23.919,20.833-33.52,33.305l-1.8-1.084.181-.035a3.506,3.506,0,0,1-1.6-.985c.957.067,1.262.245,1.832-.847,2-3.589,3.721-7.251,5.876-10.793,1.763-3.123,3.527-6.217,5.288-9.372.931-1.359,2.486-4.978-.077-6.8A191.427,191.427,0,0,0-91.444,55.423a80.162,80.162,0,0,0,2.318,7.691Zm-38.536-18.981a8.345,8.345,0,0,1-2.5-3.016,30.823,30.823,0,0,0,4.594.412.192.192,0,0,0,.181-.186,59.381,59.381,0,0,0-.14-5.987c.806.4,1.454-.056,2.184-.448a2.3,2.3,0,0,0,2.489,0c.009,0,3.776-1.4,3.784-1.4.84-.263,1.2-.513,1.412-1.046l.436.114c.9,1.337,13.992,5.489,15.155,3.949,1.217.516,2.673.1,3.961.006a14.619,14.619,0,0,0,3.037.184q.3,1.563.6,3.125c-2.7,3.936-3.105,5.719-2.335,10.448.166.979.489,1.307,1.695,1.449-7.162,3.919-14.364,7.674-21.437,11.865,1-2.369,2-4.783,2.937-7.15a7.84,7.84,0,0,0,.817-2.79c.277-3.694-11.26-7.082-15.779-8.3-.128-.526-.708-.836-1.089-1.226ZM-91,51.026c.052-.09.256-.519.306-.618a8.413,8.413,0,0,0,.486.819c-.282.1-.973.479-1.246.623Zm-40.176,18.809c-.122.492-.232.96-.339,1.409-2.672,1.392-5.329,2.664-8.01,4.028l.085.156c-1.517.887-3.168,1.424-4.658,2.345-1.165-5.021-2.053-10.108-2.713-15.235a11.255,11.255,0,0,0,1.848-.207,5.073,5.073,0,0,0,1.7-.216,104.518,104.518,0,0,0,10.846,7,2.706,2.706,0,0,0,1.322.41Zm-.433,38.074c-.418-.041-.8.4-1.2.541-1.25.646-2.471,1.3-3.673,1.974-.416-2.418-1.457-4.656-1.529-7.157l-.04.076c-.151-.294-.459-.817-.636-1.1l1.148.264-.033.045a4.777,4.777,0,0,1,1.252.221c1.3.245,2.623.5,3.939.688-.339.527-.32.556.306.557a4.871,4.871,0,0,0-.407,2.345c.01.137.066.11.136.164a1.343,1.343,0,0,0,.874.84Zm-11.433-27.487-.117-.367.146-.049a.173.173,0,0,0-.186-.075l-.013-.042c3.6-1.535,7.117-3.26,10.664-4.895-2.083,6.01-6.223,11.205-7.262,17.579l-.548.036c-1.221-4.121-2.22-8.342-3.186-12.424l.172-.058a.275.275,0,0,0,.331.295Zm2.589,29.762a3.169,3.169,0,0,1-1.3.135c-1.891-.364-3.818-.662-5.7-.956a36.243,36.243,0,0,0-9.321-28.209c2.592-2.357,5.342-4.839,8.281-7.475,2.746,13.316,5.867,26.461,8.28,36.422Zm-11.635-4.037c-.017.817-.068,1.643-.143,2.456-7.789-1.216-16.159-2.48-24.57-3.487l.375-.4c.471-.579-.322-1.53-.791-1.8a2.928,2.928,0,0,0-2.842.137l-.323-.452c1.8-1.628,3.6-3.242,5.393-4.878,2.081.887,4.188,1.653,6.288,2.465l-.082.5c.469,0,.942-.059,1.391-.014,5.187,1.934,10.661,3.794,15.31,5.256Zm-.512,5.127a32.79,32.79,0,0,1-1.388,5.205l0,0c-6.551,20.724-34.964,27.771-49.709,11.293-16.562-16.208-8.481-48.39,14.723-53.264,1.328,2.388,2.444,4.8,3.635,7.213.573,1.4,1.607,2.639,1.842,4.171.155.562.3,1.125.439,1.687l.069.031-.005-.022.513-.212c1.026,1.762,2.337,4.852,3.5,6.731,1.512,2.276,1.439,2.11,2.565,2.24-1.338,1.328-2.7,2.677-4.036,4-1.187,1.153-2.309,2.618-4.095,2.947a2.06,2.06,0,0,0-1.419.631,3.2,3.2,0,0,1-.338.69,2.436,2.436,0,0,0,4.19,2.144c9.915,1.519,19.646,2.666,29.565,4.231Zm-21.24-40.92c3.971-.055,8.773.427,14.027.134a2.859,2.859,0,0,0,.912-.32c1.4.712,2.823,1.446,4.263,2.11-.111.624.565,1,.78,1.541-1.757,1.652-3.565,3.268-5.232,5.036a34.781,34.781,0,0,0-14.824-7.949ZM-31.2,103.342c-2-16.393-16.465-30.966-33.091-31.821l-.084-.543a4.357,4.357,0,0,0,2.069-1.888,35.247,35.247,0,0,0-15.516,1.873,5.926,5.926,0,0,1-2.867.563,10.1,10.1,0,0,0-.512-.884l-.024-.006a1.162,1.162,0,0,1-.719-.538,3.416,3.416,0,0,1-.183-.883.168.168,0,0,1,.028-.132c-.461-.792-.889-1.594-1.877-1.682l.325-.347a.3.3,0,0,0-.179-.486c-1.321-4.772-2.937-9.345-4.192-14.147l-.4.116c-.052-.131-.37-.923-.429-1.07l.712.494-.085-.329c6.243,2.424,12.306,3.492,18.13,2.476l0-.017a6.531,6.531,0,0,0,1.868-.883c.338.025.428-.176.592-.728.343-1.131.729-2.271,1.094-3.375,2.1-6.852,4.988-13.433,6.89-20.248.05-.041.224-.207.189-.216-7.492-4.369-25.525-3.042-35.3-1.577A61.022,61.022,0,0,0-93.6,34.79c-3.551-2.518-6.943-5.482-11.206-6.746l1-.2c.164-.027.269-.344.1-.411l-.2-.071c.367-2.847-2.842-3.182-4.638-1.781-.393.325-.831,1.443-.1,1.689l-.032.545a7.4,7.4,0,0,0-2.005.754c.144-.87-.178-2.061-1.193-1.241-14.556-6.655-8.241-13.491-9.424-24.281-.075-3.24-.466-3.443-3.549-4.9-1.779-1.085-3.692-1.845-5.535-2.8l.131-.131-.741-1.479-.075.022a10,10,0,0,1-.624-2.076A1.479,1.479,0,0,0-133.078-9.8c-2.322-.488-4.644-.114-5.574,2.336l-.012,0a3.1,3.1,0,0,1-1.2,1.624l.336.3-.042.077-.527-.157c0-.028,0-.068.007-.1a2.468,2.468,0,0,1-1.006.235c-11.242-1.907-14.608,6.879-12.937,16.569-.662,2.5-1.247,5.005-1.851,7.494-1.762,8.308-7.054,13.471-8.856,21.5-.475,1.952-2.448,5.541-.716,6.793a8.006,8.006,0,0,0,2.386,6.483c-2.6.073-6.216,4.3-3.153,6.386a15.955,15.955,0,0,0,3.669.642l-.094.312c.05.277.516.259.741.232a4.778,4.778,0,0,0,.186,1.977c.03.335.168.445.236.422.448.015.9-.041,1.357-.015.686,1.1,1.712,1.8,2.774,1.237.646-.336.635-1.234,1.246-1.688,1.6-1,3.418-.839,5.109-.812.7,2.349,1.017,4.734,1.568,7.106a35.732,35.732,0,0,1-2.5,2.79l-.124-.029-.126.039c-.721-.644-1.522-1.744-2.545-1.344-8.543-7.726-22.29-6.538-32.852-6.463-4.778.056-9.711.109-14.555.329-1.382.032-2.274.134-2.321,1.173-.914.04-1.592.264-2.451.331-.537.028-.816.071-.835.224a15.8,15.8,0,0,0,.68,4.417c.541,1.37,2.193,1.369,3.454.863.473-.2.065-.788.051-1.146a18.525,18.525,0,0,1-.521-3.608c.6.047,1.118.075,1.8.084l.012.318c1.208.047,6.342.137,7.594-.037a1.469,1.469,0,0,0-.219,1.956c1.3,1.45,3.7.79,5.414,1.008l.026.555c-26.941,5.01-37.2,41.532-17.657,60.335,19.109,20.744,55.644,8.392,59.337-19.215,1.59.267,3.188.478,4.774.814-.936.852-2.281,1.283-3.2,2.1-1.594,1.551-2.067,2.57-1.336,3.37l.014-.011a2.42,2.42,0,0,0,1.953.077,9.517,9.517,0,0,0,1.254.121c.669-.014,1.3-.181,1.478-.709.019-.2-.365-.543-.553-.71,1.031-.719,2.068-1.545,3.251-2.325a.938.938,0,0,0,.528-.542c5.088,1.819,10.414-2.069,13.658-4.956l-.011.05a2.587,2.587,0,0,1,1.257-.831,3.253,3.253,0,0,1,.441-.372l2.4.085a6.088,6.088,0,0,0,2.094-.053c1.359-.653.778-2.656.087-3.579,1.089-.065,2.195-.047,3.277-.192,2.773-.324,1.985-3.1-.238-3.725-.616-.794-3.353-1.635-3.429-2.632,10.322-10.957,21.476-21.4,31.813-31.752a12.213,12.213,0,0,1,.422,3.434,33.1,33.1,0,0,0,1.376,7.985c-23.89,15.078-20.731,54.5,5.545,65.213,25.744,11.783,53.709-12.345,49.717-39.249Z" transform="translate(217.802 9.987)" fill="#fff"/>
            <path id="_-Ink" data-name="ðŸ–-Ink" d="M-66.5,78.191a4.68,4.68,0,0,0,2.227-2.036.265.265,0,0,0-.23-.394,35.641,35.641,0,0,0-14.4,1.469c-1.257.323-2.48,1.1-3.831.979a11.031,11.031,0,0,0-.653-1.071c4.778-4.372,10.165-9.267,11.319-15.883a6.617,6.617,0,0,0,1.708-.818c.572,0,.685-.649.821-1.088.377-1.211.781-2.413,1.181-3.617,1.869-5.677,3.9-11.3,5.923-16.925a17.867,17.867,0,0,0,.826-2.857c.822-.718-1.017-1.144-1.486-1.386a32.229,32.229,0,0,0-11.741-2.09c-7.417-.1-14.928-.05-22.243,1.269-.105-.415-.266-.352-.2.049a.046.046,0,0,0,.005.085A55.023,55.023,0,0,0-96.24,41.1c-3.1-2.214-6.078-4.762-9.736-6.035.444-.09.581-.792.135-.951.163-3.009-3.168-3.278-5.107-1.806-.593.5-.967,1.885-.01,2.177a6.258,6.258,0,0,0-1.648.569c.051-.925-.594-1.755-1.527-1.1-13.946-6.624-8.053-12.056-9.116-23.982-.081-3.388-.58-3.645-3.71-5.124-1.654-1.015-3.452-1.744-5.181-2.621l-.973-1.942c.228.791.081,1.713.634,2.391a1.86,1.86,0,0,1-1.033,1.853c-2.631,1.907-8.864.623-8.535-3.223a3,3,0,0,0,1.058-1.987c.019-.071-.093-.125-.126-.052a2.431,2.431,0,0,1-2.176,1.925c-9.4-1.312-13.357,3.551-13.6,11.652a22,22,0,0,0,.341,5.177c-.654,2.473-1.236,4.966-1.839,7.452-1.156,5.21-2.74,7.5-5.208,12.268a41.3,41.3,0,0,0-3.647,9.229c-.434,1.8-2.464,5.591-.738,6.982a8.1,8.1,0,0,0,2.126,6.165c-2.813.458-5.835,4.927-2.729,6.829a12.787,12.787,0,0,0,3.437.624c-.109.364.4.631.724.611a4.146,4.146,0,0,0,.2,1.755c.045.313.152.606.5.625.4.016.8-.033,1.211-.019.648,1.005,1.824,1.87,3.051,1.216.735-.345.715-1.251,1.3-1.724,1.334-.863,3.175-.8,4.719-.755.643,2.215.96,4.513,1.476,6.761-.717.891-1.486,1.734-2.284,2.55a.163.163,0,0,0-.086,0c-.679-.632-1.486-1.642-2.548-1.339-7.958-6.949-19.28-6.624-29.286-6.476-5.826.079-11.654.1-17.475.339-1.086.111-3.072-.184-3.283,1.227a13.363,13.363,0,0,0-1.584.227c-.48.177-1.714-.074-1.739.588a16.029,16.029,0,0,0,.7,4.522c.683,1.583,2.377,1.559,3.794,1.028a.6.6,0,0,0,.416-.719c-.177-.84-.4-1.662-.515-2.515-.07-.493-.118-.99-.148-1.486.5.037,1,.054,1.5.061-4.869.427,6.366.41,7.036.341a1.609,1.609,0,0,0,.132,1.788c1.292,1.532,3.8.919,5.606,1.114-27.654,5.692-37.347,41.371-17.8,60.809,20.146,20.879,55.242,8.775,59.769-19.09,1.293.216,2.6.388,3.88.645-.848.654-1.964,1.013-2.734,1.74-.863.824-2.42,2.456-1.448,3.643-.351.325-1,1.1-.4,1.458a.072.072,0,0,0,.079-.036,43.854,43.854,0,0,0,14.454,1.187,7.544,7.544,0,0,0,7.847-6.975c.472-1.868-.044-4.326,1.685-5.629l2.3.081a6.036,6.036,0,0,0,2.208-.073c1.369-.585,1.122-2.539.474-3.583.941-.045,1.891-.043,2.826-.172,3.093-.444,2.342-3.426-.109-4.243-.513-.657-3.116-1.6-3.317-2.379.006-.139.191-.273.286-.369l.347-.352c10.168-10.246,20.458-20.375,30.75-30.5a26.81,26.81,0,0,1,.359,4.457,42.45,42.45,0,0,0,1.267,6.295c-23.956,15.874-20.891,54.183,5.756,65.6,30.936,13.256,59.935-19.611,47.509-48.893C-40.71,88.472-52.888,79.074-66.5,78.191Zm28.611,50.89c-8.618,22.266-38.536,28.908-55.212,11.144-14.868-14.741-12.662-41.76,4.729-53.687q.222.764.461,1.525c-20.536,14.546-17.3,48.31,6.116,58.223,27.772,11.893,53.758-17.633,42.607-43.9C-45.6,85.609-66.5,76.726-82.935,85.073c-.149-.493-.292-.988-.436-1.483,29.181-13.654,57.331,17.569,45.48,45.491m-27.715-13.266q.706.588,1.419,1.167-.843-.08-1.687-.157A3.208,3.208,0,0,0-65.607,115.815Zm-1.143.63q.035-.056.068-.113c-.019.045-.039.089-.061.132l-.006-.019m-.2.286c.044-.056.086-.115.126-.173l.008.033a1.394,1.394,0,0,1-.1.144l-.035,0m-1.714-.705c-.005,0-.008-.017-.006-.067l.019.006c.012,0,0,.061-.013.061m.016-1.044c-.145-.61-.77-1.026-.952-1.52-.009-.02.023-.077.033-.088a1.672,1.672,0,0,1,2.2,1.5c-.6-.259-.878.449-1.265.753a1.861,1.861,0,0,0-.012-.641M-69.97,116.7a.372.372,0,0,0-.023.128c-.195.06-.462.138-.546.315-.076-.021-.153-.041-.228-.065a1.738,1.738,0,0,0,.8-.379m-1.107-3.509c0-.228.375-.261.55-.35a1.227,1.227,0,0,0-.161.553,2.46,2.46,0,0,0-.413-.135c.032,0,.089-.079.023-.069m-.778,1.729a9.771,9.771,0,0,1-.553-.894l.05-.045c2.578-.331,2.842,2.235,1.272,2.439-.026-.417-.074-.412-.042,0a1.727,1.727,0,0,1-1.56-.721c.031-.013.009-.054-.018-.032a1.2,1.2,0,0,1-.087-.208c.4.559,1.282.046.937-.542M-92.018,93.252a32.04,32.04,0,0,1,4.465-4.069,78.047,78.047,0,0,0,13.329,24.585c-.222-.114-.44-.232-.658-.352-.51-.683-1.093-1.322-1.643-1.974-5.146-6.075-10.227-12.224-15.493-18.19m-7.4,30.663a33.615,33.615,0,0,1-1.026-10.552c8.354,1.388,16.947.6,25.247,2.356-8.073,2.727-16.211,5.294-24.221,8.2m2.527-.727c6.687-2.129,13.345-4.348,20.009-6.546.773-.256,1.563-.48,2.314-.794.241.047.483.09.725.127a.2.2,0,0,0,.105-.375c-8.72-2.169-17.843-1.16-26.7-2.282A32.826,32.826,0,0,1-92.04,93.275c5.272,6.6,10.753,13.059,16.134,19.581a146.277,146.277,0,0,0-21.712-9.682,202.174,202.174,0,0,1,24.033,11.369q.083.1.166.205a1.644,1.644,0,0,0,.1,1.178c-7.006,4.438-14.381,8.529-21.276,13.143a.129.129,0,0,0,.126.213c7.048-4.055,13.892-8.56,20.78-12.9-1.092,1.351-2.12,2.755-3.1,4.189l-3.957,3.093q-6.536,5.122-13.037,10.29c5.432-3.965,10.946-8.334,16.376-12.47a104.356,104.356,0,0,0-10.1,19.025c-.122.3.366.423.488.132A126.348,126.348,0,0,1-76.316,120.67c1.3-1.166,3.021-2.079,4.148-3.353a.184.184,0,0,0-.276-.133c-1.094.8-2.153,1.649-3.215,2.491.8-1.2,1.619-2.391,2.429-3.587a2.129,2.129,0,0,0,1.183.906c-.137.595.461.963,1,1.13.536,9.744,1.1,19.5,1.92,29.222.048.231.385.161.4-.053-.58-9.714-1.331-19.434-2.193-29.13,1.418.315,3.164.446,4.391-.447A246.566,246.566,0,0,1-60.816,146.2c.027.146.274.113.264-.035a151.355,151.355,0,0,0-5.83-28.582,2.544,2.544,0,0,0,.43-.594q1.063.164,2.132.294c6.427,5.088,13.019,10.047,19.912,14.5.13.065.282-.1.163-.208-6.58-4.726-13.273-9.324-19.71-14.249a159.245,159.245,0,0,0,25.588.73c-3.365,35.8-51.578,40.83-61.547,5.895.85-.2,1.687-.5,2.518-.762m31.136-11.206a229.745,229.745,0,0,0,21.125-16.8,32.588,32.588,0,0,1,4.835,8.733,236.158,236.158,0,0,0-25.9,8.4c-.215.1-.063.446.161.375q12.708-4.823,25.754-8.738A33.4,33.4,0,0,1-37.842,117.7a174.936,174.936,0,0,1-22.934-.407c-1.035-.087-2.068-.185-3.1-.283q-.861-.639-1.723-1.274a3.567,3.567,0,0,0-1.374-3.09,6.665,6.665,0,0,0,.1-.964c.19-.379.366-.766.553-1.136C-62.482,102.807-58,95.406-53.5,88.019-58.614,94.7-62.876,102.4-66.74,109.955c.653-8.856,1.83-17.659,3-26.46A31.241,31.241,0,0,1-44.674,95.13c-6.6,5.382-13.262,10.687-20.147,15.71-.175.152-1.715,1.143-.938,1.141m-11.781-24.37c-.428-1.012-.882-2-1.381-2.986a30.156,30.156,0,0,1,3.467-.95c1.022,8.584,2.437,17.142,4.2,25.607.042.139.286.121.27-.036q-2.4-12.757-4.336-25.6a30.64,30.64,0,0,1,6.815-.621,236.241,236.241,0,0,0-1.3,28.119.127.127,0,0,0,.254,0c.1-9.38.428-18.757,1.119-28.116q1.061.023,2.11.12c-.2.55-.761,2.04.3,1.977a.216.216,0,0,0,.158-.2,11.317,11.317,0,0,1,.318-1.692q.829.1,1.648.239a237.5,237.5,0,0,0-3.332,26.122,4.954,4.954,0,0,1-.586,2.608,3.3,3.3,0,0,0-2.24-.01c-5.059-8.23-9.833-16.733-12.553-26.04a30.735,30.735,0,0,1,3.253-1.373,30.781,30.781,0,0,0,.982,3.118,3.446,3.446,0,0,0,.654,1.2c.91.429.352-1.126.175-1.479m-11.51-8.446c-.285-1.5-.21-3.019-.364-4.525.8-.092,1.6-.261,2.417-.274a5.593,5.593,0,0,0,1.152-.058c.924.646,1.234,1.759,1.752,2.7a11.507,11.507,0,0,1,.963,2.5c.108.384.314.9.835.748.312-.092.551-.514.259-.763-.219-.162-.261-.49-.408-.72,1.54-.423,3.056-.921,4.568-1.433a37.04,37.04,0,0,1,12.865-1.11c-.622.667-1.606.807-2.382,1.262a2.635,2.635,0,0,0-.532.158,2.582,2.582,0,0,1-.721.443A35.125,35.125,0,0,0-84,81.37c-.562-2.033-1.086-4.078-1.537-6.135-.017-.081-.145-.061-.145.019.507,10.974,8.122,28.586,15.067,37.209-.19.161-.806.474-.614.773-.457-.1-1.673-.152-1.509.569h-.006A77.46,77.46,0,0,1-89.051,79.165m-.7-6.335a45.141,45.141,0,0,1-1.414-5.275,69.222,69.222,0,0,0-2.178-8.332.126.126,0,0,0,.1-.108.92.92,0,0,1,.84-.7,2.185,2.185,0,0,1,1.768.384.476.476,0,0,0,0,.089c1.2,4.785,2.852,9.569,4.145,14.369a6.326,6.326,0,0,0-2.979.932,12.712,12.712,0,0,0-.279-1.356m-13.379,12.065c-5.987,5.965-11.858,12.044-17.9,17.945-.42.54-1.424,1.158-1.522,1.8l-.961-.58c.2-.115.063-.36-.131-.409.676-.028-.618-.183-.772-.18a.6.6,0,0,0,.069-.076c9.7-12.1,22.2-21.846,32.727-33.247.267.866.548,1.724.8,2.593q-6.2,6.035-12.309,12.153m-16.01,22.45c.025.155.183.229.3.318a3.887,3.887,0,0,1-1.587.173q-1.733-.068-3.465-.153c-6.2-.256-12.376-.9-18.564-1.293a13.117,13.117,0,0,1,.379-4.291.606.606,0,0,0,.092.021,3.806,3.806,0,0,0,3.534,2.489c1.64-.323,2.605-1.9,3.976-2.727a6.377,6.377,0,0,1,2.3-1.088.733.733,0,0,0,.646-.06c1.419-.128,2.725.764,3.892,1.467-.715.158-2.1.44-2.409,1.142-.117.484.447.578.8.561a.2.2,0,0,0,.054-.392,1.364,1.364,0,0,1-.127-.051.4.4,0,0,1,.041-.055c.251.054.545-.145.776-.229a13.366,13.366,0,0,1,1.666-.492l1.39.842c-.6.136-1.7.509-1.722,1.227a.305.305,0,0,0,.526.2.187.187,0,0,0,.092-.2c.47-.688,1.44-.422,2.166-.579l5.245,3.175m-23.347-.687c.008-.042.015-.083.02-.125a2.349,2.349,0,0,0,.455.093,2.593,2.593,0,0,0-.475.032m24.052,1.273c1.766,1.044,1.6,2.589-.564,2.67a64.534,64.534,0,0,1-7.868.092,75.754,75.754,0,0,1-14.988-2.164c-.759-.1-.921-.647-.916-1.319.2-.293.668-.249,1.026-.248,6.517.136,13,1.12,19.534,1.268.544-.052,2.659.337,2.809-.125a2.291,2.291,0,0,0,.967-.173m-4.3,5.155c0,.174,0,.348,0,.522q-1.152.049-2.3.023a.7.7,0,0,0-.091-.569.649.649,0,0,0-.2-.56.664.664,0,0,0-.064-.313c.9.066,1.8.156,2.7.248,0,.215-.031.472-.034.649m-5.533,2.5c-3.808,3.244-8.986,7-14.2,4.649a16.067,16.067,0,0,0-2.585-1.034c-12.956-2.208-26-4.109-39.1-5.277.79-.73.668-1.839.832-2.8l0,0a.573.573,0,0,0,.563.634c9.372.953,18.68,2.562,28,3.945,0,.015,0,.031,0,.047,2.259.243,4.5.7,6.742,1.045,1.434.237,2.866.507,4.305.713a.25.25,0,0,0,.237-.094,2.832,2.832,0,0,0,.807-.073c.862,3.01,4.616,3.672,4.189-.23q1.8-.65,3.59-1.353c.442-.21,1.878-.431,1.211-1.132a40.882,40.882,0,0,0,5.791.37,3.2,3.2,0,0,0-.376.593m-.716,3.615c-.357,3.811-1.873,7.212-6.241,7.422a90.689,90.689,0,0,1-15.107-.261c.017-.046.005-.082-.042-.038a1.513,1.513,0,0,1,.671-1.035,2.705,2.705,0,0,0,1.935.033c.97.133,2.1.306,2.816-.473.356-.375.1-.787-.219-1.085q1.343-.969,2.683-1.945c.261-.189.648-.318.8-.61,4.854,1.515,9.521-1.534,13.049-4.531a25.435,25.435,0,0,0-.34,2.522m-20.8,4.94a5.36,5.36,0,0,1,1.736-2.648,19.446,19.446,0,0,0,2.717-1.567c.641-.218,2.187.777,2.9,1.006a26.645,26.645,0,0,1-5.393,3.435,4.646,4.646,0,0,1-.742.314.343.343,0,0,0-.388.074c-.425.038-.89-.094-.828-.613m-4.386,1.623c-8.426,21.5-37.486,27.79-53.656,10.727-18.018-17.911-9.549-50.855,15.788-56.745a5.815,5.815,0,0,0,.256,1c-23.932,5.8-31.563,37.582-14.763,54.538,17.972,18.86,48.413,7.79,52.554-16.939l1.893.294a33.977,33.977,0,0,1-2.073,7.122m-30.365-46.893a32.426,32.426,0,0,1,21.634,8.285c-.069.113-.195.219-.216.349l-.67.664a30.259,30.259,0,0,0-27.675-7.5,6,6,0,0,1-.35-.977,32.3,32.3,0,0,1,7.278-.823m-7.543-2.273c-1.5-.154-4.232.419-5.129-.993a1.237,1.237,0,0,1-.1-1.215c9.166-.035,18.358-.591,27.515-.212,2.8.153,5.354,1.473,7.72,2.85a.345.345,0,0,0-.082.085c-7.467-.152-14.921-.158-22.378-.566-2.524.1-5.021.141-7.543.051m-9.237-3.282c-1.573.04-3.148.129-4.711.3-.006-.515.061-1.311-.663-1.3.282-.958,3.171-.5,4.052-.638q8.008-.157,16.019-.217c10.16-.3,21.333-.246,29.526,6.324a.1.1,0,0,0,.1-.006c.711-.427,1.6.842,2.084,1.256-.381.342-.8.633-1.2.956a4.631,4.631,0,0,1-.5-.627.37.37,0,0,0-.065-.625c-1.512-.816-3.071-1.553-4.608-2.322-1.117-.491-2.078-1.248-3.2-1.728a14.465,14.465,0,0,0-2.065-.725,15.025,15.025,0,0,0-3.7-.806c-10.351-.327-20.726-.086-31.079.156m-5.8,4.572a.662.662,0,0,0,.384-.428c.026.109.054.217.084.324a3.26,3.26,0,0,1-.468.1m49.975,1.712c.1.435.5.734.706,1.115-1.651,1.549-3.337,3.064-4.9,4.7a35,35,0,0,0-14.74-7.83q6.953.137,13.905.267a.335.335,0,0,0,.316-.173,3.079,3.079,0,0,0,.735-.24c1.314.668,2.627,1.343,3.963,1.965a.835.835,0,0,0,.012.194m-28.862,13.3c1.242,4.5,1.92,9.195,3.577,13.57.008.02.045.019.042-.006-.021-.233,0-.465-.029-.7-.653-3.8-1.678-7.532-2.537-11.291,1.092,1.733,3.948,8.891,5.681,9.047q-1.8,1.788-3.605,3.576c-1.144,1.11-2.265,2.568-3.937,2.87a2.238,2.238,0,0,0-1.574.712,1.223,1.223,0,0,1,.076-1.344c1.21-1.782,3.8-1.025,5.335-2.334.28-.273-.182-.705-.506-.444a4.507,4.507,0,0,1-2.124.739c-2.471-8.346-4.874-16.726-7.541-25.015q.891-.281,1.8-.5c1.269,2.3,2.358,4.648,3.517,7,.566,1.392,1.609,2.649,1.827,4.123m11.991,28.764c-.369-.389-1.632.214-.946.619a15.713,15.713,0,0,0,1.8.115c5.539.177,11.068.721,16.574,1.216-7.173,20.514-33.9,27.205-49.142,10.913-15.692-15.858-9.429-45.448,12.484-52.216,2.285,8.387,4.856,16.705,7.328,25.04a5.938,5.938,0,0,0-1.854.609c-1.171.585-2.077,2.3-.969,3.335a2.7,2.7,0,0,0,4.495,2.714c9.7,1.484,19.444,2.64,29.136,4.164a32.077,32.077,0,0,1-1.269,4.853,6.185,6.185,0,0,0-1.743-.331c-.61-.077-1.22-.149-1.832-.212A137.066,137.066,0,0,0-174,121.708a.043.043,0,0,0-.019-.045m21.093-43.649a15.276,15.276,0,0,0,1.139-1.086q.378,1.815.761,3.63C-161.7,90.412-172.637,100-183.246,109.91a.506.506,0,0,0-.4-.181.932.932,0,0,1-.153.027l.046-.008a.639.639,0,0,0-.6.483.754.754,0,0,0,.483.962c-.024.142-.038.285-.049.428a3.352,3.352,0,0,0-.709-.413,1.952,1.952,0,0,0-1.256-.511c-.906-.271-1.592.555-.657.587a3.469,3.469,0,0,1,.734-.09c.433.577.886,1.832,1.8,1.349-.095.49-.429,1.185-.94,1.319-.053.022.015.045.043.043a2.176,2.176,0,0,1-3.171-2.826c.353-.573,1.076-.581,1.672-.709a4.059,4.059,0,0,0,.973-.4c3.406-2.58,6.137-5.971,9.255-8.881,7.771-7.672,15.413-15.472,23.252-23.077m-28.015,30.414,3.775-3.426c2.016.853,4.085,1.607,6.13,2.4a60.187,60.187,0,0,0-9.905,1.028m1.626,1.191a3.23,3.23,0,0,0-3.1.132c.4-.4.851-.76,1.265-1.133,3.3-.185,6.584-.62,9.89-.686q.768-.026,1.536-.039,1.285.48,2.574.948c4.156,1.492,8.335,2.924,12.548,4.25q-.024,1.076-.116,2.138c-7.9-1.231-15.8-2.416-23.734-3.375.627-.676-.211-1.88-.863-2.234m27.708,4.366q-.033.864-.109,1.72-.944-.152-1.887-.3.087-.979.119-1.967c.623.19,1.249.375,1.877.548m-1.863-1.23A33.233,33.233,0,0,0-161.4,90.667l1.059-.964a34.118,34.118,0,0,1,8.755,23.6q-.945-.261-1.883-.545m1.485-14.167a35.978,35.978,0,0,0-6.62-10.464q3.842-3.492,7.707-6.957c2.473,11.949,5.253,23.849,8.122,35.7a2.908,2.908,0,0,1-1.154.126c-1.805-.348-3.627-.632-5.445-.917a36.774,36.774,0,0,0-2.609-17.489m9.939,18.779c-.03-.083-.056-.171-.077-.258q.037.129.077.258m8.091-4.726c.439-1.161,1.733-1.653,2.5-.486,1.027,2.173-2.98,2.521-2.5.486m-.765-1.4a5.264,5.264,0,0,0-.275,2.081.4.4,0,0,0,.193.353,1.623,1.623,0,0,0,1,.908c-.512-.071-.9.385-1.356.563q-1.69.874-3.353,1.8c-.444-2.3-1.428-4.5-1.452-6.864-.069-.64,1.069-.061,1.419-.07q1.729.352,3.476.621a.422.422,0,0,0,.349.612m-5.612-1.62.084.019a.52.52,0,0,0-.038.061c-.015-.027-.029-.054-.045-.08M-152.5,69.02c.965.115,1.93.227,2.9.33a153.487,153.487,0,0,0,5.7,27.879c.161.551.325,1.1.489,1.651.235.526.206,1.634.968,1.625q-.05.507-.067,1.019a7.516,7.516,0,0,0-.6,1.706,22.224,22.224,0,0,0-.311,2.98c-.149,2.471.254,2.852,2.69,3.316.641,2.55.947,5.227,1.485,7.819a3.04,3.04,0,0,1,.085,1.418c-.342.681-1.052.612-1.626.178a4.4,4.4,0,0,1-.934-2c-2.261-7.452-3.775-15.094-5.307-22.715-1.584-8.454-3.849-16.759-5.469-25.2m7.179,18.089c0-.006,0-.015-.011-.011,3.364-1.433,6.716-3.065,10.055-4.612-2.125,5.738-6.067,10.862-7.04,16.993-1.214-4.1-2.2-8.254-3.182-12.409.035.078.128.132.177.038m-.555-2.206c3.937-2.1,7.941-4.132,11.774-6.422-.254,1.054-.52,2.1-.867,3.132-2.074.989-4.13,2.016-6.194,3.029-1.32.653-2.646,1.3-3.925,2.025-.118.071-.416.173-.425.346q-.245-1.05-.478-2.1a.234.234,0,0,0,.114-.007m-2.55-13.606c-.15-.5-.152-1.021-.267-1.544a10.7,10.7,0,0,0,1.527-.19,5.382,5.382,0,0,0,1.616-.188A104.04,104.04,0,0,0-134.8,76.305a2.667,2.667,0,0,0,1.124.413c-.106.428-.208.857-.31,1.287-3.943,2.05-8.024,3.926-11.888,6.085,1.366-.624,2.716-1.286,4.064-1.953-1.389.818-2.93,1.335-4.318,2.146-.876-4.3-2-8.607-2.3-12.986m15.9,29.042a14.865,14.865,0,0,0-4.724,2.851c-1.326,1.241-3.165.392-4.142-.853.088-.132-.192-.133-.243-.281,2.584-3.372,5.213-3.743,9.291-3.741a3.616,3.616,0,0,0-.181,2.024m-25.711-31.507a2.814,2.814,0,0,0-1.495,1.71c-.34.711-1.2.34-1.589-.112a1.765,1.765,0,0,0-2.116-.947,5.717,5.717,0,0,1-.465-1.608,36.3,36.3,0,0,0,5.883.863c-.073.03-.146.061-.219.1M-167.1,49.839a6.521,6.521,0,0,1,.607-1.352.1.1,0,0,0-.114-.139c1.318-6,4.725-10.6,6.755-16.35,1.606-5,2.787-7.963,3.412-13.169,1.263,6.265,1.862,11.052,7.75,14.914a35.49,35.49,0,0,0,13.05,4.8,5.842,5.842,0,0,0-1.119,3.635,27.352,27.352,0,0,0-.079,6.769,22.773,22.773,0,0,1-6.271-.166c-8.257-1.563-17.1-.441-24.267,4.037a7.078,7.078,0,0,1,.275-2.981M-155.043,7.7c1.395-5.477,5.213-6.239,11.144-5.819a3.927,3.927,0,0,0,1.6-.423c-1.5,12.505,6.114,16.942,8.074,28.948-7.548-3.237-12.4-7.04-12.764-15.032-.08-1.26-.018-2.518-.024-3.779a.043.043,0,0,0-.083-.011c-3.044,11.035,5.567,18.912,16.606,21.284-.548,1.285-.981,2-1.529,3.29a.012.012,0,0,0,0,.006l0,.006a9.6,9.6,0,0,1-.833,1.628c-.044.064-.184.187-.04.061a1.355,1.355,0,0,0-.106.118c-.6.044-2.175-.877-2.6-.532-5.711-1.153-12.329-2.342-15.817-7.285-3.688-7.194-5.552-14.584-3.621-22.46m13.7-3.338c2.414,2.418,7.7,2.671,9.565-.477-.115,10.819-.646,14.967-1.6,25.745-2.185-11.05-8.135-14.569-8.536-26a4.415,4.415,0,0,0,.567.728m10.368-1.206a16.589,16.589,0,0,1,3.387,1.986c1.123.845,2.759.843,3.064,2.357a54.851,54.851,0,0,1,.128,8.1c-.874,10.67-1.082,14.031,9.871,19.522a2.292,2.292,0,0,0,.126.4c-1.434.511-3.109.3-4.441,1.083a4.381,4.381,0,0,0-2.288-1.859,3.016,3.016,0,0,0-1.235.016c-.233.019-.487.143-.688-.012-1.5-.862-3-1.154-4.159-2.422-.859-.774-.414-2.561-.583-3.657-.39-7.212.132-10.546.594-17.741a9.855,9.855,0,0,0-.012-1.625.032.032,0,0,0-.062-.008c-1.755,7.316-1.563,11.128-1.58,18.611a31.318,31.318,0,0,0,.617,5.763c.03.279.465.293.454,0a8.66,8.66,0,0,1,.035-1.1c.443.319.677.154.987.584a10.911,10.911,0,0,0,1.71,1.606c-1.579-.267-3.07-.991-4.647-1.34.09-.235.181-.47.279-.7l-.007.019c.049-.121.115.354.179.238a.593.593,0,0,0-.171-1.051,21.649,21.649,0,0,1-2.75-.717c.719-11.63,1.967-16.682.666-28.319.176.094.353.183.526.27m17.217,32.955c.467-.174.236-.6.081-.929a.585.585,0,0,0,.233-.3,5.466,5.466,0,0,0,.982,2.958c-1.838.208-3.685.367-5.518.6-.024-.058-.049-.115-.075-.171.685-.341-.278-1-.527-1.335,1.595-.36,3.28-.253,4.824-.82m2.812-.869c5.035-.207,9.164,3,12.962,5.836.627.376,1.15,1.1,1.945,1.049q.1.53.205,1.058a8.375,8.375,0,0,1-4.87-1.213c-2.922-2.976-6.81-5.488-11.211-4.771a4.509,4.509,0,0,1-.667-1.908,13.142,13.142,0,0,1,1.636-.051m1.03-2.188c.738-.316,2.238-.773,2.67.162,0,0,.045.124.044.122a1.707,1.707,0,0,1,.057.752,16.078,16.078,0,0,1-2.789-.2.549.549,0,0,0-.364-.508,1.12,1.12,0,0,1,.382-.33m8.787,9.759.022-.022a6.029,6.029,0,0,0,1.293.689,6.449,6.449,0,0,1-2.046.015c.248-.228.488-.466.731-.682m-25.76-1.4a2.825,2.825,0,0,1-.319.148l-.066-.04c-.331-.257-.768-.575-.741-1.037.384.3.754.614,1.126.929m5.122-6.007c1.535.03,2.152,1.672,3.085,2.617-.48.417.549,1.192-.067,1.688-1.583.7-3.288,1.173-4.913,1.795a2.075,2.075,0,0,1-1.272.19c.009-.014.017-.028.026-.042-.124-.078-.388-.085-.392-.264a2.267,2.267,0,0,1-.692-.452l-.058.024c-1.573-1.294-3.486-2.96-5.691-2.609a28.724,28.724,0,0,0,1.849-4.411c1.863.308,3.467,1.4,5.384,1.56.935.038,1.9-.365,2.835-.044q-.047-.027-.095-.052m-11.221,3.821a1.408,1.408,0,0,0,1.09-.641,10.576,10.576,0,0,1,3.385,1.531c-.856.425-.515,1.381-.038,1.954a52.269,52.269,0,0,1,.166,5.855A34.83,34.83,0,0,1-133.3,47.2c-.509-2.633-.175-5.339-.047-7.994a1.894,1.894,0,0,0,.363.021m-2.644,8.038c-.077-1.556.048-3.111.115-4.665a9.6,9.6,0,0,1,.568-3.814c.442.12.855.232,1.29.357a16.154,16.154,0,0,0-.905,7.011c0,1.908.439,2.105,2.264,2.351a3.814,3.814,0,0,0,1.487,3.17,51.168,51.168,0,0,0-7.42-1.71c.479-.076,2.244-.1,2.341-.613.68-.373.22-1.459.259-2.089m40.5-.417c-2.647,3.774-3.109,6.032-2.313,10.561a1.664,1.664,0,0,0,1.151,1.528c-6.693,3.654-13.458,7.2-20.028,11.064q1.336-3.175,2.61-6.374c.833-1.807,1.545-4.075-.439-5.425A46.8,46.8,0,0,0-128.719,52.2c-.186-.512-.732-.808-1.1-1.189a9.341,9.341,0,0,1-2.217-2.458,30.461,30.461,0,0,0,4.1.334.473.473,0,0,0,.47-.462c.03-1.867.031-3.735-.11-5.6.663.209,1.287-.221,1.852-.514a2.665,2.665,0,0,0,2.614-.066l3.758-1.39c.756-.225,1.668-.655,1.585-1.57,1.551-.166,3.094-.381,4.645-.553.787-.006,1.989-.21,1.381-1.237a15.052,15.052,0,0,1,10.19,4.958c-.392.349-.779.7-1.177,1.045-.45.37-1.064-.018-1.579-.06a79.765,79.765,0,0,1-10.97-2.753,15.487,15.487,0,0,1-2.119-1.145c-.3-.2-.587.283-.284.478,1.892,1.31,4.138,1.842,6.294,2.557,1.587.5,7.929,2.419,9.028,1.352,1.247.451,2.609.058,3.89-.036a17,17,0,0,0,2.809.2q.264,1.38.531,2.759M-118.25,74.721l-.125.067.016-.037.109-.031m23.891-14.277c.123.607.2,1.216.36,1.816-.579-.165-2.123,1.06-2.754,1.332q-1.192.669-2.391,1.326c-3.831,2.109-7.7,4.157-11.622,6.09-.1-.337-2.117,1.16-2.537,1.247a31.434,31.434,0,0,1-4.969,2.3c.622-1.176.929-2.644,1.714-3.674,2.547-1.533,5.16-2.958,7.756-4.408,4.354-2.436,8.86-4.667,12.962-7.507a3.132,3.132,0,0,1,1.437.049,3,3,0,0,0,.044,1.433m-30.565,43.4-.19.023c.053-.015.106-.029.159-.042l.031.019m-.209-.907a.319.319,0,0,0-.055.115l-.841-.507c.117-.022.235-.046.352-.071.228-.05.184-.436-.056-.409a1.848,1.848,0,0,1-1.644-.342c.744.048,1.087-.851,1.433-1.371,1.875-3.5,3.622-7.059,5.676-10.464,1.764-3.125,3.542-6.244,5.291-9.377,1.27-2.037,2.256-4.986.183-6.856A189.554,189.554,0,0,0-93.859,62.819c.563,2.433,1.4,4.791,2.18,7.162-11.439,10.663-23.51,20.889-33.454,32.958M-93.933,53q.32,1.645.64,3.291c-.263.586-.307,1.364-.859,1.775-.208.107-.475-.042-.687-.078-.471-.15-1.037.247-1.441-.044a2.35,2.35,0,0,1-.354-1.262,21.455,21.455,0,0,1-.294-3.646c-.021-2.054,1.033-3.807,1.913-5.6q.539,2.783,1.082,5.565m1.024,4.969c.015.028.032.055.05.082q-.063.027-.124.059c.026-.047.051-.094.074-.142m2.488,1.242c.009.057.018.113.029.169l-.08-.2a.458.458,0,0,0,.051.031m2.227.53c5,1.514,10.519,2.586,15.721,1.628C-74.612,67.382-79.137,72.086-83.84,76.3c-.506-.738-.9-1.863-1.835-2.1a.578.578,0,0,0-.149-.881c-1.327-4.775-2.981-9.463-4.218-14.256.606.253,1.224.478,1.847.684m16.848-23.424c.068-.2.395-.115.326.088-1.469,5.007-2.854,10.069-3.9,15.177.049.351-.509.388-.3-.3C-74.116,46.254-72.845,41.244-71.346,36.319ZM-207.8,77.863a.961.961,0,0,1-.458-.267.762.762,0,0,0,.252-.029.788.788,0,0,0,.422.332,1.355,1.355,0,0,1-.216-.037m-1.107-4.615a2.564,2.564,0,0,0-.167.853q-.019.165-.03.332c-.057-.344-.119-.688-.2-1.027C-209.171,73.351-209.04,73.3-208.907,73.248Zm46.743-12.787c7.105,1.067,10.054,1.209,12.173,1.4-4.361.325-14.283-.872-14.218-1.446C-164.21,60.2-162.437,60.419-162.165,60.46Z" transform="translate(219.804 2.793)"/>
          </g>
          <g id="Head" transform="translate(63.464 0)">
            <g id="head_Long-Afro" data-name="head/Long-Afro" transform="translate(0 0)">
              <path id="_-Background-2" data-name="ðŸŽ¨-Background" d="M33.845,37.4c-.378-4.6-1.529-8.676-6.936-8.85a18.905,18.905,0,0,0-7.175,1.5c-5.454,2.731-7.185,12.71-2.38,16.727a.051.051,0,0,0,0,.086,18.608,18.608,0,0,0,3.2,1.677c2.944,1.243,6.41,1.783,9.412.435C34.548,47.02,34.616,41.6,33.845,37.4Z" transform="translate(-3.09 -15.679)" fill="#fff"/>
              <path id="_-Ink-2" data-name="ðŸ–-Ink" d="M2.158-10.476a1.368,1.368,0,0,0,.4-.641,1.251,1.251,0,0,0,0-.7c-.074-.243-.233-.437-.2-.69a.577.577,0,0,1,.017-.076c.138-.476.476-.82.355-1.348a.914.914,0,0,0-.188-.389c.01-.114.019-.23.026-.345a1.841,1.841,0,0,0-.02-1.474,5.564,5.564,0,0,0-.12-.694,1.333,1.333,0,0,0-.075-.6,8.528,8.528,0,0,0-.408-.918.338.338,0,0,0-.036-.247,2.294,2.294,0,0,0-.3-.385c-.079-.141-.159-.281-.237-.419-.037-.063-.077-.134-.121-.208a.714.714,0,0,0,.058-.708.327.327,0,0,0-.29-.166c-.119.007-.24.012-.361.017A2.577,2.577,0,0,0-.1-21.126c-.278-.235-.56-.466-.834-.7l-.233-.2,0-.005c-.057-.208-.122-.414-.186-.621-.04-.128-.052-.262-.177-.332a2.567,2.567,0,0,0-.962-.194l-.089-.079a1.4,1.4,0,0,0-.059-1.109.273.273,0,0,0-.372-.1,1.247,1.247,0,0,1-.862.227c-.443-.34-2.228-1.876-2.5-2.039l-.01-.017a2.237,2.237,0,0,0-.555-.605l-.091-.095a1.15,1.15,0,0,1,.209-.523c.012-.018.026-.035.04-.051a.264.264,0,0,0-.319-.413l-.059.027c-.212.094-.446.2-.69.283-.089-.033-.18-.064-.263-.1l-.889-.357c-.146-.059-.3-.108-.442-.177a.681.681,0,0,0-.72-.531.638.638,0,0,1,.091-.182c.012-.017.025-.034.039-.049.176-.2-.059-.582-.31-.4l-.053.038c-.07.049-.141.095-.213.139A.486.486,0,0,0-11-29.3a3.933,3.933,0,0,0-.845.423l-.033.021a.724.724,0,0,0-.53-.264h-.01a.693.693,0,0,0-.649-.309.658.658,0,0,0-.572-.616.662.662,0,0,0-.722.471l-.082.267a2.9,2.9,0,0,0-.8-.276,4.16,4.16,0,0,0-1.881.185l-.185.054c-.088-.1-.17-.206-.249-.3a.26.26,0,0,0-.441.182.353.353,0,0,1-.143.332,2.116,2.116,0,0,1-.366.017,1.206,1.206,0,0,1-.515-.095.68.68,0,0,1-.284-.234.683.683,0,0,0-1.066-.112.7.7,0,0,0-.8.29.806.806,0,0,1-.474.259c-.164.046-.331.08-.5.111a.26.26,0,0,0-.348-.084c-.078.058-.154.117-.23.178a3.249,3.249,0,0,1-1.706-.143c-.467-.191-.9.33-.819.768-.135.07-.282.117-.416.191a1.646,1.646,0,0,0-.677.714c-.026.054-.05.108-.072.162-.109.089-.217.18-.322.275l-.525-.269c-.131-.067-.352-.02-.378.153a1.578,1.578,0,0,1-.292.721,11.97,11.97,0,0,0-1.378.845c-.506.158-1.044.251-1.486.355a.25.25,0,0,0-.149.365l.27.417q-.377.368-.711.766a14.244,14.244,0,0,0-1.6,2.4l-.552.222a.26.26,0,0,0-.113.428,1.639,1.639,0,0,1,.182.228,3.029,3.029,0,0,1-1,1.08.672.672,0,0,0-.281.34c-.045.03-.089.062-.132.094a.263.263,0,0,0-.052.409,1.641,1.641,0,0,1,.273.292c.017.062.035.125.052.187A4.628,4.628,0,0,0-35.6-16.53a.219.219,0,0,0-.168.033,1.067,1.067,0,0,0-.279,1.319,4.768,4.768,0,0,0,.17,2.109,1.979,1.979,0,0,0-.505,1.046,21.349,21.349,0,0,0-.157,2.372,2.425,2.425,0,0,0-.629,1.06l-.3.148a.293.293,0,0,0-.148.258A2.092,2.092,0,0,0-37.134-7a2.61,2.61,0,0,0,.406.733,5.561,5.561,0,0,1,.35.481.306.306,0,0,1,.023.044.977.977,0,0,0-.107.173,1.122,1.122,0,0,0,.1,1.362.339.339,0,0,0-.02.473,8.142,8.142,0,0,0,2.517,2.449.27.27,0,0,1,.013.025,1.594,1.594,0,0,0-.07,1.348.142.142,0,0,0,0,.014c.1.286.272.744.59.833a1.07,1.07,0,0,0,.3.04l.755.729a2.529,2.529,0,0,1,.04.365.326.326,0,0,0,.409.311c.073-.021.479-.415.553-.412l.11.113a1.217,1.217,0,0,1,.335.508.721.721,0,0,0,.5.649.278.278,0,0,0,.421,0c.009-.009.018-.019.027-.027l.042,0q.1.29.2.58a.69.69,0,0,0,.966.4c.056.034.111.069.166.105.084.053.168.108.255.159l.014.042a.306.306,0,0,0,.433.164,1.274,1.274,0,0,0,.137.035,1.377,1.377,0,0,0,.722-.046,2.212,2.212,0,0,1,.509-.181h.034a1.418,1.418,0,0,0,.749.649,1.394,1.394,0,0,0,1.02-.067,2.365,2.365,0,0,0,.321.481.2.2,0,0,0,.273,0q.209-.185.415-.371c.1-.038.2-.085.306-.127a5.867,5.867,0,0,0,.994-.384,1.679,1.679,0,0,0,.392-.346,2.824,2.824,0,0,0,.579-.446.58.58,0,0,0,.266-.064,1.1,1.1,0,0,0,.579-.957A6.734,6.734,0,0,0-19.981.619a5.5,5.5,0,0,0,0-.756,1.325,1.325,0,0,0-.125-.455,1.407,1.407,0,0,1-.059-.153c0-.169.006-.339.008-.508a.95.95,0,0,1,.241-.387.619.619,0,0,0,.1-.745l-.312-.414c.029-.592.171-1.535-.144-1.634.013-.088.04-.175.055-.262a1.591,1.591,0,0,0-.194-1.163c-.047-.076-.086-.144-.119-.21L-20.6-6.43c-.031-.186-.062-.374-.089-.564-.014-.241-.026-.482-.04-.723q-.019-.333-.042-.667c.006-.1.015-.2.028-.3A1.826,1.826,0,0,1-20-9.907c.066-.01.132-.022.2-.035a3,3,0,0,1,.923-.124c.335.037.635.182.961,0,.1-.055.307-.207.325-.327a.075.075,0,0,1,0-.019c.023,0,.052-.006.07-.007.259-.009.506.093.767.065a1.2,1.2,0,0,0,.767-.373,1.918,1.918,0,0,0,.713.051,1.585,1.585,0,0,0,.564-.19c.131-.07.089-.091.231-.034a1.537,1.537,0,0,0,.98.214,1.042,1.042,0,0,0,.489-.285,1.667,1.667,0,0,0,.124-.125c.173.087.608.285.679.3a1.112,1.112,0,0,0,.615-.024c.145-.048.322-.18.449-.207.165-.035.53.194.727.272a1.386,1.386,0,0,0,1.059.03c.12-.049.354-.244.443-.242a9.773,9.773,0,0,1,.676,1.523A24.244,24.244,0,0,1-7.842-2.3c-.009.034-.018.068-.028.1A16.426,16.426,0,0,1-8.912.762a4.846,4.846,0,0,1-1.936,2.16,5.5,5.5,0,0,1-3.008.564A10.453,10.453,0,0,1-15.8,3.145c-.334-.086-.665-.183-.994-.283-.144-.043-.29-.084-.431-.135a.66.66,0,0,0-.618.018.448.448,0,0,0-.16.607c.184.317.521.339.846.431s.664.184,1,.265a12.959,12.959,0,0,0,1.951.327,6.727,6.727,0,0,0,3.462-.566c.121-.058.238-.12.351-.187-.042.058-.084.117-.127.174a.381.381,0,0,0,.136.52c.053.027.106.054.159.08.007.017.015.034.024.051a1.167,1.167,0,0,0,.8.564A4.732,4.732,0,0,0-8.2,5.026L-7.1,4.993l.258-.008,1.3-.039a1.3,1.3,0,0,0,.729-.136,1.081,1.081,0,0,0,.4-.3,1.63,1.63,0,0,0,.2-.106,2.623,2.623,0,0,0,.561-.492A.545.545,0,0,0-2.9,3.561c.09-.578.842-.825,1.194-1.243a1.882,1.882,0,0,0,.476-1.2A2.588,2.588,0,0,0-.04-.911C0-1.269,0-1.653.057-2.017A.606.606,0,0,0,.128-2.11,7.685,7.685,0,0,0,.6-3a1.237,1.237,0,0,1,.648-.231.512.512,0,0,0,.136-1l-.008,0A1.44,1.44,0,0,0,1.334-5.41c.008-.038.015-.076.022-.115a1.751,1.751,0,0,0,.468-1.245A1.527,1.527,0,0,1,2.3-7a.3.3,0,0,0,.072-.547.926.926,0,0,1-.2-.2,1.289,1.289,0,0,0-.2-1.225L2.5-9.653a.393.393,0,0,0,0-.549Z" transform="translate(37.615 30.048)"/>
            </g>
            <g id="face_Smile" data-name="face/Smile" transform="translate(19.934 19.685)">
              <path id="_-Ink-3" data-name="ðŸ–-Ink" d="M18.444,23.409a2.241,2.241,0,0,1-.942-.724.434.434,0,0,1-.088-.338.487.487,0,0,1,.19-.3.455.455,0,0,1,.34-.092.426.426,0,0,1,.288.19l.017.023a1.484,1.484,0,0,0,.544.456,1.227,1.227,0,0,0,.673.118,1.807,1.807,0,0,0,1.1-.628c.041-.042.082-.085.124-.129a.194.194,0,0,1,.1-.079.221.221,0,0,1,.141,0,.225.225,0,0,1,.111.084.206.206,0,0,1,.035.136,1.411,1.411,0,0,1-.467.892,2,2,0,0,1-2.166.392ZM19.778,18.1c.416.252,1.049.841.6,1.467-.527.552-1.285-.081-1.658-.367-.346-.222-.736.349-.414.607,2.7,2,3.795-1.641,1.681-2C19.755,17.763,19.669,18.022,19.778,18.1ZM14.94,15.778c.046-.569.914-.7,1-.135a2.3,2.3,0,0,1-.241,1.423.425.425,0,0,1-.806-.164A4.583,4.583,0,0,1,14.94,15.778Zm6.611-.252a.464.464,0,0,1,.505-.205c.654.191.462,1.119.232,1.57a.456.456,0,0,1-.711.091,1.1,1.1,0,0,1-.062-1.4A.477.477,0,0,1,21.551,15.526Zm-5.861-2.24.1-.018c.32-.055.717-.108.944.148a.373.373,0,0,1,0,.52c-.284.229-.6.14-.937.16a3.734,3.734,0,0,0-.819.139,5.571,5.571,0,0,0-1.58.816c-.066.044-.134-.04-.1-.1a3.262,3.262,0,0,1,1.424-1.326A3.526,3.526,0,0,1,15.69,13.286Zm5.264-.256.079.016a3.312,3.312,0,0,1,2.388,1.383c.016.119,0,.145-.014.162l0,.006a.111.111,0,0,1-.072.05l-.044-.011a2.475,2.475,0,0,1-.478-.186l-.155-.076a4.281,4.281,0,0,0-.554-.236,6.537,6.537,0,0,0-1.263-.278.519.519,0,0,1-.253-.1.38.38,0,0,1-.142-.215.386.386,0,0,1,.044-.323.41.41,0,0,1,.2-.172A.47.47,0,0,1,20.955,13.031Z" transform="translate(-13.29 -13.021)"/>
            </g>
          </g>
        </g>
      </g>
    </g>
    <g id="Introduction-2" data-name="Introduction" transform="translate(226.054 3407.629)">
      <g id="variations-sitting-2" data-name="variations-sitting" transform="translate(0 0)">
        <g id="a-person_sitting-2" data-name="a-person/sitting" transform="translate(0 0)">
          <g id="pose_sitting_wheelchair" data-name="pose/sitting/wheelchair" transform="translate(0 26.616)">
            <path id="_-Background-3" data-name="ðŸŽ¨-Background" d="M27.119,84.121c1.315-.24,1.788,1.286,1.845,2.251a11.738,11.738,0,0,0,1.561-.814c.788-.5,1.639-1.373,2.57-1.35l.043-.236c.048-.414.891-.138,1.119.007a1.932,1.932,0,0,0,1.01-.769c-.985-.364-1.417-.378-1.261-1.64a1.877,1.877,0,0,0,0-.551,81.465,81.465,0,0,0,1.554-15.795l-.6-.121c-1.913,5.341-3.73,10.946-5.361,16.657-.04.257-.187.26-.33.121a7.427,7.427,0,0,1-1.477-.068l.007-.023c-.151,0-.3-.007-.441-.016a12.606,12.606,0,0,0-.229,2.347Zm.793-2.915c-.033-.016-.413-.184-.456-.2l-.009.094c.163.063.328.125.494.18l.015-.052ZM44.137,92.646c.641.154,1.32.349,1.95.532l-.247-.6a76.766,76.766,0,0,0,3.3-11.678c.56-2.541,1.141-5.169,1.917-7.687.98-3.955,3.1-8.024,7.565-8.363l.075-.129.088-.082c.218-2.773.513-5.537.8-8.191a22.937,22.937,0,0,1-6.739.425c-.741-.1-1.727.112-2.318-.225l-.391-.4c-2.6,10.249-3.271,20.812-4.2,31.191a.257.257,0,0,1-.4.218c-.218.239-.672.147-.982.182a7.451,7.451,0,0,1-.8,4.705Zm6.093-.875A7.941,7.941,0,0,1,55.7,89.835a7.46,7.46,0,0,1,2.778-2.726,15,15,0,0,0,.344-5.242c-.255-1.66.317-1.853,1.671-1.732-.582-.7-.53-.872-.412-1.794-.387.06-1.557.824-1.718.284-.194-1.052-.326-1.966-.4-2.795-.041-.708.46-1.452.4-2.172.184-1.852,0-3.925.849-5.632-3.461.462-4.3,4.234-5.2,7.012-1.843,5.723-3.13,11.567-4.5,17.337Zm10.659-13.1a2.01,2.01,0,0,1,.123.539c1.628-.3,1.338,2.09,1.49,3.4a1.469,1.469,0,0,1,.842-.07c.047-.431-.234-.622.75-.669,4.586.085,6.329,4.875,7.907,8.54.732,1.762,1.772,2.037,3.318,2.006,1.037.02,2.1.3,3.156.267-3.851-7.581-5.253-18.47-3.689-27.915h0c.1-.6.208-1.22.325-1.823-3.3.035-7.142.114-10.321-.023a2.148,2.148,0,0,1-1.462.559c0,.419-.048.88-.087,1.3,2.971-.074,6.268-.028,9.277.016-3.009.043-6.322.1-9.282.011,0,.8-.076,1.529-.789,1.917-.272,2.026.08,4.143-.167,6.5-.2,1.6-.035,4.672-1.5,5.182ZM81.808,90.991l.115.2a.566.566,0,0,1,.628.119c1.719.928,4.19.066,6.07.005-.357-1.173-.371-3.042,1.257-3.066-.54-5.139-.176-10.237-.26-15.372-2.965-.564-2.865-.869.015-1.4.018-2.872.04-5.778.038-8.677,0-1.4.013-2.756.141-4.105a7.6,7.6,0,0,1-.347-1.707c-.584-.327-1.6.054-1.96-.51-1.573-.023-3.175-.038-4.764-.122-.144,0-.2-.129-.26-.227-.277-.073-.743.093-.973-.024l-.311-.4A35.517,35.517,0,0,0,78.3,64.6c1.87.02,4.01.015,5.94.005-1.878.139-3.906.222-5.984.252-1.612,8-.457,19.236,3.548,26.129Zm2.587,3.8c3.9,4.9,10.256,6.533,15.48,2.594,13.938-10.587,13.313-46.47-4.993-51.433.5,1.876,2.221,9.663-.9,9.885l.01-.025-.159-.088c-.654.226-1.575-.088-1.789.82l-.372.034a25.308,25.308,0,0,1,.225,3.442,2.107,2.107,0,0,1,.876-.136c1.075-.05,1.048-1.223,1.006-2.038-.04-.4.081-.856.061-1.231a1.386,1.386,0,0,1,.106-.678,8.062,8.062,0,0,1,.447,3.514,1.782,1.782,0,0,1-2.494.991c.04,3.611.052,7.2.072,10.775a2.286,2.286,0,0,1,1.792.053c.794.167,1.736-.069,2.532.122.092-.393.462-.873.853-.556.5,0,.77.464,1.016,1.47.154.8.064,1.861-.694,2.244A.73.73,0,0,1,96.4,74.14c-.12.048-.311.194-.447.147-1.267-.307-2.633-.617-3.973-.907-.07,5.057.155,10.077-.264,15.148,1.912.161,5.555-.35,6.387,1.33a2.12,2.12,0,0,1,1.313,1.85c.025,1.236-1.35,1.652-2.424,1.666-4.347.329-8.653.915-13.033.907ZM76.516,56.231c-2.765.377-5.541.374-8.312.5.9,6.131-.36,2.569-3.171,6.015,3.212,0,7.09-.042,10.11.033a43.754,43.754,0,0,1,1.89-6.623Zm-21.4-31.111a14.667,14.667,0,0,1-4.618,4.2c1.552.114,3.133.219,4.663.433q.257-2.208.517-4.416ZM2.311,89.454c.144-1.448,1.784-1.981,2.984-1.582.673-1.787,2.976-1.57,4.457-2.358,2.974-1.438,6.018-4.251,9.46-3.144A19.735,19.735,0,0,1,20.238,80a.4.4,0,0,1-.464-.064h0a.935.935,0,0,1-.269-.491,4.074,4.074,0,0,1-.749-1.882c.545-1.863,1.208-3.647,1.8-5.49,2.289-7.027,3.9-13.555,5.627-20.276,1.921-5,2.436-18.11,9.393-18.135a4.222,4.222,0,0,1,.146-1.07,2.074,2.074,0,0,1,.308,1.02,18.348,18.348,0,0,1,7.515,1.356,66.854,66.854,0,0,1,11.384.568c-.524-.9-.174-1.92-.124-2.916-6.273.3-12.65-.281-18.893-.627a18.686,18.686,0,0,1-3.049-.285c-1.055-.246-2.057-1.565-.981-2.57.728-.451,1.633-.207,2.431-.247,4.044,0,8.182.079,12.074.222-4.793-2.435-7.211-7.52-10.077-11.857a58.971,58.971,0,0,1-3.422-6.277,1.09,1.09,0,0,1-.1-.838c.034-.175.577-.195.724-.238C29.52,3.686,23.4,6.425,20.125,2.821l1.86.087.143-.594A11.588,11.588,0,0,1,18.639-.259l0-.008a43.348,43.348,0,0,0,5.719,1.4l.222-.567a15.03,15.03,0,0,1-4.256-4.232c2.109.93,4.092,2.252,6.281,3.1l.329-.515c-1.248-1.191-4.044-2.977-3.248-4.644C26.8-4.237,29.633-2.3,32.627-.616c0-1.369-.962-3.523-.376-4.665.618-.762.91-.114,1.222.5l1.618,2.716C36.285.053,37.962,2.15,37.923,4.658c1.038-.5,1.854,1.309,2.528,2.3,1.9,3.216,8.309,8.265,9.725,8.952,5.766-5.217,4.907-14.052,11.036-18.98,1.966-2,3.418-2.235,5.736-2.971.551-.132,1.174-.6,1.667-.151.731-.606,1.443-2.561,1.745-3.4.187-.808.5-2.8.934-3.171s7.534-.684,8.157-.5.374,1.679.374,1.679l.656,2.705.056-.016c.01,0,.1.071.109.079.467,0,.915-.224,1.363-.223a2.2,2.2,0,0,1,1.217.607,8.913,8.913,0,0,0,2.1,1.3C94.45-4.221,95.656.159,98.385,8.574c2.246.064,4.137-.217,6.092-.325.688.087.464,1.422.443,2.184.065,1.876-1.34,1.683-2.733,1.666a21.386,21.386,0,0,1-2.76-.005c.982,4.525,2.957,11.6.8,15.822-1.75,3.308-3.235,3.936-4.651,4.033-.363,3.167,0,6-.067,9.065,20.878,5.618,21.838,38.225,12.506,54.1-7.493,12.973-21.586,12.263-28.571-.649-1.689.92-5.038.856-7.269.655-1.755-.1-2.331-.846-2.958-2.473-.7-1.582-1.367-3.144-2.08-4.725-.681-1.673-2.041-3.6-4.495-3.521.011.986.195,2.1-.473,2.879,2.489.845.993,4.781.27,6.62,3.418,4.656,2.267,12.816-2.515,16.194-7.9,5.293-15.521-4.718-13.214-12.387-.378.179-1.08.426-1.382.036-.123-.091.047-.494.077-.625-5.3-.311-10.493-.933-15.745-1.424.178,4.871-4.66,9.672-9.515,9.564-6.336.293-10.132-8.042-8.215-13.44a69.5,69.5,0,0,1-7.408-.613c-1.381-.138-2.261-.464-2.207-1.751Z" transform="translate(-2.029 13.316)" fill="#fff"/>
            <path id="_-Ink-4" data-name="ðŸ–-Ink" d="M79.046-5.9c.15.049.133-.272-.077-.24-.174.027-.239.261-.27.409l0,.024a5.737,5.737,0,0,0,.728,3.992c.172.279.349.663.689.737C79.95.17,79.729,1.311,79.455,2.44c-.977.342-1.9.849-2.872,1.2a22.148,22.148,0,0,1-5.859.986,10.276,10.276,0,0,1-4.046-.451c-.546-.149-1.008-.636-1.581-.634q.576-1.571,1.281-3.093c1.468,0,2.577-1.422,3.012-2.686A14.016,14.016,0,0,0,69.7-3.786l.037-.193A4.62,4.62,0,0,0,69.81-4.5c0-.065-.092-.632-.069-.713,0,.024.033,0,.047,0a.089.089,0,0,0-.072-.14c-.124,0-.186.266-.214.339-.6,1.22-.822,2.72-1.885,3.636-.531-.334-1.184.1-1.723.238l-.156.049c-2.522.793-3.689.985-5.714,3-3.46,2.695-4.479,6.134-5.841,10.1l-.08.215a22.793,22.793,0,0,1-4.971,8.51A45.292,45.292,0,0,1,40.3,12.85l-.06-.083c-.581-.79-1.9-3.554-2.985-3.292-.1-2.43-1.716-4.442-2.858-6.49L32.773.265h0a4.022,4.022,0,0,0-.527-.837c-.377-.362-1-.029-1.228.338-.62,1.043.16,3.037.275,4.256-2.779-1.607-5.484-3.365-8.356-4.8a.428.428,0,0,0-.62.252c-.485,2,2.161,3.681,3.439,4.88C23.665,3.51,21.7,2.316,19.681,1.316l-.135-.066c-.275-.142-.646.16-.452.451a15.255,15.255,0,0,0,4.352,4.329,43.351,43.351,0,0,1-5.693-1.39.316.316,0,0,0-.306.525l.1.1a11.86,11.86,0,0,0,3.483,2.538q-.933-.045-1.867-.087a.338.338,0,0,0-.236.569,5.928,5.928,0,0,0,2.616,1.668C25.7,11.073,29.195,10.977,32,14.9c-.7.126-.6.908-.378,1.4l.014.03a59.885,59.885,0,0,0,3.442,6.312c2.688,3.987,4.9,8.78,9.151,11.337q-4.121-.14-8.245-.17-1.142-.01-2.285-.011h-.571a4.183,4.183,0,0,0-2.4.31c-1.251,1.005-.275,2.858,1.111,3.123a14.834,14.834,0,0,0,2.712.267,2.773,2.773,0,0,0-.235,1.088c-3.147.2-4.984,2.662-5.843,5.481C26.748,49.46,25.43,54.979,24,60.46l-.162.636c-1.377,5.4-2.824,10.79-4.552,16.093-.588,1.836-1.259,3.648-1.8,5.5a.5.5,0,0,0,.07.435c.1.723.564,1.936,1.342,2.127a19.157,19.157,0,0,0-.85,1.957c-3.509-.932-6.457,1.821-9.407,3.239-1.486.777-3.651.559-4.487,2.273a2.446,2.446,0,0,0-3.125,1.917c-.119,1.549,1.2,2,2.5,2.089a69,69,0,0,0,7.018.6c-1.326,4.465.872,10.966,5.4,12.8,5.962,2.512,12.889-2.63,13.041-8.883,5.008.474,10.016,1.064,15.034,1.37-.208.714.74,1.01,1.284.8-1.326,6.017,2.59,13.656,9.111,13.631,8.4-.057,11.8-11.731,7.4-17.978l.042-.108c.7-1.807,2.017-5.525-.208-6.6a4.15,4.15,0,0,0,.336-2.428c2.061.093,3.126,1.573,3.892,3.32.706,1.564,1.378,3.143,2.074,4.712.655,1.7,1.3,2.559,3.23,2.672l.2.015c2.152.156,5.012.284,6.954-.579,4.608,8.419,14.277,13.413,22.646,7.378,17.18-11.842,16.547-56.222-6.137-61.478q-.014-1.269-.036-2.538a9.059,9.059,0,0,0-.011-1.623l-.01-.224a24.656,24.656,0,0,1,.094-4.144c2.753-.223,4.42-3.741,4.7-4.273,2.122-4.068.159-11.6-.724-15.528.857.068,1.64-.036,2.477-.026l.29,0c1.556.024,2.6-.041,2.641-1.98,0-.787.349-2.247-.688-2.491a5.367,5.367,0,0,0-1.49.118c-1.48.12-2.962.211-4.447.2-1.288-3.687-2.3-7.633-4.75-10.754C90.806.078,87.473-.962,84.476-2.21a9.458,9.458,0,0,1-2.2-1.386l-.048-.038a2.041,2.041,0,0,0-1.178-.5c-.439-.012-.848.187-1.278.216a.315.315,0,0,0-.26-.068,9.089,9.089,0,0,1-.482-1.956l.007-.031c.013-.051.018-.038.014.039A.017.017,0,0,0,79.046-5.9ZM54.421,95.972a6.751,6.751,0,0,1,2.7.568c.2,1.089-.7,2.615-1,3.712a6.774,6.774,0,0,1-.2,1.363,25.6,25.6,0,0,1-.886,3.743c-.048.235-.408.136-.36-.1.225-1.109.526-2.2.785-3.3a.192.192,0,0,1-.283-.207,4.193,4.193,0,0,0,.081-1.179c-6.409.809-6.034,11.45.5,11.6,4.243.106,6.607-5.7,4.209-9.183.394-.845.82-1.676,1.224-2.523,3.435,5.74-.162,15.523-6.771,15.343C43.764,115.5,43.76,96.275,54.421,95.972ZM15.945,97.223a7.425,7.425,0,0,0,.474,7.692c1.815,2.468,5.775,2.179,7.553-.189a5.015,5.015,0,0,0,1.276-3c0-.246-.157-.682.058-.875l1.374.147q1.031.11,2.061.216c-1.991,5.315-6.884,10.128-12.858,7.466-3.7-2.04-5.074-6.913-4.534-10.889a.494.494,0,0,0-.151-.451A37.226,37.226,0,0,0,15.945,97.223Zm64.9-40.336c10.56-16.683,24.47-5.882,28.031,9.43,2.674,10.543,1.725,23.414-3.858,32.746-6.557,11.114-17.622,11.1-24.172,0-4.957-8.285-6.261-19.362-4.62-29.12a.361.361,0,0,0,.093.245c-1.929,11.714.242,26.209,9.541,33.326,6.865,5.061,14.892.923,18.746-6.01,7.459-12.57,6.884-35.62-5.351-45.068A11.01,11.01,0,0,0,87.88,51.254c-.039-.235-.184.024-.241.117-6.509,3.452-9.726,10.866-11.213,18.245a.38.38,0,0,0-.178.211c.2-1.193.451-2.365.742-3.51A34.841,34.841,0,0,1,80.848,56.886Zm-23.924,49.1c.563-.359.3.718.1.918a.187.187,0,0,1-.323-.188C56.821,106.542,56.607,106.008,56.924,105.987ZM94.35,51.6c15.8,4.433,16.831,33.567,9.189,45.263-3.518,6.3-10.665,10.266-16.958,5.634a15.866,15.866,0,0,1-2.917-2.7c4.046-.033,8.084-.575,12.122-.879l.092-.008a5.242,5.242,0,0,0,1.8-.346c1.708-.836,1.242-2.981-.309-3.729-.85-1.673-4.6-1.3-6.282-1.389.377-4.81.181-9.649.235-14.47q1.8.392,3.592.824a.6.6,0,0,0,.407-.046.988.988,0,0,0,1.322.279,2.314,2.314,0,0,0,.858-2.586l-.018-.078c-.153-.636-.458-1.583-1.2-1.632a.808.808,0,0,0-1.153.512c-.787-.131-1.5.076-2.268-.078a2.915,2.915,0,0,0-1.545-.183c-.018-3.3-.03-6.6-.065-9.907a2.052,2.052,0,0,0,2.477-1.338,5.065,5.065,0,0,0-.068-2.066l-.017-.123a6.548,6.548,0,0,0-.272-1.244c2.222-.306,1.767-4.957,1.6-6.6C94.761,53.63,94.632,52.694,94.35,51.6ZM57.664,70.351a1.252,1.252,0,0,1,1.122,1.907c-1.146,1.293-2.8.127-4.579,3.612-2.947,6.974-4.307,14.518-6.141,21.837a17.238,17.238,0,0,0-2.16,3.314c-.25.428-.326,1.032-.78,1.3a.375.375,0,0,1-.227.037c.942-.522.745-3.1.55-4.033h.008c.086.006.4.074.255-.074l-.153-.049h0l-.153-.049-.011-.038c2.65-6.145,3.226-13.006,5.125-19.406l.169-.568c.656-2.187,1.414-4.475,3.074-6.1a.316.316,0,0,0,.187-.077l.06-.052a4.833,4.833,0,0,1,3.525-1.407c.054,0,.062-.078.012-.091-.031-.008-.063-.015-.094-.022C57.525,70.383,57.594,70.368,57.664,70.351Zm4.713,17.367a2.5,2.5,0,0,0,.89.041,3.906,3.906,0,0,1,.981.155c5.278,1.525,4.5,9.448,8.343,10.367a8.9,8.9,0,0,0,2.891-.086,7,7,0,0,0,1.768-.124q.415.832.867,1.624A15.472,15.472,0,0,0,76,99.6a35.52,35.52,0,0,1-4.981-.249,1.9,1.9,0,0,1-1.48-.74c-.786-1.327-1.324-2.8-2.03-4.173l-.093-.209c-1.012-2.273-2.35-5-5.2-5.006a.4.4,0,0,0-.29-.336q-.024-.354-.05-.709A2.006,2.006,0,0,1,62.377,87.719Zm35.131,7.734a1.406,1.406,0,0,1-.276,1.784,3.24,3.24,0,0,1-1.323.219l-.714.052-.714.054-.357.029q-5.107.407-10.206.876L83.9,98.46c-.047-.017-.122-.041-.122-.041l-.053-.024c-.076-.036.016,0,.025,0h0a.586.586,0,0,0-.877.405q-.51-.683-.988-1.439a4.046,4.046,0,0,0,1.387.121c.319.362.891.229,1.316.221,3.008-.24,6.008-.587,9.006-.923l2.285-.268.172-.016C96.728,96.435,97.538,96.306,97.507,95.453ZM32.028,89.564c.316.343.92.436,1.323.637a6.674,6.674,0,0,1,1.308.847c1.8,1.67,3.642,4.326,6.468,3.153a3.282,3.282,0,0,0,1.518-1.119c.165.081.357-.074.524-.1-.145.779-.206,1.519-.426,2.28a9.1,9.1,0,0,1-.336.983,2.672,2.672,0,0,0-.374,1.026c-2.141-.457-4.305-.75-6.475-1.016-.815-.03-2.191-.467-2.866-.051-.8.5-.441,1.416-.867,1.757a4.822,4.822,0,0,1-2.195.059c-3.067-.26-6.163-.433-9.225-.689-1.839-.337-.636-.9-1.428-1.352,0-2.824,3.4-2.526,5.4-2.776q.9.359,1.824.663a.313.313,0,0,0,.3-.519l-.427-.434h0c.292-.066.581-.14.868-.225.4.183.828.319,1.223.521l.074.039a.314.314,0,0,0,.426-.425,3.53,3.53,0,0,1-.3-.658,8.707,8.707,0,0,0,1.092-.587l.069-.045,1.132.631c.222.124.555-.085.457-.351-.116-.367-.459-.523-.72-.769a.359.359,0,0,0,.032-.21A6.122,6.122,0,0,1,32.028,89.564ZM16.941,98.075l.036.006-.007.012-.016,0,.015,0a.07.07,0,0,1-.041.03c0-.011.007-.021.009-.032Zm41.318-36-.091.85c-.242,2.265-.472,4.519-.652,6.787a.331.331,0,0,0-.06.076l-.536.1a5.411,5.411,0,0,0-2.558.989c-2.825,1.509-3.772,4.833-4.638,7.684-1.9,6.252-2.553,12.854-5.12,18.9a.575.575,0,0,0-.019.457q-.667-.192-1.341-.357a7.849,7.849,0,0,0,.7-4.2l.066,0a1.088,1.088,0,0,0,.631-.135.555.555,0,0,0,.642-.521V92.68c.915-10.242,1.579-20.589,4.057-30.6.322.327.9.252,1.337.271H50.7q.586.028,1.172.046l.17,0A24.132,24.132,0,0,0,58.258,62.071Zm15.2,8.216C72.027,79.25,73.289,90.009,77,97.566c-.9-.018-1.772-.259-2.668-.256-1.595.026-2.373-.3-3.014-1.816-1.541-3.508-3.079-8.013-7.424-8.679l-.2-.019c-.607-.057-1.627-.119-1.627.6a.687.687,0,0,0-.249.021q-.02-.252-.04-.5l-.011-.331c-.038-1.045-.15-2.49-1.453-2.479a1.525,1.525,0,0,0-.1-.343c1.312-.647,1.266-3.968,1.413-5.306.12-1.9.111-3.814.067-5.72a1.488,1.488,0,0,1,.032-.595,1.938,1.938,0,0,0,.847-1.81C66.194,70.421,69.828,70.324,73.453,70.287ZM57.7,73.688a7.971,7.971,0,0,0-.43,2.305c-.076.914-.13,1.829-.183,2.745l-.012.21a3.053,3.053,0,0,1-.161.936l-.027.071a2.416,2.416,0,0,0-.2,1.114c.088.947.238,1.906.411,2.841.242.793,1.144.287,1.656.1l-.006.053a1.354,1.354,0,0,0,.158.949c-1.416-.046-1.517.971-1.356,2.107l.009.15a14.6,14.6,0,0,1-.3,4.822,5.2,5.2,0,0,0-1.782,1.5,7.92,7.92,0,0,0-.915,1.135,8.253,8.253,0,0,0-5.5,2.012l.188-.8c1.232-5.231,2.439-10.476,4.089-15.6C54.174,77.927,54.826,74.392,57.7,73.688Zm30.687-4.1c0,2.277-.021,4.554-.035,6.831A7.359,7.359,0,0,0,86.373,77c-.4.18-.219.727.111.852a12.327,12.327,0,0,0,1.859.49c.065,4.949-.264,9.923.227,14.855-1.476.221-1.584,1.884-1.3,3.051a18.823,18.823,0,0,1-4.922.268c-.483-.026-.791-.57-1.233-.469-3.862-6.767-5.122-17.31-3.559-25.669A87.55,87.55,0,0,0,88.39,69.589Zm.99,8.97,1.027.218c.051,4.891-.156,9.8.231,14.684-.145-.008-.115.088.009.1.007.083.016.167.024.25a.193.193,0,0,0,.385,0c0-.05.009-.1.014-.15.653.143,1.315.244,1.973.354.969.239,3.3.083,3.471,1.343l-.753.065c-2.542.222-4.775.431-7.3.7-.126-.773-.725-1.916.22-2.407a.251.251,0,0,0,.422-.174C89.626,88.563,89.308,83.549,89.38,78.559ZM14.475,88.634c3.011-1.2,4.577.2,6.989,1.739a4.16,4.16,0,0,0,4.2.192c.576.034.845-.6.8-1.1,0-.035,0-.069,0-.1.7.422.267,1.593.417,2.284a19.212,19.212,0,0,1-4.408.666c-1.926.043-4.25.989-4.476,3.138l-.006.065-.148,0a.444.444,0,0,0-.41-.463h-.018c-3.98-.251-8-.237-11.962-.641a.663.663,0,0,1-.518-.913c.307-1.12,1.879-1.174,2.8-1.435a12.792,12.792,0,0,0,3.1-1.453c.419.117.842.216,1.269.3.207.04.478-.142.383-.382l-.069-.175a3.23,3.23,0,0,0-.264-.541c.32-.191.642-.376.97-.55a7.742,7.742,0,0,1,1.583.772c.3.192.611-.231.385-.48l-.008-.008A3.072,3.072,0,0,1,14.475,88.634Zm20,.368c2.684,1.31,5.531,2.287,8.276,3.471l-.055.021c-.1.036-.206.085-.241.172a3.6,3.6,0,0,1-3.71.569c-1.768-.947-2.645-2.987-4.453-3.908A1.648,1.648,0,0,0,34.47,89Zm25.514-3.615c.088-.015.349-.129.419-.1a5.409,5.409,0,0,1,.232,1.442c.166,1.848.506,3.674.694,5.516a11.758,11.758,0,0,0-2.851-.429c.078-.571.141-1.139.174-1.713a16.394,16.394,0,0,0-.151-3.353l-.012-.06c-.182-.963-.037-1.007.872-1.346A1.272,1.272,0,0,0,59.984,85.387ZM39.5,41.806c1.554-1.482,3.871-1.3,5.865-1.31a78.611,78.611,0,0,1,12.687,1.071.421.421,0,0,0,.613.1q1.732.289,3.453.63c-.318,2.005-.571,4.022-.854,6.033l-.018.124a3.21,3.21,0,0,0,.408,2.569c.017,2.228.1,4.463.11,6.694-.327-.311-.855-.275-1.276-.352a14.948,14.948,0,0,0-2.557-.389l-2.64-.4a.322.322,0,0,0-.313.125c-1.126-.133-2.248-.359-3.379-.432l.067-.2a4.117,4.117,0,0,0,.159-3.106.353.353,0,0,0-.6,0,8.409,8.409,0,0,0-.591,2.509c-.091.487-.28,1-.368,1.517a13.772,13.772,0,0,0-1,2.522c-3.323,10.472-3.723,21.56-4.974,32.4-1.941-.8-3.906-1.558-5.854-2.344-1.4-.683-4.575-1.219-4.418-3.192a3.006,3.006,0,0,1,.021-.482.487.487,0,0,0-.154-.156,42.05,42.05,0,0,0,1.079-7.726c.427-7.131.638-14.275.856-21.415l.01-.3C35.985,51.337,36.038,45.706,39.5,41.806Zm-5.22,28.611C34.022,75.175,34.135,80,33,84.658l-.035.141c-.11.447-.4,1.076-.217,1.544.007.571-.195,1.462.3,1.865a3.161,3.161,0,0,0,.734.345,1.074,1.074,0,0,1-.465.3l-.028-.014c-.471-.221-1.3-.371-1.418.287-.892.07-1.754.923-2.473,1.378a9.647,9.647,0,0,1-1.141.618c-.124-.945-.678-2.143-1.787-2.112a11.334,11.334,0,0,1,.183-1.7,7.714,7.714,0,0,0,1.552.094c.346.249.689-.025.734-.4C30.53,81.455,32.316,75.88,34.277,70.417Zm-14.5,14.456c2.129.667,4.465.681,6.509,1.6a6.8,6.8,0,0,0-1,2.983.634.634,0,0,0-.242.469.543.543,0,0,0,.022.194C22.8,90.6,21.129,88.671,19.3,87.7A19.518,19.518,0,0,0,19.781,84.873Zm5.5,4.669v.013h0C25.287,89.661,25.2,89.627,25.284,89.542Zm1.473-2.871.1.048-.108-.016C26.754,86.692,26.756,86.681,26.757,86.671Zm5.288-46.092c2.482-1.676,7.432-.893,10.373-.7-5.81.44-6.772,8.408-7.233,12.995-.371,4.927-.509,9.871-.78,14.8-2.314,6.171-4.191,12.5-6.17,18.785A15.76,15.76,0,0,0,23.05,84.7l-.262-.038A9.114,9.114,0,0,1,18.46,83.21c4.495-10.96,6.376-22.792,9.793-34.1C29.256,46.278,29.588,42.565,32.045,40.579ZM18.767,84.422c.085.051.173.1.263.143a.412.412,0,0,0-.148-.005C18.842,84.515,18.8,84.464,18.767,84.422ZM59.576,60.751a1.937,1.937,0,0,1,2.121-1.01c-1.212.739-.948,2.874-1.037,4.123l0,.07c.03,1.178-.071,3.666.578,4.506-.045.542-.046,1.1-.1,1.649a1.865,1.865,0,0,1-.1.749c-1.3.727-.669,2.47-.747,3.68.059,2.317-.1,4.629-.171,6.943a5.388,5.388,0,0,1-.137,1.809.6.6,0,0,0-1.141.044.642.642,0,0,0-.6-.15c-.077-.734-.2-1.468-.222-2.2a4.019,4.019,0,0,1,.282-1.016,30.7,30.7,0,0,0-.038-4.014l0-.04a5.948,5.948,0,0,0-.4-2.25c2.018-.362,2.656-2.9.687-3.836a.39.39,0,0,0-.084-.348c.168-2.007.385-4.011.575-6.017A6.545,6.545,0,0,1,59.576,60.751Zm36.589,17.1a.187.187,0,1,1,.31-.21,1.129,1.129,0,0,1,.162.788.189.189,0,0,1-.341.045,1.725,1.725,0,0,1-.1-.377A.185.185,0,0,1,96.165,77.851Zm-1.149-1.212c-.006.035-.012.072-.017.108a1.688,1.688,0,0,0-.174-.052Q94.921,76.668,95.017,76.639ZM90.124,61.867a1.367,1.367,0,0,0,.524.184c-.347,4.741-.15,9.515-.234,14.268a7.059,7.059,0,0,1-1.044.04c-.085-4.148.074-8.293-.192-12.438a3.214,3.214,0,0,0,.209-1.945A7.246,7.246,0,0,0,90.124,61.867Zm-26.2,6.575c3.072.12,6.165.067,9.241.029.194-.006.394-.007.6-.008q-.119.622-.222,1.252c-3.641-.042-7.291-.128-10.93-.049l.015-.17c.015-.171.029-.347.034-.521A2.285,2.285,0,0,0,63.928,68.442Zm16.364-6.933c.224.288.713.1,1.038.131a.514.514,0,0,0,.425.241c1.544.082,3.09.1,4.636.121.451.522,1.253.221,1.833.433.071.361.075.736.157,1.1a2.667,2.667,0,0,0,.144.425c-.126,1.372-.135,2.763-.135,4.138a11.014,11.014,0,0,0-2.38-.236c-1.712-.044-3.424-.026-5.136-.03-.756-.014-1.612.032-2.349.022a.382.382,0,0,0-.5.258c-.142.555.488.6.864.569l1.361-.029c1.857-.046,3.714-.08,5.569-.163a11.916,11.916,0,0,0,2.565-.3v1.036c0,.1,0,.2,0,.278-3.558-.014-7.117.04-10.676.008A34.93,34.93,0,0,1,80.292,61.509ZM34.345,68.93a.862.862,0,0,1-.136.492C34.255,69.258,34.3,69.095,34.345,68.93ZM75.6,61.748a43.293,43.293,0,0,0-1.671,5.921c-3.063-.067-6.12-.034-9.183-.029,1.128-1.324,2.326-.96,2.888-1.8.407-.653.067-2.79-.039-3.6,2.385-.1,4.78-.113,7.154-.383C75.013,61.816,75.305,61.791,75.6,61.748Zm16.862-.716a1.164,1.164,0,0,0,.184.126c-.164.43,0,.862-.141,1.3-.006.517.02,1.037-.006,1.528a.734.734,0,0,1-.709.791,2.131,2.131,0,0,0-.56.035,23.14,23.14,0,0,0-.156-2.751,1.776,1.776,0,0,0,.281-.048c.014-.431.435-.846.868-.626C92.306,61.273,92.384,61.152,92.457,61.032Zm-27.885-.325a1.441,1.441,0,0,1,.379.094c-.028,1.169-1.718.348-1.949,1.782a6.941,6.941,0,0,0,.015,1.016c.005.173.142.445-.047.546-.1.141-.364.113-.34-.089,0-.037.007-.075.01-.114a1.407,1.407,0,0,1-.161-.461c-.1-.052-.07-.185-.026-.278.026-.2-.059-.561.164-.669.023-1.349.524-1.563,1.778-1.672a.148.148,0,0,1,.163.092A.407.407,0,0,0,64.572,60.707ZM65.684,42.96a24.727,24.727,0,0,0,2.831.523c6.018.841,11.8,3.32,17.937,3.254a2.721,2.721,0,0,0,.591-.091,1.426,1.426,0,0,1-.034.289.666.666,0,0,0-.209.41c-4.606,2.332-8.083,7.071-10.264,12.06-2.7-.367-5.4-.784-8.11-1.121l-.491-.064h0l-.983-.126a4.633,4.633,0,0,0-1.488-.111c-.217-2.169-.218-4.285-.381-6.467.478-.382.366-1.2.385-1.762C65.576,47.49,65.585,45.223,65.684,42.96Zm-3.105,8.677a1.236,1.236,0,0,0,.489.035,3.033,3.033,0,0,0,1.509.051c-.054.5-.1,1.008-.121,1.514a46.333,46.333,0,0,0,.13,5.959c-.638.045-1.276.123-1.913.175C62.667,56.8,62.546,54.214,62.578,51.638Zm24.309,1.6c-.507,2.112-2.807,5.344-5.119,5.537a18.009,18.009,0,0,1,4.813-5.328C86.683,53.378,86.785,53.309,86.888,53.241ZM66.24,37.294c.073,0,.147,0,.22,0a1.851,1.851,0,0,0,.171,2.208c-1.867,1.155-1.808,3.739-1.871,5.678-.074,1.876-.174,3.748-.253,5.622,0-.034-.112.014-.152.021a4.449,4.449,0,0,1-.763.033c-.385-.153-.893-.156-1.159-.528a2.212,2.212,0,0,1-.189-1.54c.131-1.181.309-2.358.458-3.537C63.116,42.734,63.064,37.835,66.24,37.294Zm.7,2.48c1.5.94,3.471.574,5.164.678q1.856.027,3.713.019c4.169-.024,8.336-.19,12.5-.361l-.009.173a17.342,17.342,0,0,1-.622,4.1c-.229.91-.571,1.247-1.53,1.167-5.123-.076-9.983-1.9-14.977-2.818-1.785-.3-3.6-.55-5.391-.761l.02-.112A2.69,2.69,0,0,1,66.936,39.774ZM65.846-.377a.521.521,0,0,0-.08.377c-6,12.833-4.416,27.431-7.584,40.965a.367.367,0,0,0-.13.155q-1.536-.308-3.092-.537a.725.725,0,0,0-.273-.78.586.586,0,0,0-.047-.126c.39-4.8.959-9.6,1.448-14.4A74.585,74.585,0,0,0,56.8,15.208c-.006-.039-.057-.027-.068,0-.808,2.9-1.275,7.309-2.082,13.169-5.828,6.829-9.262,8.024-14.867.109l-.288-.423a89.338,89.338,0,0,1-7.164-12c2.487-.08,3.83-2.691,4.892-4.606a.946.946,0,0,0,.4-.441c.842,1.049,1.509,2.343,2.361,3.408,2.117,2.779,6.979,6.225,7.085,6.336l.02.018c.32.292,1.282,1.4,1.58,1.366,1.3,1.2,4.18-4.393,4.527-5.446.846-2.053,1.527-2.684,2.261-4.777l.126-.377c1.01-3.025,2.026-6.212,4.555-8.327l.1-.105C61.855,1.4,63.429.061,65.846-.377ZM34.922,37.516l2.156.13.665.039a152.787,152.787,0,0,0,15.758.473,4.988,4.988,0,0,0-.023,2.221,66.576,66.576,0,0,0-10.918-.509,17.5,17.5,0,0,0-7.224-1.355A1.982,1.982,0,0,0,34.922,37.516Zm36.887-5.8c3.53-1.575,6.982.028,8.224,3.837a.507.507,0,0,0-.162.325c-.327.436-.926.422-1.417.484a8.015,8.015,0,0,0-2.818.931c-.482.263-.9.643-1.394.873l-.268.251a4.572,4.572,0,0,1-1.5,1.041c-.613.032.179-1.162.308-1.394l.048-.077c.258-.41.59-.876.237-1.342a6.513,6.513,0,0,0-1.681,1.251l-.094.091a3.447,3.447,0,0,1-1.808,1.192.188.188,0,0,1-.18-.236,5.24,5.24,0,0,1,2.16-2.476.639.639,0,0,0-.5-.609c-1.241.715-2.108,1.846-3.322,2.579a.189.189,0,0,1-.281-.161c.008-.953.98-1.683,1.65-2.248q.209-.161.427-.312a.5.5,0,0,0-.426-.389c-.4.113-2.785,1.965-2.792,1.109l0-.023c.064-.3.41-.954.744-.874A12.761,12.761,0,0,1,71.81,31.716Zm9.28-35c1.247.716,2.444,1.49,3.692,2.2,1.592.911,3.3,1.619,4.831,2.639,4.657,3.43,6.007,10.66,7.7,15.932l.24,1.024c.971,4.152,2.428,10.766.67,14.15l-.012.027a10.425,10.425,0,0,1-1.8,2.689c-1.577.983-4.874,1.317-7.739,1.125a52.148,52.148,0,0,1-8.077-1.2,5.224,5.224,0,0,0-.982-2.429l-.049-.077-.055-.081A5.5,5.5,0,0,0,76.984,30.5c3.686-1.1,9.754.316,13.863-2.57a.311.311,0,0,0-.314-.537c-.214.109-.432.21-.652.3.194-.7-.312-1.115-.614-1.722l-.012-.024A135.775,135.775,0,0,1,82.809,9.511,61.04,61.04,0,0,0,85.391,20.5a35.716,35.716,0,0,0-3.022,2.884,22.186,22.186,0,0,0-3.174,3.435.35.35,0,0,0,.475.474,7.194,7.194,0,0,0,1.857-1.511l.223-.243a30.1,30.1,0,0,0,3.743-4.746,49.59,49.59,0,0,0,2.463,5.561l.117.243a3.889,3.889,0,0,0,.724,1.194c-.22.441-.784.544-1.219.673-3.533.991-7.285.163-10.833,1.065l-.234.06a.948.948,0,0,0-.609.348,14.589,14.589,0,0,0-8.52,3.332l-.062.049a5.4,5.4,0,0,0-2.24,3.231c-.034.254.06.612.363.67a2.761,2.761,0,0,0-1.552.793C68.04,23.623,80.2,12.166,81.09-3.287ZM67.949,37.618a1.552,1.552,0,0,0-.148.273l.055-.04a.2.2,0,0,1,.063-.137h0c.016-.019.031-.039.047-.059A.2.2,0,0,1,67.949,37.618ZM54.4,30.51q-.242,2.052-.481,4.1c-1.135-.15-2.278-.24-3.421-.324l.063-.039h0a10.858,10.858,0,0,0,1.61-1.244,18.212,18.212,0,0,0,1.555-1.627Q54.079,30.958,54.4,30.51ZM81.443,15.857a8.98,8.98,0,0,1-2.061,4.129c-.238.323.3.633.538.314l.095-.129a9.2,9.2,0,0,0,2.052-4.314C82.11,15.46,81.487,15.464,81.443,15.857ZM23.021.285c2.815,1.766,5.76,3.314,8.64,4.971a.444.444,0,0,0,.643-.494q-.22-1.214-.436-2.429l-.111-.628A2.95,2.95,0,0,1,31.707.354c.714,1.207,1.452,2.4,2.193,3.592l.809,1.3a14.345,14.345,0,0,1,2.18,4.423,1.215,1.215,0,0,0-.344.773.567.567,0,0,0-.341.651c-1.037,1.239-1.745,3.019-3.4,3.54a11.613,11.613,0,0,0-8.206-4.683l-.574-.1a8.838,8.838,0,0,1-3.979-1.421q1.663.08,3.326.152a.33.33,0,0,0,.088-.646A10.562,10.562,0,0,1,18.92,5.762,26.214,26.214,0,0,0,25.6,7.145a.41.41,0,0,0,.108-.8,13.316,13.316,0,0,1-5.176-3.8l-.044-.053,2.886,1.52a8.72,8.72,0,0,0,3.9,1.416.391.391,0,0,0,.2-.723l-.4-.294C25.735,3.417,23.211,1.483,23.021.285Z" transform="translate(-1.026 7.886)"/>
          </g>
          <g id="Head-2" data-name="Head" transform="translate(60.472 0)">
            <g id="head_Bun" data-name="head/Bun" transform="translate(0 0)">
              <path id="_-Background-4" data-name="ðŸŽ¨-Background" d="M28.025,15.929c-9.227-.453-15.488,6.813-15.757,9.711-.187,2.011-.06,4.694-.06,6.491,0,.917-.464,3.706.06,5.043,1.166,2.976,2.483,5.308,6.131,5.308s9.211-1.888,11.122-4.324c.349-.445,4.682-3.7,4.682-6.259C34.2,26.44,34.609,16.252,28.025,15.929Z" transform="translate(-11.337 -9.98)" fill="#fff"/>
              <path id="_-Ink-5" data-name="ðŸ–-Ink" d="M6.433-8.461a.893.893,0,0,0-1.1.438.366.366,0,0,0-.161,0c-.014,0-.048.016-.074.026a.392.392,0,0,0-.055.029l-.01-.005h0a.8.8,0,0,0-.126-.114.409.409,0,0,0-.3-.077l-.046-.017h0a.93.93,0,0,0-1.075.262,1.061,1.061,0,0,0-.128.213.8.8,0,0,0-.217.109.811.811,0,0,0-.143-.052.972.972,0,0,0-.823.172.908.908,0,0,0-.261.315.725.725,0,0,0-.211.088,1.178,1.178,0,0,0-.176-.074,1.872,1.872,0,0,0-.683-.075c-.492.036-.967.6-.639,1.079l.01.015a1.765,1.765,0,0,1,.112.179,1.429,1.429,0,0,0-.336.205A1.7,1.7,0,0,0-.474-4.065l0,.025h0a.4.4,0,0,0-.346.577l.008.013c.218.336.4.707.612,1.06a9.68,9.68,0,0,1,1.653.771,7.66,7.66,0,0,1,.908.92,5.243,5.243,0,0,1,.376.528.261.261,0,0,1-.3-.047A8.235,8.235,0,0,0-.545-1.934a.267.267,0,0,1-.16-.137A12.028,12.028,0,0,0-2.19-2.393c-.138-.131-.283-.257-.42-.388a.442.442,0,0,0-.56-.06c-.082-.037-.165-.07-.25-.1l-.053-.018-.064-.022a3.021,3.021,0,0,0-1.7.035l-.074.019a1.217,1.217,0,0,1-.7-.006l-.029-.008a1.685,1.685,0,0,0-.857-.05,1.462,1.462,0,0,0-.7.47l-.02.022a.289.289,0,0,1-.272.109l-.132,0A1.678,1.678,0,0,0-9.381-2a2.194,2.194,0,0,0-.375.528l-.013.027-.011.023c-.054-.009-.137-.042-.177-.05A1.309,1.309,0,0,0-11.3-.985c-.076.094-.192.277-.272.378a.954.954,0,0,0-.079.076,1.348,1.348,0,0,1-.464.108,1.4,1.4,0,0,0-1.032.612A1.824,1.824,0,0,0-13.3.7a1.068,1.068,0,0,0-.322.353c-.1.167-.142.372-.257.53a.985.985,0,0,1-.332.246l-.046.027a1.461,1.461,0,0,0-.758.868l-.01.037c-.019.064-.086.247-.028.219a1.106,1.106,0,0,1-.182.053,1.012,1.012,0,0,0-.6.449,1.513,1.513,0,0,0-.148.559L-16,4.116c0,.019-.007.041-.011.063l0,.021h0q-.068.029-.133.063a.673.673,0,0,0-.347.576.515.515,0,0,0,.091.293.874.874,0,0,0-.1.214,1.155,1.155,0,0,0-.037.478,2.727,2.727,0,0,0,.126.544,1.693,1.693,0,0,0,.064.234.371.371,0,0,0-.087.268.5.5,0,0,0,.2.368,3.282,3.282,0,0,0,.315.837.331.331,0,0,0,.052.074c-.018.962.053,1.931.058,2.892.005,1.046-.016,2.093-.053,3.138a15.889,15.889,0,0,0,.231,5.212,7.062,7.062,0,0,0,2.383,3.469A7.034,7.034,0,0,0-9.236,24.4,7.169,7.169,0,0,0-7,24.159l.078-.021a4.676,4.676,0,0,0,2.032-1c.273-.272,0-.849-.4-.691s-.752.39-1.145.554a6.5,6.5,0,0,1-1.089.342,6.507,6.507,0,0,1-2.291.1A6.346,6.346,0,0,1-15.1,18.116a13.65,13.65,0,0,1-.106-2.252l.009-.824c.007-.689.009-1.379-.016-2.067-.032-.886-.095-1.772-.179-2.655l-.044-.459c-.052-.537-.11-1.079-.211-1.609a13.246,13.246,0,0,0,1.1-1.731.765.765,0,0,0,.287-.4.625.625,0,0,0,.016-.106q.118-.185.249-.36l.019-.009.033-.016a1.244,1.244,0,0,0,.459-.461,1.234,1.234,0,0,0,.091-.2,6.421,6.421,0,0,1,.489-.434l.051-.039a1.23,1.23,0,0,0,.548-.379q.087-.054.176-.106a1.438,1.438,0,0,0,.531-.114c.319-.131.574-.389.894-.509.339-.127.7.161,1.056.109a.934.934,0,0,0,.268-.082A5.126,5.126,0,0,0-8.726,4a3.21,3.21,0,0,0,1.1.49,1.236,1.236,0,0,0,.686.4,14.117,14.117,0,0,0,1.975,1.3.683.683,0,0,0,.329.091,2.792,2.792,0,0,0,.708.315.6.6,0,0,0,.24.018l.218.178h0a.774.774,0,0,0,.469.186c.094.072.192.14.293.206a.644.644,0,0,0,.388.091.653.653,0,0,0,.726.135c.032.019.065.036.1.054a1.142,1.142,0,0,0,.156.06,1.153,1.153,0,0,0,.955.363,1.519,1.519,0,0,0,.879.228c.046.232.084.464.117.7l0,.171c0,.028,0,.049,0,.064V9.05C.584,9.8.568,10.549.538,11.3l0,.059c-.033.655-.195,1.849.769,1.823a1.9,1.9,0,0,0,1-.491l.039-.031.066-.051c.209-.027.415-.078.626-.086a3.07,3.07,0,0,1,.788.077,2.048,2.048,0,0,1,1.174.677c.026.032.049.066.072.1a.531.531,0,0,0,.1.19,2.431,2.431,0,0,1-.189,2.009,2.843,2.843,0,0,1-1.665,1.379l-.036.012a1.671,1.671,0,0,0-.953.869,8.753,8.753,0,0,1-.852,1.1A8.2,8.2,0,0,0-.32,21c-.071.17.131.331.288.287a3.6,3.6,0,0,0,1.488-1.041c.308-.3.605-.612.883-.94a.637.637,0,0,0,.19.053,1.308,1.308,0,0,0,.858-.138.443.443,0,0,0,.335-.115,1.483,1.483,0,0,0,.219-.251,1.1,1.1,0,0,0,.273,0,.351.351,0,0,0,.121-.033.532.532,0,0,0,.2-.135.612.612,0,0,0,.148-.5.624.624,0,0,0,.072-.019.651.651,0,0,0,.371-.315,1.38,1.38,0,0,0,.372-.307,1.333,1.333,0,0,0,.263-.477,1.138,1.138,0,0,0,.159-.089,1.017,1.017,0,0,0,.431-1.139l0-.013c-.007-.019-.02-.052-.037-.089,0-.03,0-.06.006-.091l.005-.091h0l.073-.031h0a.874.874,0,0,0,.656-.751.361.361,0,0,0-.076-.244v-.023h0c.024-.012.046-.025.066-.038a.663.663,0,0,0,.308-.59.938.938,0,0,0-.265-.544l-.038-.044-.011-.012.088-.028a.85.85,0,0,0,.148-.058.867.867,0,0,0,.347-.333c.011-.017.022-.035.033-.053a.781.781,0,0,0,.048-.6.6.6,0,0,0-.027-.066.7.7,0,0,0,.5-.651.728.728,0,0,0-.089-.4.846.846,0,0,0,.008-.25.676.676,0,0,0,.2-.328.823.823,0,0,0-.221-.7.74.74,0,0,0-.006-.536A.913.913,0,0,0,8.109,9a.88.88,0,0,0-.165-.526.635.635,0,0,0,.128-.631,2.773,2.773,0,0,0-.21-.432.874.874,0,0,0,.067-.34.812.812,0,0,0-.216-.555A.656.656,0,0,0,7.4,5.8a2.125,2.125,0,0,0-.361-.128q-.079-.245-.165-.488Q6.74,4.8,6.584,4.427a1.971,1.971,0,0,0,.187.145,2.7,2.7,0,0,0,.7.62.824.824,0,0,0,1.193-.338,1.02,1.02,0,0,0,.731.217.749.749,0,0,0,.659-.54.628.628,0,0,0,.018-.141,2.118,2.118,0,0,0,.558.3.439.439,0,0,0,.55-.366.422.422,0,0,0-.045-.26l.025-.01.012-.005a.565.565,0,0,0,.287-.31.528.528,0,0,0,.714-.338,2.225,2.225,0,0,0,.03-1.131,1.384,1.384,0,0,0,.542-.99A1.454,1.454,0,0,0,12.592.5a.555.555,0,0,0,.253-.763.651.651,0,0,0,.306-.544.493.493,0,0,0,.04-.463,1.365,1.365,0,0,0-.481-.588,1.9,1.9,0,0,0,.2-.51.472.472,0,0,0,.342-.4.494.494,0,0,0-.372-.546,1.523,1.523,0,0,0-.1-.234,1.121,1.121,0,0,0-.051-.919A1.141,1.141,0,0,0,12.127-5a.562.562,0,0,0-.24-.616,3.211,3.211,0,0,0-.869-.471.811.811,0,0,0-.488-.869.885.885,0,0,0-.3-.046,1.053,1.053,0,0,0-.361-.409.623.623,0,0,0-.839.207l-.007.014c-.007.016-.014.03-.022.045a.717.717,0,0,0-.194-.364.66.66,0,0,0-.791-.153A1.759,1.759,0,0,0,7.839-8a.7.7,0,0,0-.99-.22A1.156,1.156,0,0,0,6.433-8.461ZM4.6,14.073a2.378,2.378,0,0,0-1.653.052l-.037.015c-.451.178-1.183.574-1.271,1.08a.315.315,0,0,0,.457.351c.22-.12.344-.361.519-.536a2.755,2.755,0,0,1,.58-.435A3.823,3.823,0,0,1,4.6,14.171C4.656,14.163,4.641,14.089,4.6,14.073Z" transform="translate(16.55 8.514)"/>
            </g>
            <g id="face_Smile-2" data-name="face/Smile" transform="translate(1.674 16.535)">
              <path id="_-Ink-6" data-name="ðŸ–-Ink" d="M18.8,24.506a2.478,2.478,0,0,0,1.041-.8.479.479,0,0,0,.1-.373A.538.538,0,0,0,19.73,23a.5.5,0,0,0-.376-.1.471.471,0,0,0-.318.21l-.019.026a1.64,1.64,0,0,1-.6.5,1.356,1.356,0,0,1-.744.131,2,2,0,0,1-1.213-.694c-.045-.046-.091-.094-.137-.143a.215.215,0,0,0-.113-.087.244.244,0,0,0-.156,0,.248.248,0,0,0-.123.093.227.227,0,0,0-.039.151,1.561,1.561,0,0,0,.516.987,2.215,2.215,0,0,0,2.394.433Zm-1.475-5.87c-.46.279-1.16.93-.666,1.621.582.61,1.42-.089,1.833-.406.383-.245.813.385.458.672-2.984,2.206-4.2-1.814-1.858-2.215C17.351,18.264,17.446,18.55,17.326,18.636Zm5.348-2.567c-.051-.63-1.011-.773-1.107-.15a2.547,2.547,0,0,0,.267,1.573.47.47,0,0,0,.891-.181A5.067,5.067,0,0,0,22.674,16.069Zm-7.309-.279a.513.513,0,0,0-.559-.227c-.724.211-.51,1.237-.256,1.736a.5.5,0,0,0,.786.1,1.216,1.216,0,0,0,.068-1.55A.526.526,0,0,0,15.365,15.791Zm6.48-2.476-.114-.02c-.354-.061-.793-.12-1.043.164a.412.412,0,0,0,0,.574c.314.253.66.155,1.036.177a4.129,4.129,0,0,1,.906.154,6.16,6.16,0,0,1,1.747.9c.073.049.148-.045.113-.113a3.607,3.607,0,0,0-1.575-1.466A3.9,3.9,0,0,0,21.845,13.315Zm-5.82-.283-.087.018a3.662,3.662,0,0,0-2.64,1.529c-.017.132,0,.16.016.179l0,.006a.123.123,0,0,0,.079.056l.048-.012a2.736,2.736,0,0,0,.528-.206l.172-.084a4.733,4.733,0,0,1,.613-.261,7.227,7.227,0,0,1,1.4-.308.573.573,0,0,0,.28-.106.42.42,0,0,0,.157-.238.427.427,0,0,0-.048-.357.453.453,0,0,0-.221-.19A.519.519,0,0,0,16.024,13.032Z" transform="translate(-13.29 -13.021)"/>
            </g>
          </g>
        </g>
      </g>
    </g>
  </g>
</svg>
