<svg xmlns="http://www.w3.org/2000/svg" xmlns:xlink="http://www.w3.org/1999/xlink" width="375" height="415" viewBox="0 0 375 415">
  <defs>
    <clipPath id="clip-path">
      <rect id="Rectangle_2239" data-name="Rectangle 2239" width="375" height="415" transform="translate(0 1142)" fill="#fff" stroke="#707070" stroke-width="1"/>
    </clipPath>
    <radialGradient id="radial-gradient" cx="0.5" cy="0.5" r="0.5" gradientUnits="objectBoundingBox">
      <stop offset="0" stop-color="#d4d516"/>
      <stop offset="1" stop-color="#fafafa" stop-opacity="0"/>
    </radialGradient>
    <radialGradient id="radial-gradient-2" cx="0.5" cy="0.5" r="0.5" gradientUnits="objectBoundingBox">
      <stop offset="0" stop-color="#9195ff"/>
      <stop offset="1" stop-color="#fafafa" stop-opacity="0"/>
    </radialGradient>
    <clipPath id="clip-path-2">
      <rect id="Rectangle_2235" data-name="Rectangle 2235" width="16" height="16" transform="translate(47 328.75)" fill="#fff" stroke="#1821bc" stroke-width="1"/>
    </clipPath>
    <clipPath id="clip-path-3">
      <rect id="Rectangle_2235-2" data-name="Rectangle 2235" width="16" height="16" transform="translate(47 328.75)" fill="#fff"/>
    </clipPath>
  </defs>
  <g id="landing-2" transform="translate(0 -1142)">
    <g id="Mask_Group_5" data-name="Mask Group 5" clip-path="url(#clip-path)">
      <g id="Group_10922" data-name="Group 10922">
        <ellipse id="Ellipse_383" data-name="Ellipse 383" cx="139" cy="146.5" rx="139" ry="146.5" transform="translate(270.497 1219.813) rotate(41)" opacity="0.595" fill="url(#radial-gradient)"/>
        <ellipse id="Ellipse_384" data-name="Ellipse 384" cx="139" cy="146.5" rx="139" ry="146.5" transform="translate(147.919 1190.107) rotate(41)" opacity="0.8" fill="url(#radial-gradient-2)"/>
      </g>
    </g>
    <g id="Rectangle_2238" data-name="Rectangle 2238" transform="translate(19 1142)" fill="#fff" stroke="#1821bc" stroke-width="1">
      <rect width="336" height="277" rx="10" stroke="none"/>
      <rect x="0.5" y="0.5" width="335" height="276" rx="9.5" fill="none"/>
    </g>
    <text id="What_is_your_professional_title_" data-name="What is your professional title?" transform="translate(36.5 1166.75)" fill="#2021bc" font-size="16" font-family="ReadexPro-Bold, Readex Pro" font-weight="700"><tspan x="0" y="16">What is your professional title?</tspan></text>
    <g id="Group_10875" data-name="Group 10875" transform="translate(192.5 1210)">
      <rect id="Rectangle_2234" data-name="Rectangle 2234" width="145" height="96" rx="4" transform="translate(0.25)" fill="#f9e8fb"/>
      <g id="Group_10869" data-name="Group 10869" transform="translate(-26.75 -315.75)">
        <text id="_Student_in_title_" data-name="“Student” in title?" transform="translate(47 354.75)" fill="rgba(0,0,0,0.74)" font-size="16" font-family="ReadexPro-Regular, Readex Pro" letter-spacing="0.009em"><tspan x="0" y="16">“Student” in </tspan><tspan x="0" y="40">title?</tspan></text>
        <g id="Mask_Group_3" data-name="Mask Group 3" clip-path="url(#clip-path-2)">
          <path id="graduation-cap-solid" d="M15.577,3.422,8.51.892a1.574,1.574,0,0,0-1.061,0L.4,3.422a.616.616,0,0,0,0,1.155l1.5.538a3.456,3.456,0,0,0-.614,1.349A.8.8,0,0,0,.8,7.2a.787.787,0,0,0,.3.609L.478,11.534A.4.4,0,0,0,.872,12H2.328a.4.4,0,0,0,.395-.466L2.1,7.809A.821.821,0,0,0,2.4,7.2a.786.786,0,0,0-.318-.622A2.658,2.658,0,0,1,2.706,5.4L7.471,7.108a1.574,1.574,0,0,0,1.061,0L15.6,4.578A.612.612,0,0,0,16,4,.6.6,0,0,0,15.577,3.422ZM8.778,7.86A2.147,2.147,0,0,1,8,8a2.369,2.369,0,0,1-.8-.139l-3.63-1.3-.37,3.57C3.2,11.165,5.328,12,8,12c2.628,0,4.8-.835,4.8-1.867l-.37-3.572Z" transform="translate(47 330.35)" fill="#1821bc"/>
        </g>
      </g>
    </g>
    <g id="Group_10877" data-name="Group 10877" transform="translate(36.75 1210)">
      <path id="Path_1123" data-name="Path 1123" d="M4,0H141a4,4,0,0,1,4,4V92a4,4,0,0,1-4,4H4a4,4,0,0,1-4-4V4A4,4,0,0,1,4,0Z" transform="translate(0.25)" fill="#fbf3e8"/>
      <g id="Group_10869-2" data-name="Group 10869" transform="translate(-26.75 -315.75)">
        <text id="What_do_I_put_as_a_tile_" data-name="What do I put as a tile?" transform="translate(47 354.75)" fill="rgba(0,0,0,0.74)" font-size="16" font-family="ReadexPro-Regular, Readex Pro" letter-spacing="0.009em"><tspan x="0" y="16">What do I </tspan><tspan x="0" y="40">put as a tile?</tspan></text>
        <g id="Mask_Group_3-2" data-name="Mask Group 3" clip-path="url(#clip-path-3)">
          <path id="wand-magic-sparkles-solid" d="M7.318.147a.226.226,0,0,1,.424,0l.415,1.108,1.109.415a.226.226,0,0,1,0,.424L8.156,2.51,7.741,3.618a.226.226,0,0,1-.424,0L6.9,2.51,5.768,2.095a.205.205,0,0,1-.121-.212.205.205,0,0,1,.121-.212L6.9,1.255Zm5.253.267a1.412,1.412,0,0,1,2,0l1.018,1.017a1.413,1.413,0,0,1,0,2L4.368,14.644a1.413,1.413,0,0,1-2,0L1.355,13.627a1.412,1.412,0,0,1,0-2Zm1,1.331L10.479,4.832l.685.685,3.088-3.089ZM.22,3.447l1.662-.624.623-1.662a.339.339,0,0,1,.636,0l.624,1.662,1.662.624a.339.339,0,0,1,0,.635l-1.662.624L3.141,6.368a.339.339,0,0,1-.636,0L1.882,4.706.22,4.082a.339.339,0,0,1,0-.635Zm10.353,7.529,1.662-.624.624-1.662a.339.339,0,0,1,.635,0l.624,1.662,1.662.624a.339.339,0,0,1,0,.635l-1.662.624L13.494,13.9a.339.339,0,0,1-.635,0l-.624-1.662-1.662-.624a.339.339,0,0,1,0-.635Z" transform="translate(47 329.222)" fill="#1821bc"/>
        </g>
      </g>
    </g>
    <g id="Light_Text_fields_2._Outlined_6_States_" data-name="Light 🌕/ Text fields/2. Outlined/ (6 States)" transform="translate(36.5 1319)">
      <g id="_Container_l_Color" data-name="🔲🎨 Container l Color" transform="translate(0 8)" fill="none" stroke="rgba(0,0,0,0.12)" stroke-width="1">
        <rect width="302" height="56" rx="4" stroke="none"/>
        <rect x="0.5" y="0.5" width="301" height="55" rx="3.5" fill="none"/>
      </g>
      <g id="Top_label" data-name="Top label" transform="translate(0.5 -1)">
        <rect id="top_border_with_background_color" data-name="top border with background color" width="111" height="2" transform="translate(13 8)" fill="#f5f5f5"/>
        <text id="_Label" data-name="✏️ Label" transform="translate(16 13)" fill="rgba(0,0,0,0.6)" font-size="12" font-family="ReadexPro-Regular, Readex Pro" letter-spacing="0.033em"><tspan x="0" y="0">Start typing here</tspan></text>
      </g>
      <g id="Top_label-2" data-name="Top label" transform="translate(-1.5 27.5)">
        <rect id="top_border_with_background_color-2" data-name="top border with background color" width="159" height="7" transform="translate(13 4)" fill="#f5f5f5"/>
        <text id="_Label-2" data-name="✏️ Label" transform="translate(16 13)" fill="rgba(0,0,0,0.6)" font-size="16" font-family="ReadexPro-Regular, Readex Pro" letter-spacing="0.033em"><tspan x="0" y="0">UX Design student</tspan></text>
      </g>
    </g>
    <g id="Introduction" transform="translate(212.154 1274)">
      <g id="variations-standing" transform="translate(0 0)">
        <g id="a-person_standing" data-name="a-person/standing" transform="translate(0)">
          <g id="pose_standing_pointing_finger-1" data-name="pose/standing/pointing_finger-1" transform="translate(0 51.406)">
            <path id="_-Background" data-name="🎨-Background" d="M135.1,102.775c.107,3.878.734,7.744,1.206,11.6.378,3.811,1.09,7.659,1.662,11.4a.8.8,0,0,0,1.358.486c-.011-8.5-2.285-17.231-1.48-25.914-.649-.362-1.31-.763-1.941-1.163a4.8,4.8,0,0,0-.8,3.591m33.6-50.142c.973,3.532,3.034,6.577,3.936,10.114l.953-.095c.469-7.8-.849-15.469-2.389-23.009l-.958.056c-.338,4.345-2.56,8.461-1.542,12.933M63.759,23.894c.052-.145.1-.293.154-.444l.558.119c-1.04-1.969-.07-2.617,1.106-4.245l.128.3.453-.989c.09-.251.182-.464.43-.558a4.618,4.618,0,0,1,1.925-2.97l.184.207a3.643,3.643,0,0,1,1.277-.614A28.673,28.673,0,0,1,67.8,9.922a23.428,23.428,0,0,1-1.472-4.761c.122-1.554,1.591-.545,2.308.231a21.967,21.967,0,0,1,5.487,8.651c2.426-.631,3.818.035,4.492,3.349a30.416,30.416,0,0,1,1.338,6.9c.326-.112.9-.532,1.216-.2,5.392,5.9,11.758,10.443,17.915,15.417,4.653-3.422,7.074-10.193,9.633-15.276,4.464-8.724,8.928-21.5,20.41-21.451a23.166,23.166,0,0,0,4.444-.782c.556-.151,1.244-.333,1.433-.671a14.28,14.28,0,0,1,1-3.263c1.641-2.668,5.2-2.878,7.985-2.3,4.732.877,4.612.365,4.954,5.341.1,1.181,1.018,1.35,2,1.6a32.907,32.907,0,0,0,3.381.866l-.355-.1c18.518.293,30.813,21.772,33.253,36.967,2.833,15.546-.831,32.847-6.624,45.9.249,4.755-.684,9.531-1.275,14.218-.371,1.173-1.654,1.287-2.021-.072l-.452-1.788-.484,1.779c-.307,1.1-.8,1.232-1.244,1.239-.551,0-.853-.271-.871-1.7l-.912-.219a4.675,4.675,0,0,1-1.253,1.673c-1.111,8.073-1.808,16.466-4.5,24.278-1.075,2.9-2.726,5.531-3.938,8.375,5.716,12.9,6.674,27.2,8.047,41.008l-.8.069.313.832a1.481,1.481,0,0,1,.808.983c.288-.024,1.491-.015,1.424.261a5.438,5.438,0,0,1-1.457,3.626c-.012.26-.028.526-.048.772a118.368,118.368,0,0,1,3.726,18.892c.968.932,1.211,4-.234,4.813a22.17,22.17,0,0,1-14.385,3.553c-5.457-.516-11.966-2.69-9.354-8.914.034-.193.3-.2.508-.16a4.184,4.184,0,0,1,1.507-.979c1.078-2.692,2.047-5.514,2.893-8.332a12.374,12.374,0,0,0,.8-4.052c-.2-3.485-.563-4.926-2.985-7.671-1.5.721-4.357-4.5-5.012-5.6-1.378-3.242-3.133-6.189-4.6-9.369a.779.779,0,0,0-1.332-.083.724.724,0,0,0-.1.665,97.106,97.106,0,0,0,4.708,10.673c-.573,2-.8,5.348-2.234,6.838-.78,5.189,4.557,7.566,1.118,13.32,1.164.08,1.273.545,1.252,1.959a15.476,15.476,0,0,1-.161,3.028c-.232,1.165-1.308,1.478-2.923,1.822-1.309.289-2.569.62-3.867.932-1.313.436-2.7.4-3.237-.927-6.5,2.2-25.254,1.952-31.455-.969-1.713-.685-2.92-1.073-1.348-3,.866-5.507,15-1.57,17-7.61a1.79,1.79,0,0,1,1.5-1.339,1.171,1.171,0,0,1,.735-1.5,1.375,1.375,0,0,0,.646-.275,5.513,5.513,0,0,1,2.429-2.35c-.416-.6-.08-.878.108-1.548.19-1.283-.247-2.511-.225-3.758a3.851,3.851,0,0,0-.79-1.216c-.348-.245-.131-.351,0-.622-.1-.091-.337-.3-.443-.382a.721.721,0,0,1,.54-1.148c.064-.215.14-.465.189-.679a72.654,72.654,0,0,1-3.7-15.9c-.546-9.524-.034-17.553-2.936-27.232-4.057-15.325-11.94-29.707-12.046-45.924.135-2.688-.61-5.551.066-8.189L107.442,78c-.121.139-.339.135-.383-.054-.551-.893.067-1.965.193-2.943-.288-.308-.144-.59.2-.758,3.729-13.158,9.965-15.08,8.248-31.527-2.8,5.933-9.006,11.939-15.846,11.056C92.969,54.807,76.9,38.028,73.792,32.6c-.569.044-.576-.364-.662-.748a4.971,4.971,0,0,1-5.542-4.613c-2.488,1.542-5.147-.66-3.828-3.349" transform="translate(-62.929 4.504)" fill="#fff"/>
            <path id="_-Ink" data-name="🖍-Ink" d="M82.645,44.131l.267.238c4.368,3.882,9,7.757,14.469,9.95a16.324,16.324,0,0,0,2.274.5c6.36.063,10.678-4.859,14.706-9.1-.337-7.262-.058-14.761,2.813-21.547l.069-.175a13.867,13.867,0,0,1,2.935-4.892c.034-.033.08.016.051.051a13.34,13.34,0,0,0-2.345,4.955l-.025.09a60.588,60.588,0,0,0-1.742,18.452l.007.187c.15,4.178.511,8.379.008,12.548-.367,4.3-2.273,8.195-4.348,11.911A42.8,42.8,0,0,0,107.8,78.2a4.521,4.521,0,0,0,2.211,2.563,20.688,20.688,0,0,0,5.9,2.22,69.45,69.45,0,0,0,25.508,2.088c9.119-1.183,18.019-3.63,26.85-6.122a18.165,18.165,0,0,0,2.784-.963.881.881,0,0,1,.2-.162c.15-2.117.349-4.215.5-6.326a31.234,31.234,0,0,0-3.08-11.762c-3.185-6.056-2.133-9.739-.191-15.909a16.409,16.409,0,0,0,.725-4.831c-.2-1.02-.4-2.04-.581-3.063-.076-.2-.158-.39-.25-.584a.032.032,0,0,1,.055-.032c.041.058.079.117.118.177-.135-.781-.259-1.562-.369-2.346a.082.082,0,0,1,.158-.043,83,83,0,0,1,5.432,29.446c-.049,2.95-.253,5.9-.47,8.843l.02.284a7.913,7.913,0,0,1-.273,3.31c-.083,1.82-.392,3.619-.3,5.445a5.993,5.993,0,0,0,1.982,4,14.082,14.082,0,0,0,4.281,3.024c6.729-19.647,10.671-40.056.941-59.483-4.516-9.459-12.291-17.956-22.724-20.659,1.487,1.641.328,4.095-.741,5.659l-.065.095c-5.12,7.575-16.4,9.379-24.851,7.732-4.1-.7-7.937-3.349-8.264-7.777a7.917,7.917,0,0,1,3.993-7.351l-.311.034c-2.488.276-4.9.674-6.813,2.451-7.038,6.5-10.3,15.76-14.46,24.142l-.165.305c-1.781,3.3-3.5,6.857-6.459,9.248l.553.471h0c.07.06,0,.2-.093.159-.285-.115-.567-.236-.849-.358a.557.557,0,0,1-.9-.408c-6.69-3.2-12.344-8.268-17.592-13.412-1.325,3.064-3.56,6.406-7.137,6.906C76.454,37.968,79.443,41.167,82.645,44.131Zm53.771,58.743q-.651-.37-1.286-.769c-.7,1.115-.521,2.1-.445,3.327a49.317,49.317,0,0,0,.541,6.168c.723,5.161,1.151,10.554,2.225,15.584.024.281.049.562.071.843.029.37.61.372.581,0C137.4,119.68,135.895,111.282,136.416,102.874Zm-3.938,100.58c-5.45.9-11.014.263-16.466-.318l-.8-.1c-2.581-.335-5.177-.687-7.711-1.249-.214-.176-.543-.255-.671-.516l-.156.011q-.2-.112-.4-.211c-.4-.071-.723-.158-1.134-.27a.568.568,0,0,0-.237,1.026c-.038.177.174.278.313.357a.329.329,0,0,0,.109.123,3.058,3.058,0,0,0,.784.422,6.036,6.036,0,0,0,3.012,1.143l.081.014a81.387,81.387,0,0,0,20.757,1q1.791-.144,3.575-.366l.324-.041a4.95,4.95,0,0,0,2.947-.933.688.688,0,0,1,1.158.455v.023c-.069.974,2.212.168,2.663.042l.013,0c1.263-.342,2.517-.72,3.784-1.046l.311-.06c1.1-.218,1.186-.328,1.2-1.69l.041-.37c.055-.493.115-.985.194-1.474l.031-.184c.036-.206.386-1.479-.2-1.31a.12.12,0,0,1-.149-.109A37.2,37.2,0,0,1,132.478,203.455Zm21.668,3.284-.348-.209a5.555,5.555,0,0,1-1.582-1.27c-.682.026-.963-.616-.937-1.189a3.434,3.434,0,0,0,1.817,4.292c5.849,3.1,13.332,2.644,19.154-.3q.838-.432,1.634-.937l.119-.076a1.252,1.252,0,0,0,.5-.482,7.712,7.712,0,0,0,.279-2.312A6.979,6.979,0,0,1,173,205.666a18.406,18.406,0,0,1-3.723,1.885A18.612,18.612,0,0,1,154.147,206.738ZM171.836,53.932c-.466-4.043-1.266-8.031-2.04-12.023-.315,4.29-2.545,8.468-1.553,12.808.969,3.494,3.046,6.593,3.934,10.117A68.482,68.482,0,0,0,171.836,53.932Zm-5.748,35.082a6.384,6.384,0,0,0,1.595.056c2.151-.26,2.491,1.04,2.483,2.859.065,1.176.138,2.351.2,3.528l.035.706a18.079,18.079,0,0,1,.045,2.974,8.22,8.22,0,0,1,.662,2.8.626.626,0,0,1,.508.069,12.117,12.117,0,0,0,1.141-4.7.621.621,0,0,1,1.241,0c.022,1.106.039,2.214.058,3.32l.03,1.707h0v.025c0,.243-.115.857.184.834l.017,0c.557-.042.583-2.021.7-2.515l.465-3.312h0c.1-.741,1.171-.5,1.244.147l0,.021c.13,1.513.263,3.027.375,4.542.035.262.04.736.326.85a1.542,1.542,0,0,0,.354-.926c.476-4.37,1.37-8.683,1.921-13.043a.94.94,0,0,1-.789-.615c-2.867-.585-5.876-2.2-7.317-4.818-.288.253-.512.585-.791.845-.441.413-.925.785-1.387,1.17-1.3,1.1-2.6,2.133-3.87,3.264A4.038,4.038,0,0,0,166.088,89.014ZM134.891-.438a.05.05,0,0,0-.1.014,12.28,12.28,0,0,1-.747,3.344.554.554,0,0,0-.383.262c-.136.212-.784.359-1.122.459l-.048.015a22.741,22.741,0,0,1-4.327.763c-6.851.378-9.345,2.524-13.21,7.944-4.588,6.106-7.162,13.353-10.621,20.092-.851,1.639-1.77,3.239-2.78,4.786l-.1.147a12.564,12.564,0,0,1-3.278,3.686c-3.335-2.793-6.9-5.287-10.2-8.123l-.308-.267q-3.712-3.206-7.088-6.776a1.048,1.048,0,0,0-1.131-.189,32.959,32.959,0,0,0-1.3-6.3c-.585-2.659-1.6-4.455-4.663-3.8A22.116,22.116,0,0,0,68.1,7.231l-.16-.144c-.532-.483-1.231-1.175-1.978-1.113a1.237,1.237,0,0,0-1.054,1.294,6.39,6.39,0,0,0,.524,2.188l.02.059q.447,1.367.96,2.711c.327.863.678,1.717,1.045,2.564.374.708.649,1.88,1.33,2.308a.507.507,0,0,0,.751-.431,2.425,2.425,0,0,0-.417-1.294q-.276-.565-.539-1.136A49.222,49.222,0,0,1,66.7,9.545c-.161-.537-.822-1.934-.593-2.417.229,0,.7.486.869.63,2.626,2.173,4.333,5.175,6.285,7.915a9.521,9.521,0,0,0-3.573,1.335,2.755,2.755,0,0,0,2.394,4.765c-.783,1.662-1.457,4.348-.069,5.85a.818.818,0,0,0,1.355-.356A4.166,4.166,0,0,0,73.2,25.4a11.667,11.667,0,0,1-.25-3.968L73,21.4a1.282,1.282,0,0,0,.76-1.208c.062-.431-.4-1.012-.86-.659-.15.114-.333.123-.491.238a1.435,1.435,0,0,1-.98.451H71.4a1.028,1.028,0,0,1-1-.754c-.409-1.251,1.006-1.672,1.926-1.912l.238-.073c2.511-.767,3.421-.779,4.052,2.168a31.457,31.457,0,0,0,2.441,6.472l-.144.343c-1.162,2.764-2.62,5.945-5.743,6.793-.111-.923-1.11-.957-1.834-.933a3.942,3.942,0,0,1-2.531-1.2c-.576-.58-.866-1.387-1.5-1.9a.758.758,0,0,0-1.044-1c-.459.253-.736.615-1.29.688a1.673,1.673,0,0,1-1.316-.419c-.973-.821-.51-2.028-.748-3.1a3.361,3.361,0,0,0,1.392,1.245c3.724,2.128,3.687-2.044,1.629-1.359-2.236-.508-2.2-1.315-1.362-3.21l.015-.045c.136-.4.439-1.1.157-1.529a.041.041,0,0,0-.064-.009,7.413,7.413,0,0,0-.572.968l-.257.307c-.782.941-1.6,2.058-1.092,3.314a.107.107,0,0,0-.132.077A7.31,7.31,0,0,0,62,27.8a2.984,2.984,0,0,0,4.265,2.316,5.383,5.383,0,0,0,5.552,4.405.865.865,0,0,0,.763.71c3.829,6.127,18.883,21.891,26.265,21.232a4.5,4.5,0,0,0,2.352.063c5.733-.747,10.525-4.935,13.2-9.9.982,16.26-4.569,16.062-8.284,29.533a.837.837,0,0,0-.3,1.171,7.429,7.429,0,0,0-.36,2.486,3.306,3.306,0,0,0,.3.674.691.691,0,0,0,1.136.045,16.041,16.041,0,0,0-.155,5.414c.076,1.056.071,2.1.072,3.155.146,16.093,8.016,30.6,12.062,45.87a72.563,72.563,0,0,1,2.369,13.061c.367,4.7.111,9.432.553,14.129a72.177,72.177,0,0,0,3.683,15.9,2.441,2.441,0,0,0-.184,1.257,62.98,62.98,0,0,1,7.2,1.86.267.267,0,0,1,.181.153l.544.18h0c.353.117.2.678-.154.559l-.595-.2a36.229,36.229,0,0,0-6.209-1.616l-.065-.026c-.423-.169-.921-.293-1.144.172a.6.6,0,0,0,.138.66,4.615,4.615,0,0,1,.43.434c.134.235.247.483.379.722a27.984,27.984,0,0,1,.237,3.529c-.114.489-.51.958-.259,1.481l-.115.073a5.651,5.651,0,0,0-1.744,1.56c-.1.145-.168.444-.278.546s-.327.119-.468.169a1.518,1.518,0,0,0-1.1,1.6c-1.665.478-1.092,2.167-2.81,3.342-1.764,1.276-4.153,1.417-6.236,1.748l-3.551.565h0l-.206.025c-2.247.277-5.178.8-5.631,3.42l-.036.042c-.543.648-1.065,1.877-.395,2.58a6.918,6.918,0,0,0,1.949.991,8.358,8.358,0,0,0,3.238,1.154,81.821,81.821,0,0,0,26.363.546l.146-.021a6.523,6.523,0,0,0,1.8-.476c.78,1.311,2.281,1.146,3.546.774q1.489-.368,2.977-.728l.093-.024c1.533-.393,3.707-.512,4.078-2.38a15.021,15.021,0,0,0,.169-3.008l0-.321c0-.823-.064-1.939-1-2.112a8.418,8.418,0,0,0-.194-7.724l-.064-.117a7.171,7.171,0,0,1-1.148-4.907,4.489,4.489,0,0,0,1.086-2.141q.69-2.481,1.2-5.008l-.527-1.082a88,88,0,0,1-4.23-9.7c-.106-.307.393-.523.531-.224,1.461,3.166,3.247,6.174,4.607,9.388a29.005,29.005,0,0,0,3.2,4.732l.054.075a2.814,2.814,0,0,0,1.64,1.125.545.545,0,0,0,.368.019,10.937,10.937,0,0,1,2.023,2.985,17.149,17.149,0,0,1,.668,4.151c.044,1.8-.705,3.5-1.177,5.2q-1.08,3.45-2.41,6.816a4.364,4.364,0,0,0-1.3.849.728.728,0,0,0-.8.52l-.051.168a7.145,7.145,0,0,0-.24,4.57c1.568,3.513,6.609,4.389,10.056,4.81a22.554,22.554,0,0,0,14.712-3.64,2.309,2.309,0,0,0,1.11-1.644l.01-.093c.137-1.246.169-2.724-.7-3.69a119,119,0,0,0-3.7-18.759c.014-.173.024-.346.033-.52a6.116,6.116,0,0,0,1.466-3.812c.013-.576-.571-.7-1.023-.766l-.167,0a11.065,11.065,0,0,0-4.312.612l.065,0a.365.365,0,0,1,.187.046,20.29,20.29,0,0,0-2.008.582c-.467.023-.874.244-1.346.284l-.075,0a.245.245,0,0,1-.194-.059c-1.27.226-2.532.531-3.8.717-.366.054-.524-.5-.154-.559,1.7-.249,3.384-.706,5.092-.918.378-.146.743-.334,1.121-.485a.253.253,0,0,1,.131-.127,9.582,9.582,0,0,1,1.288-.489,14.749,14.749,0,0,1,3.5-.567l-.083-.841c-1.355-13.749-2.344-27.866-7.966-40.67,1.195-2.757,2.819-5.383,3.864-8.218.434-1.133.7-2.289,1.041-3.446a7.586,7.586,0,0,0,.5-1.709c1.376-6.291,2.155-12.69,2.967-19.072a5.424,5.424,0,0,0,1.225-1.7v.091c.019.985.158,2.12,1.4,2.091,1-.024,1.441-.771,1.665-1.6a1.487,1.487,0,0,0,2.944.121,9.034,9.034,0,0,0,.319-2.189c.405-3.951,1.251-7.9,1.008-11.878a.924.924,0,0,0,.587-.608c4.841-14.652,9.15-30.332,6.007-45.794-3.143-15.148-11.653-32.106-27.736-36.4a54.163,54.163,0,0,0-9.9-1.313,7.72,7.72,0,0,1-.856-3.044c-.019-.3,0-.606,0-.91a4.829,4.829,0,0,1-.063-.879.05.05,0,0,0-.1-.026c-.071.185-.215.277-.313.433a4.062,4.062,0,0,0-.372,1.453,7.538,7.538,0,0,0,1.469,5.433l.04.053c.36.481,1.046,1.353,1.754.935.618-.365.222-1.107-.146-1.5l-.028-.03a8.219,8.219,0,0,1-1.257-1.676c1.51.4,3.008.845,4.514,1.264l.071.039c1.179.642,2.931,1.328,2.776,2.919-3.135,9.453-17.006,11.882-25.578,9.625l-.137-.037a8.584,8.584,0,0,1-4.4-2.5l-.046-.056a5.8,5.8,0,0,1,.652-8.141,13.109,13.109,0,0,1,5.349-2.264c-.535.887-1.717,1.513-1.933,2.564a.572.572,0,0,0,.542.711c1.011.019,1.756-1.059,2.287-1.784a10.088,10.088,0,0,0,1.87-5.216A7.72,7.72,0,0,0,134.891-.438ZM68.007,16.616c.054-.037.024-.146-.048-.116-2.748,1.138-3.87,5.213-1.8,7.457a2.46,2.46,0,0,0,2.653.762,2.7,2.7,0,0,0,1.972-2.427.045.045,0,0,0-.078-.041l-.006.007a4.615,4.615,0,0,1-1.747,1.169,2.263,2.263,0,0,0-.56-.215.427.427,0,0,0-.529.432c-1.293-.236-1.812-1.774-1.851-2.941v-.035A4.747,4.747,0,0,1,68.007,16.616Z" transform="translate(-61.985 2.117)"/>
          </g>
          <g id="Head" transform="translate(57.184)">
            <g id="head_Bun-2" data-name="head/Bun-2">
              <path id="_-Background-2" data-name="🎨-Background" d="M10.082,28.422c.23-2.971-.126-6.085,1.021-8.908,2-4.685,7.613-6.247,11.963-8.031,1.743-.514,7.607-.586,9.648-1.266,4.619-1.539,5.722-3.374,9.392-.443a3.982,3.982,0,0,1,1.29,1.789l-.012,0a.99.99,0,0,1-.188.856,5.966,5.966,0,0,1,1.441,6.217C41.973,24.262,42.1,27.3,42.957,33.347c1.121,5.643-1.441,7.7-5.683,10.775a1.038,1.038,0,0,1-.017,1.073C32.351,52.075,23.1,55.36,15.176,51.868c-3.217-1.429-4.653-4.848-5.473-7.933a22.03,22.03,0,0,1-.471-10.613A43.867,43.867,0,0,0,10.082,28.422Z" transform="translate(-5.469 4.505)" fill="#fff"/>
              <path id="_-Ink-2" data-name="🖍-Ink" d="M9.161-22.977a1.166,1.166,0,0,0-1.259.8l-.011.028c-.069.177-.145.349-.228.518-1.49-.73-3.616-.542-4.559.935-.673,1.055-.262,2.307-.009,3.426l.167.737a1.141,1.141,0,0,0-.553.95v.029l.068,1.028a5.337,5.337,0,0,1-.587-.706c-.121-.221-.252-.439-.392-.649a1.157,1.157,0,0,0-2,1.165,6.991,6.991,0,0,0,.436.732A6.472,6.472,0,0,1,.673-12.92a1.013,1.013,0,0,0-.6.921A2.837,2.837,0,0,0,1.51-9.412a1.018,1.018,0,0,0,.8.139c.045.06.089.12.132.181a5.832,5.832,0,0,0-.98,1.01,17.665,17.665,0,0,0-2.572-.189,5.719,5.719,0,0,0-3.434-.31c-.726.124-1.423.364-2.138.537-.753.182-1.518.188-2.28.312a3.572,3.572,0,0,0-2.333,1.3,3.5,3.5,0,0,0-1.7.578c-1.181.752-2.356,1.514-3.534,2.271a1.2,1.2,0,0,0-.538,1.271l.006.033.04.215-.093.132a8.7,8.7,0,0,0-.986,1.6,17.206,17.206,0,0,0-1.168,1.944,14.136,14.136,0,0,0-1.111,2.841c-.065.248-.13.5-.172.752a2.859,2.859,0,0,0,.084.978c.064.435.087.875.155,1.311a.534.534,0,0,0,.549.439c-.1.735-.167,1.476-.233,2.21-.094,1.049-.158,2.1-.213,3.154a2.506,2.506,0,0,1-1.287.852,2.958,2.958,0,0,1-1.742-.212c-.346-.125-.629.309-.461.6a1.882,1.882,0,0,0,2.52.5,2.383,2.383,0,0,0,.918-.737q-.022.458-.046.917l-.014.277c-.174,3.24-.551,6.592.059,9.8A12.336,12.336,0,0,0-8.968,35.419a15.609,15.609,0,0,0,6.637-1.184c1.223-.486.748-1.476-.1-1.193a15.862,15.862,0,0,1-6.555.9c-5.668-.739-10.474-3.567-9.981-15.744.07-1.727.286-3.454.332-5.181.045-1.688.028-3.377.1-5.064l.025-.576c.029-.673.06-1.348.111-2.022.061-.261.111-.526.186-.782a11.62,11.62,0,0,1,.795-2.021.563.563,0,0,0,.242.11,3.184,3.184,0,0,0,1.923-.192,3.025,3.025,0,0,0,.79-.511,1.2,1.2,0,0,0,.251-.3,1.021,1.021,0,0,0,.8-.3.711.711,0,0,0,.168-.741L-13.256.6l.021-.008a3.722,3.722,0,0,0,1.324,1.633,5.378,5.378,0,0,0,3.047.818,21.165,21.165,0,0,0,3.557-.346c.3-.048.608-.1.905-.178.012.012.023.025.036.037A3.3,3.3,0,0,0-.725,3.2a5.665,5.665,0,0,0,1.874-1.39c.008.3.023.6.049.9l.011.119a2.357,2.357,0,0,0,.578,1.547A2.071,2.071,0,0,0,4.24,4.345c0,.02,0,.042,0,.063Q3.921,5.486,3.6,6.566l-.046.153a7.737,7.737,0,0,0-.371,1.558C3.094,9.3,3.776,10.31,4.915,9.967A4.55,4.55,0,0,0,6.449,8.885l.289-.25a27.567,27.567,0,0,0-1.316,7.519.251.251,0,0,0,.248.247,2.357,2.357,0,0,0,.949-.171.519.519,0,0,0,.053,0,3.6,3.6,0,0,0,1.452-.548,2.684,2.684,0,0,0-.118,1.01c.007.086.141.116.161.021a2.644,2.644,0,0,1,2.927-1.918,3.318,3.318,0,0,1,2.55,2.694A5.182,5.182,0,0,1,12.5,21.573a2.77,2.77,0,0,1-1.63,1.016,2.083,2.083,0,0,1-.9-.054,3.8,3.8,0,0,1-.358-.136c-.172-.07-.374-.08-.536-.154a.407.407,0,0,0-.553.552,1.586,1.586,0,0,0,.579.722c-.219.267-.417.638-.491.737A17.169,17.169,0,0,1,7.419,25.7,12.454,12.454,0,0,1,6.006,27l-.211.167a4.948,4.948,0,0,0-1.247,1.288.681.681,0,0,0,.584,1.016c1.578-.022,2.726-1.406,3.543-2.615.116-.173.226-.356.327-.543a1.154,1.154,0,0,0,.123.164l-.09.242c-.267.711.884,1.176,1.218.512a10.1,10.1,0,0,1,.839-1.372.711.711,0,0,0,.467-.283c.255-.368.54-.74.781-1.132.134-.127.271-.248.412-.367.041.036.082.072.122.109a5.135,5.135,0,0,0,.664,1.112l.058.074a3.7,3.7,0,0,0,2.026,1.476c.255.048.5-.268.274-.47-.584-.524-1.274-.88-1.813-1.465a6.534,6.534,0,0,1-.718-.938l-.048-.077c-.035-.057-.071-.114-.107-.172l.729-.5a19.152,19.152,0,0,0,2.28,1.3l.074.048c.669.446,1.374-.541.838-1.083a22.85,22.85,0,0,1-1.609-1.967A3.86,3.86,0,0,0,15.927,20c.017-.153.031-.306.044-.46a1.856,1.856,0,0,0,1.073-.344l.121-.086a3.62,3.62,0,0,0,1.186.173,1.03,1.03,0,0,0,.719-1.735,2.173,2.173,0,0,0-2.424-.5l-.079-.043a.933.933,0,0,0-.014-.481l.013-.086a2.217,2.217,0,0,0,.341-.916,2.128,2.128,0,0,0-.033-.779,2.631,2.631,0,0,0-.094-.264,1.7,1.7,0,0,0,.117-.511c.018-.022.037-.044.054-.069a1.371,1.371,0,0,0-.062-1.7c0-.029,0-.058-.008-.087q.034-.076.062-.153a1.738,1.738,0,0,0,.6-1.394,1.444,1.444,0,0,0-.373-.852.484.484,0,0,0,0-.338,5.056,5.056,0,0,0,.051-2.9,1.31,1.31,0,0,0,.074-.481,1.452,1.452,0,0,0-1.4-1.384,1.271,1.271,0,0,0-.255.03V4.619a1.951,1.951,0,0,0-.176-.6.381.381,0,0,0,.118-.068,6.636,6.636,0,0,0,1.513.581.488.488,0,0,0,.547-.71,3.274,3.274,0,0,0-.37-.46,4.751,4.751,0,0,1,.578.039,1.12,1.12,0,0,0,.969-.516q.424.412.85.821a1.139,1.139,0,0,0,1.917-.732,1.617,1.617,0,0,0,.589-.292,10.078,10.078,0,0,0,3.6.812,1.165,1.165,0,0,0,1-1.737A5.8,5.8,0,0,0,25.732.437a12.07,12.07,0,0,0,1.925.416,1.111,1.111,0,0,0,1-.572A4.283,4.283,0,0,0,28.528-3.5c-.024-.048-.051-.095-.077-.141q-.1-.242-.212-.477a2.758,2.758,0,0,0,.422-2.993,1.006,1.006,0,0,0,.117-.888,7.6,7.6,0,0,0-1.374-2.3,2.442,2.442,0,0,0,.147-.347,2.872,2.872,0,0,0-.824-2.9,4,4,0,0,0-1.638-.87,4.682,4.682,0,0,0-.949-1.178c-.015-.032-.029-.064-.046-.1A3.545,3.545,0,0,0,21.3-17.511a1.147,1.147,0,0,0-.757-.974,3.537,3.537,0,0,0-.528-1.05,1.192,1.192,0,0,0-1.584-.415,6.942,6.942,0,0,0-.918.624,1.258,1.258,0,0,0-.442-.112l-.042,0-.955-.048c-.4-.177-.8-.362-1.2-.543a3.211,3.211,0,0,0-.8-.486,3.259,3.259,0,0,0-1.01-.243c-.276-.09-.554-.169-.837-.231a9.247,9.247,0,0,0-2.049-.219c-.014-.178-.021-.358-.02-.541v-.091A1.152,1.152,0,0,0,9.161-22.977ZM9.83,23.8c.095.02.191.037.287.048-.029.072-.058.143-.086.215-.077.043-.156.085-.234.124A1.989,1.989,0,0,0,9.83,23.8ZM14.8,22.321l.064.118.031.057a2.147,2.147,0,0,0-.41.008V22.49a.43.43,0,0,0,.052-.019A2.172,2.172,0,0,0,14.8,22.321Zm-2.689-5.4a5.947,5.947,0,0,0-2.361.555l-.067.033c-.688.341-1.827.971-1.731,1.875a.519.519,0,0,0,.508.507c.807-.055,1.267-.867,1.814-1.373a9.348,9.348,0,0,1,1.895-1.386.115.115,0,0,0-.045-.211ZM16,5.02c.205.007.137.206.031.04A.293.293,0,0,0,16,5.02ZM4.921-8.268a9.663,9.663,0,0,1,5.357,2.354,18.947,18.947,0,0,1,3.33,3.5,20.092,20.092,0,0,1,.644,1.961c.119.437.194.878.293,1.319L14.576,1a2.114,2.114,0,0,1,.179.466,1.383,1.383,0,0,1-.658.363.409.409,0,0,0-.2.117A4.317,4.317,0,0,1,13.411.871l0-.017A22.1,22.1,0,0,0,12.14-1,22.252,22.252,0,0,0,7.848-5.4,14.157,14.157,0,0,0,3.69-7.568,4.548,4.548,0,0,1,4.921-8.268Z" transform="translate(23.749 22.99)"/>
            </g>
            <g id="face_Calm" data-name="face/Calm" transform="translate(5.171 32.666)">
              <path id="_-Ink-3" data-name="🖍-Ink" d="M18.8,30.936a3.825,3.825,0,0,0,4.028-1.169,2.642,2.642,0,0,0,.7-1.755.286.286,0,0,0-.069-.184.321.321,0,0,0-.171-.1.314.314,0,0,0-.2.017.264.264,0,0,0-.132.129c-.075.1-.149.194-.223.288a3.662,3.662,0,0,1-2.082,1.489,2.541,2.541,0,0,1-1.426-.1,3.055,3.055,0,0,1-1.254-.879.67.67,0,0,0-.512-.253.787.787,0,0,0-.549.241.846.846,0,0,0-.255.554.736.736,0,0,0,.211.544A4.289,4.289,0,0,0,18.8,30.936Zm.022-9.256c-.731.444-1.845,1.478-1.059,2.577.926.97,2.259-.142,2.916-.645.609-.39,1.293.612.728,1.067-4.747,3.507-6.673-2.884-2.955-3.521C18.859,21.088,19.011,21.542,18.819,21.679Zm6.84-1.952a.817.817,0,0,1,.818-.062,2.662,2.662,0,0,1,.952.947,1.876,1.876,0,0,1,.312,1.106.25.25,0,0,0,.081.211.317.317,0,0,0,.177.078.46.46,0,0,0,.186-.017.276.276,0,0,0,.184-.158,2.3,2.3,0,0,0-.113-1.693,3.453,3.453,0,0,0-1.24-1.553,2.077,2.077,0,0,0-2-.009A3.69,3.69,0,0,0,23.8,19.835c-.071.1-.141.206-.214.307a.617.617,0,0,0-.1.574.742.742,0,0,0,.422.435.762.762,0,0,0,.588.009.747.747,0,0,0,.4-.422,2.234,2.234,0,0,1,.763-1.01Zm-11.935.835a.556.556,0,0,0,.465.056.662.662,0,0,0,.273-.163.542.542,0,0,0,.152-.274,1.121,1.121,0,0,1,.394-.655.792.792,0,0,1,.629-.165,1.207,1.207,0,0,1,.677.405,1.526,1.526,0,0,1,.146.214,1.513,1.513,0,0,0,.281.368.274.274,0,0,0,.174.065.263.263,0,0,0,.078-.012.81.81,0,0,0,.3-.65,1.185,1.185,0,0,0-.22-.6,2.394,2.394,0,0,0-1.278-.907,1.906,1.906,0,0,0-1.5.322,2.116,2.116,0,0,0-.867,1.324.7.7,0,0,0,.035.391A.546.546,0,0,0,13.724,20.563ZM24.476,14.9a1.685,1.685,0,0,0,1.088.4,5.137,5.137,0,0,1,.553.082,5.214,5.214,0,0,1,1.337.487,4.952,4.952,0,0,1,1.253.886c.081.087.158.178.235.269s.137.163.208.241.159.182.236.275a1.185,1.185,0,0,1,.067.118c.014.03.031.064.05.1s.057.1.089.153c.054.09.082.115.107.126a.221.221,0,0,0,.118.022.2.2,0,0,0,.1-.05.749.749,0,0,0,.209-.611,2.629,2.629,0,0,0-.269-1.027,5.547,5.547,0,0,0-1.183-1.623,5.76,5.76,0,0,0-1.861-1.131,3.785,3.785,0,0,0-1.408-.29,1.4,1.4,0,0,0-.933.366.81.81,0,0,0-.244.595A.848.848,0,0,0,24.476,14.9ZM13.069,17.771a.177.177,0,0,0,.08.07.188.188,0,0,0,.2-.033.178.178,0,0,0,.054-.092,2.819,2.819,0,0,1,1.515-2.083,6.4,6.4,0,0,1,1.411-.474c.138-.033.283-.054.43-.075a1.778,1.778,0,0,0,1.222-.515.987.987,0,0,0,.214-.77.819.819,0,0,0-.446-.607,2.6,2.6,0,0,0-2.12.275l-.144.061a4.931,4.931,0,0,0-1.714,1.141,3.7,3.7,0,0,0-.881,1.624A1.95,1.95,0,0,0,13.069,17.771Z" transform="translate(-12.824 -13.05)"/>
            </g>
          </g>
        </g>
      </g>
    </g>
  </g>
</svg>
