<svg xmlns="http://www.w3.org/2000/svg" xmlns:xlink="http://www.w3.org/1999/xlink" width="375" height="110" viewBox="0 0 375 110">
  <defs>
    <clipPath id="clip-path">
      <rect id="Rectangle_2231" data-name="Rectangle 2231" width="375" height="110" transform="translate(-13 694.993)" fill="#fff" stroke="#707070" stroke-width="1"/>
    </clipPath>
  </defs>
  <g id="sign-in-image" transform="translate(13 -694.993)" clip-path="url(#clip-path)">
    <g id="Group_10830" data-name="Group 10830" transform="translate(-13.286 695.054)">
      <g id="head_mono_hat-beanie" data-name="head/mono/hat-beanie" transform="translate(185.934 38.365)">
        <path id="Path" d="M35.885,58.706c-11.449,0-25.186,5.635-26.354,5.748l-.032,0q-.922,0-7.2,5.572L6.832,79.01l-.367.356c-1.756,1.71-3.256,3.268-4.44,4.5-9.664,10.031-11.4,49.416-9.124,63.151s6.5,27.175,26.135,27.175,41.488-11.99,44.854-15.723q3.366-3.734,7.561-3.578l.342-.441.412-.059q5.806-.854,8.321-2.3c3.274-1.881,6.873-11.768,6.873-13.946,0-2.156,5.373-17.842,5.481-19.5l0-.046c0-1.388,7.02-7.766,7.02-9.792s1.415-1.9,0-9.041l-.411-2.1c-1.506-7.6-4.453-20.186-15.69-25.654C71.452,66,47.45,58.706,35.885,58.706Z" transform="translate(10.492 -56.705)" fill="#fff"/>
        <path id="_-Ink" data-name="ðŸ–-Ink" d="M81.2,66.023c-6.159-6.637-41.122-16.9-58.81-14.727l-.531.07a30.867,30.867,0,0,0-4.176.831A35.716,35.716,0,0,0,4.994,57.5C1.933,59.682-7.724,63.238-4.878,68.934a8.549,8.549,0,0,0-.736,6.538,7.928,7.928,0,0,0,.568,1.986,58.815,58.815,0,0,0-5.485,10.832,116.879,116.879,0,0,0-4.327,27.992c-.766,17.726,1.149,38.9,16.355,50.363,9.186,7.264,23.575,7.508,33.9-1.5.586-.7,3.341-2.6,2.421-2.937q-.41.44-.841.859a.171.171,0,0,0,.01-.1l.269-.248c.507-.476,1.164-1.168.416-1.032-.033.039-.069.073-.1.112a3.689,3.689,0,0,0-.371.254l-.048.039.015-.016c.431-.467.69-.943.045-.639l-.085.042c-.287.306-.578.6-.875.885a.17.17,0,0,0-.018-.1L36.5,162c.27-.269.229-.27.1-.487.574-.817-.5-.332-.573-.013-.67-.161-1.259,1.116-1.69,1.272-18.923,14.771-46.385,1.665-45.94-39.5l.007-.805c.13-13.161,1.221-26.689,6.582-38.6a34.459,34.459,0,0,1,1.746-3.344q.664-1.215,1.424-2.368a20.82,20.82,0,0,0,4.217-.792c.476-.122.946-.257,1.417-.415,6.874.381,13.595.795,20.488,1.187l2.153.136c5.839.381,11.878.992,16.59,4.659,4.623,3.339,4.644,9.922,8.6,13.587,5.644,3.889,5.685,7.4,6.772,13.128-.081,4.32-3.031,10.6,2.383,12.416-.913,1.322.36.687.46.223a.13.13,0,0,0,.028.005c-.814,1.536.383.569.488.075a.466.466,0,0,0,.192-.13c-.82,1.346.506.4.427.158,1.585-2.473,4.846-2.857,7.145-2.2a.122.122,0,0,0,.194.049c9.776,2.151,7.253,22.7-2.764,20.712-.429-.089-.419.12-.5.14.231-.617-.421-.366-.414-.236l-.04,0c-.032,0-.019-.006-.042,0,.224-1.262-1.035.566-.936.641a.319.319,0,0,0-.12-.042l.043-.12c.209-.565.191-.33.19-.654.157-.4.169-.225.132-.486-.552-.434-.715.883-.9.979.316-.447.065-.811-.233-.569a42.424,42.424,0,0,1-8.937,12.912c-.412.33-.829.654-1.261.961-1.6,1.417-4.06,2.328-5.559,3.583a.156.156,0,0,0,.025.073l-.034.031h0l-.035.033-.522.254a2.808,2.808,0,0,0-.414.444,2.926,2.926,0,0,0-.343.5c-.049.218.059.309.263.215.09-.031.179-.067.269-.1a.1.1,0,0,1-.013.018c-.029.045-.228.513,0,.437l.027-.011c.126-.047.251-.1.373-.148-.146.184-.278.384-.4.553a.883.883,0,0,0-.233.465.121.121,0,0,0,.156.127c.148-.049.294-.1.44-.156l-.042.08c-.1.206-.25.552.011.436.223-.07.437-.151.652-.239.018.036.054.049.125.016a13.068,13.068,0,0,0,1.974-.9c.555-.41,1.115-.813,1.672-1.22a12.832,12.832,0,0,0,1.514-1.075,33.172,33.172,0,0,0,8.311-7.815c3.756,3.3,11.267.147,15.912-2.438,4.109-2.311,5.724-6.584,6.142-11.19.868-6.2,5.86-8.325,5.513-21.933a.079.079,0,0,0,.026,0,2.582,2.582,0,0,0,.524-.221,2.612,2.612,0,0,0,.484-.3l.187-.262h0a1.584,1.584,0,0,0,.25-.169l.034.045c.109.134.036-.067.029-.107l.324-.448c.769-1.066,1.613-2.262,2.3-3.218l.022.039c.016.029.024.051.016.06a20.712,20.712,0,0,0,3.6-8.057,14.377,14.377,0,0,0-.133-6.353C95.5,88.557,89.316,72.784,81.2,66.023Zm-44.38,96.394.1-.093-.09.115a.766.766,0,0,1-.174.167.146.146,0,0,0,0-.057C36.712,162.508,36.765,162.464,36.819,162.417ZM22.467,54.8c12-1.047,23.794,1.636,35.241,4.884l.79.23C65.006,61.8,71.888,63.5,77.389,67.532,85.074,73.508,89.042,83.015,92.5,91.793a16.37,16.37,0,0,1-3.079,18.43A75.661,75.661,0,0,0,86.88,96.947c-.264-.681-.064-.9-.632-.993-.858,11.743,3.369,20.419-5,34.337-3.63,6.567.572,11.372-9.677,14.827l-.277.108c-2.135.818-4.467,1.464-6.559,1.007l.187-.309c.191-.319.249-.473-.029-.61.007-.016.018-.031.028-.049q.337-.646.65-1.309c.084.029.169.049.256.073-.057.106-.064.213.094.249a4.395,4.395,0,0,0,1.735.238l.127-.01a5.782,5.782,0,0,0,1.468-.28c.125-.021.25-.042.373-.068a8.6,8.6,0,0,0,3.329-1.657c9.477-5.465,8.5-24.068-3.184-25.827-.24-11.713-5.727-31.474-14.833-42.635C46.709,63.773,24.238,59.323,8.6,60.892l-.684.232C5.508,61.342,3.209,62.433.8,62.94A21.616,21.616,0,0,1,6.52,60a40.94,40.94,0,0,1,13.129-4.818A12.742,12.742,0,0,1,22.467,54.8Zm47.841,71.285c-.628-.346-.556-.012-.7-.109-4.518-.374-9.389,3.642-11.914,6.99.2.21.739-.413.834-.511a.116.116,0,0,0,.043.029l-.07.1c-1.024,1.491,1.005-.264,1.2-.625a.149.149,0,0,0,.1.021c-.161.16-.652.578-.736.875l-.13.11c-1.228,1.068-1.126,1.871.268.355a.229.229,0,0,0-.023.187l-.048.032c-.686.486-1.249,1.842.184.45-.149,1.017,1.42-.948,1.47-.935C63.5,130.889,67.5,128.784,70.9,128.5l.117-.014c.625-.082.92-.27.7-.685.77-.186.589-.571.225-.558.543-.362.054-.709-.261-.574.217-.609-.652-.2-.731-.288C70.5,125.677,70.383,126.266,70.308,126.084Zm9.469-37.739c-2.17-.807-8.579,1.609-8.066,4.808a1.494,1.494,0,0,0,2.018.741l.923-.629c1.606-1.092,3.054-2.05,4.779-3C80.37,89.79,80.774,88.786,79.777,88.345ZM67.432,83.591l.838-.554c4.522-3.005,10.915-7.558-.422-2.847-1.292.563-3.009.9-3.714,2.145C63.026,84.637,65.941,84.792,67.432,83.591Zm-.508-13.483c.363-1.4-4.152.243-5.467.675l-.2.077c-1.279.484-2.744.932-3.509,2.053-.9,1.548.918,1.869,2.041,1.169C62.092,72.553,64.618,71.4,66.924,70.108ZM55.442,63.594c2.542-2.818-4.26-.118-5.279.631l-.029.022a1.231,1.231,0,0,0,.108,2.058C52.274,66.344,53.77,64.624,55.442,63.594ZM43.877,60.507c4.04-2.948-1.282-1.546-3.131-.391C39.486,61.245,40.784,63.149,43.877,60.507Z" transform="translate(15 -51)"/>
      </g>
      <g id="head_mono_Bantu-Knots" data-name="head/mono/Bantu-Knots" transform="translate(90.866 38.365)">
        <path id="_-Background" data-name="ðŸŽ¨-Background" d="M140.532,119.528a106.039,106.039,0,0,0-1.364-14.425,14.646,14.646,0,0,0-2.759-6.289,25.209,25.209,0,0,0-4.63-4.315c-3.36-2.624-6.591-5.529-10.353-7.559a33.251,33.251,0,0,0-11.554-3.651,35.661,35.661,0,0,0-22.729,4.736,39.374,39.374,0,0,0-15.1,17.019,43.157,43.157,0,0,0-3.5,10.9,76.065,76.065,0,0,0-.683,13.579c.01,1.531,0,3.061-.079,4.589a13.844,13.844,0,0,0-.189,2.3,7.435,7.435,0,0,0-1.158,7.076,8.454,8.454,0,0,0,9.519,4.988,10.083,10.083,0,0,0,1.1,2.982,55.286,55.286,0,0,0,2.9,4.845,42.19,42.19,0,0,0,7.548,8.672,35.772,35.772,0,0,0,20.826,8.751A31.154,31.154,0,0,0,128.3,168a27.23,27.23,0,0,0,7.386-7.941,32.886,32.886,0,0,0,4.035-12.173c1.367-9.314,1.294-18.975.812-28.358Z" transform="translate(-53.523 -65.526)" fill="#fff"/>
        <path id="_-Ink-2" data-name="ðŸ–-Ink" d="M40.154,7.607c-.263-3.008,2.468-5.271,5-4.429a3.278,3.278,0,0,1,1.321.458,2.449,2.449,0,0,1,1.117,2.9,3.408,3.408,0,0,1,1.2,1.674,3.115,3.115,0,0,1-.01,1.99,3.394,3.394,0,0,1,1.535,2.334,3.563,3.563,0,0,1-.071,1.374,2.9,2.9,0,0,1,2.171,2.75,17.347,17.347,0,0,0,2.111.015,3.313,3.313,0,0,1,.411-.837,3.2,3.2,0,0,1,1.49-1.114l.08-.03v-.16a1.382,1.382,0,0,1-.181-1.838,1.312,1.312,0,0,1,.294-.3A6.935,6.935,0,0,1,56.8,11.5a1.189,1.189,0,0,1,.312-1.771,4.959,4.959,0,0,1,0-1.687,4.819,4.819,0,0,1,4.934-3.85,3.95,3.95,0,0,1,.837.125,7.536,7.536,0,0,1,1.662.375A.939.939,0,0,1,65.2,5.895a3.672,3.672,0,0,1,.237,4.165c-.033.054-.069.105-.1.157a1.5,1.5,0,0,1,.436.53,1.581,1.581,0,0,1-.217,1.749,1.083,1.083,0,0,1-.423.28l0,.046h0a9.927,9.927,0,0,1-.4,2.224,5.145,5.145,0,0,1,1.619,3.28c.339.032.677.069,1.015.108a1.4,1.4,0,0,1,.568-.895,3.725,3.725,0,0,1,.827-.482,3.649,3.649,0,0,1,1.047-1.963,4.252,4.252,0,0,1,.689-.538,4.391,4.391,0,0,1,.585-2.306A3.346,3.346,0,0,1,72.543,10.9a4.041,4.041,0,0,1,2.386-2,2.53,2.53,0,0,1,2.442.626l.147.131h0a2.364,2.364,0,0,1,.6,2.3,3.645,3.645,0,0,1-.534,1.124A2.592,2.592,0,0,1,76.5,15.851a7.129,7.129,0,0,1,.713,1.33,2.483,2.483,0,0,1-.661,2.508,3.688,3.688,0,0,1,.511,1.463,3.761,3.761,0,0,1,.82.144,2.914,2.914,0,0,1,.844-1.358,5.448,5.448,0,0,1,.65-1.005,2.763,2.763,0,0,1,1.435-.948,1.9,1.9,0,0,1,.306-.494,2.708,2.708,0,0,1,2.407-3.113,8.368,8.368,0,0,1,.4-1.056A2.257,2.257,0,0,1,85.615,12.1a2.958,2.958,0,0,1,2.666-1.924c3.169-.282,5.163,3.62,4.389,6.422a3.683,3.683,0,0,1-1.484,2.068,2.958,2.958,0,0,1-.567.286,2.5,2.5,0,0,1-.778.707,2.266,2.266,0,0,1-.226.118,2.708,2.708,0,0,1-1.9,2.591A2.731,2.731,0,0,1,87,24.558l-.042.041h0l-.086.078-.007.035a1.874,1.874,0,0,1-.113,1.65,4.767,4.767,0,0,0,.257,1.328,9.934,9.934,0,0,1,1.556,1.625,1.157,1.157,0,0,1,1.171-.255,1.5,1.5,0,0,1,.336-.074,3.038,3.038,0,0,1,.538-.005,2.347,2.347,0,0,1,.281-.341,2.231,2.231,0,0,1,2.7-.269,2.6,2.6,0,0,1,.525-.3c2.2-.941,3.639,1.891,3.853,3.656a1.5,1.5,0,0,1-1.537,1.607A1.765,1.765,0,0,1,95.1,34.48a1.694,1.694,0,0,1-1,1.732,1.539,1.539,0,0,1-.824.12l.012.171h0a1.215,1.215,0,0,1-.749,1.3,1.024,1.024,0,0,1-.589.7,56.965,56.965,0,0,1,2.619,7.822,94.617,94.617,0,0,1,2.409,13.19,103.706,103.706,0,0,1,.034,23.631A41.788,41.788,0,0,1,94.23,94.724a35.037,35.037,0,0,1-5.189,8.353,26.579,26.579,0,0,1-16.574,9.877,24.737,24.737,0,0,1-10.276-.614c-3.327-.943-6.873-2.56-8.969-5.432a2.2,2.2,0,0,1,2.98-3.026c1.562.769,2.966,1.82,4.554,2.554a19.769,19.769,0,0,0,4.525,1.386,21.144,21.144,0,0,0,9.427-.386,23.333,23.333,0,0,0,13.485-10.01c3.651-5.772,4.955-12.536,5.551-19.277a108.579,108.579,0,0,0-.281-22.214c-.429-3.648-1.09-7.264-1.873-10.85-.557-2.553-1.185-5.089-1.777-7.634q-.8-.779-1.554-1.612h-.015a1.185,1.185,0,0,1-.2.033c-2.968.23-6.184-.073-8.716-1.809a9.05,9.05,0,0,1-2.547-2.628,9.213,9.213,0,0,1-2.361-2.381q-.662-.738-1.258-1.539a16.814,16.814,0,0,1-2.107-4.253.619.619,0,0,1-.03-.1,1.823,1.823,0,0,1-.232-.6c-1.317-.159-2.64-.264-3.95-.327q-.7-.033-1.394-.055a6.4,6.4,0,0,1,.212,1.432,10.041,10.041,0,0,1,1.15.125,6.135,6.135,0,0,1,4.134,2.751,20.4,20.4,0,0,1,2.6,4.916,2.591,2.591,0,0,1-1,2.87,19.067,19.067,0,0,0-6.521,1.655.346.346,0,0,0-.16.165c-1.651.5-3.314.956-4.976,1.344a10.064,10.064,0,0,1-4.838.117,13.148,13.148,0,0,1-2.039-.735,1.8,1.8,0,0,1-1.141-.255c-.6-.348-1.2-.728-1.791-1.136a30.729,30.729,0,0,1-3.058-1.682l-.005-.008h0a12.225,12.225,0,0,0-3.153-2.693,4.064,4.064,0,0,1-.358-.682,3.325,3.325,0,0,1,.822-3.853,1.188,1.188,0,0,1,.452-.873q.356-.295.733-.561c-.052-.04-.105-.078-.158-.118-.1-.079-.2-.165-.3-.253-.758.422-1.523.835-2.306,1.2-.02.015-.039.03-.059.044-1.471.981-2.864,2.107-4.353,3.052-.357.226-.712.445-1.064.665q-.2.275-.386.559a5.62,5.62,0,0,1-.235.866,1.613,1.613,0,0,1,.461.611,6.72,6.72,0,0,1,1.3.676l.36.162h0a9.45,9.45,0,0,1,1.478-1,8.343,8.343,0,0,1,4.687,2.506c.088.1.174.2.256.3.079.065.159.134.239.2.13.142.251.282.362.418a.759.759,0,0,0,.408.273,11.176,11.176,0,0,1,1.98,2.412c.79,1.374.236,3.087-.342,4.436q-.142.33-.3.651c-1.106,1.513-2.155,3.068-3.2,4.624-.706.693-1.408,1.39-2.079,2.116a3.556,3.556,0,0,1-.352.213c-1.953,1.02-3.841-.128-5.7-.844L37,48.774c-1.917-.7-4.3-1.166-4.424-3.7a7.469,7.469,0,0,1,.03-1.057,38.731,38.731,0,0,1,1.616-3.731,2.386,2.386,0,0,1-.322-.446,3.749,3.749,0,0,1-.48-.8,35.266,35.266,0,0,1-2.883,5.107,2.67,2.67,0,0,1-2.25,1.137,1.955,1.955,0,0,1-1.124.2l.04.463c.035.386.075.772.134,1.151a6.341,6.341,0,0,1,2.4.513c2.2.885,4.328,2.11,6.454,3.172a13.464,13.464,0,0,1,3.276,1.744,1.941,1.941,0,0,1,.325,2.167c-.042.135-.088.269-.131.4l0,.044h0a9.474,9.474,0,0,0-1.5,3,12.057,12.057,0,0,0-1.21,3.1,20,20,0,0,0-.466,2.62l-.026.241-.014.028-.007.209h0a27.2,27.2,0,0,0,0,4.68q.054.645.135,1.29c-.24.761-1.377.867-1.967.4a18.683,18.683,0,0,0-2.039-1.4,4.235,4.235,0,0,1-3.16.157c-.077-.026-.15-.057-.224-.087a15.067,15.067,0,0,0-2.374.52l-.23.069a7.375,7.375,0,0,0-3.306,1.788,8.177,8.177,0,0,0-1.827,6.686c.324,2.217,1.591,4.751,3.874,5.4a4.4,4.4,0,0,0,2.85-.112,4.042,4.042,0,0,0,.932-.565,4.728,4.728,0,0,1,1.064-.754,4.219,4.219,0,0,1,1.246-.155,1.343,1.343,0,0,1,1.264.977,3,3,0,0,1-1.545,3.647c.538.827,1.042,1.691,1.575,2.472,1,1.46,2.046,2.871,3.135,4.259a39.756,39.756,0,0,0,3.609,4.041q.88.852,1.813,1.644l.344.289a2.3,2.3,0,0,1,1.068,1.853,1.117,1.117,0,0,1-.792,1.056c-1.649.453-3.378-1.742-4.452-2.868l-.085-.088a38.245,38.245,0,0,1-3.6-4.284,25.4,25.4,0,0,1-2.794-5.064,23.548,23.548,0,0,1-.987-2.727,9.548,9.548,0,0,1-4.236.633,8.336,8.336,0,0,1-2.878-.876,3.933,3.933,0,0,1-.705,1.09A5.4,5.4,0,0,1,18,89.766a3.543,3.543,0,0,1-3.749-3.353A4.054,4.054,0,0,1,15.91,83.1a3.1,3.1,0,0,1,2.118-1.965,12.641,12.641,0,0,1-.29-6.666,9.875,9.875,0,0,1,3.381-5.506l.1-.075-.041.022c-.4.227-.8.471-1.2.705l-.18.1c-1.779,1.02-3.84,1.9-5.911,1.351a3.593,3.593,0,0,1-.743-6.672,8.457,8.457,0,0,1,3.222-.924,2.98,2.98,0,0,1,.617-.61,2.632,2.632,0,0,1,1.084-2.011,2.376,2.376,0,0,1,2.167-.314,4.246,4.246,0,0,1,.873-.52,4.385,4.385,0,0,1,.836-.27c0-.228-.008-.457-.011-.686-.045-.213-.072-.436-.1-.668-.051-.009-.1-.017-.151-.028a4.908,4.908,0,0,1-1.959-.941,3.877,3.877,0,0,1-3.351.413,5.124,5.124,0,0,1-2.957-2.862,6.176,6.176,0,0,1-2.212-.834,2.529,2.529,0,0,1-3.065-1.481A2.455,2.455,0,0,1,9,49.937a.56.56,0,0,1,.682-.007,3.8,3.8,0,0,1,.17-.462c.027-.061.057-.12.087-.18a3.459,3.459,0,0,1,1.565-3.19,3.35,3.35,0,0,1,2.763-.27A4.252,4.252,0,0,1,16.188,44.8a3.889,3.889,0,0,1,3.818,1.1,4.105,4.105,0,0,1,.659-.137,2.857,2.857,0,0,1,.689-1.591,3.3,3.3,0,0,1,1.029-.744,3.881,3.881,0,0,1,.938-1.758,3.909,3.909,0,0,1-.627-.676,4.164,4.164,0,0,1-.595-.141,3.964,3.964,0,0,1-2.241-1.832,3.414,3.414,0,0,1-2.789-.448,3.684,3.684,0,0,1-1.457-1.892l-.769-.274h0A2.741,2.741,0,0,1,13.3,35.079a1.145,1.145,0,0,1-1.132-.133c-1.985-1.556-.629-4.134,1.5-4.646a3.354,3.354,0,0,1,2.291.228,3.714,3.714,0,0,1,1.762-.976,3.619,3.619,0,0,1,2.38.309l.191,0h0a3.315,3.315,0,0,1,2.862-.541,4.394,4.394,0,0,1,2.828,2.033,3.421,3.421,0,0,1,.657-.471,3.2,3.2,0,0,1,2.109-.352q.352-.51.724-1a2.661,2.661,0,0,1-1.014-2c-.178-.113-.351-.241-.516-.359a4.543,4.543,0,0,1-1.8-2.274,4.387,4.387,0,0,1-.194-1.5c-.087-.019-.173-.04-.259-.065-3.431-1-4.854-5.8-2.142-8.381,1.424-1.353,3.589-.587,5,.412a10.784,10.784,0,0,1,2.415,2.465c.032.007.064.009.1.017a4.1,4.1,0,0,1,2.366,1.712,3.96,3.96,0,0,1,3.1.747,3.813,3.813,0,0,1,1.393,1.9,27.193,27.193,0,0,1,2.853-1.3c.064-.156.131-.312.208-.467a2.887,2.887,0,0,1,.574-.783A4.5,4.5,0,0,1,40.9,18.7a4.31,4.31,0,0,1,.391-4.608A4.712,4.712,0,0,1,41,11.118a4.316,4.316,0,0,1,.166-.535A6.69,6.69,0,0,1,40.154,7.607ZM25.109,74.7a3.247,3.247,0,0,1,1.4-.284,9.146,9.146,0,0,1,1.55.265,9.584,9.584,0,0,1,3.3,1.7c1.4,1.063-.275,3.039-1.387,1.905l-.034-.035a11.19,11.19,0,0,0-2.525-2.015c-.476-.287-.967-.494-1.465-.736-.344-.167-.543-.439-.866-.613A.1.1,0,0,1,25.109,74.7Zm3.2-16.01a.651.651,0,0,0-.794.458.666.666,0,0,0,.416.793l.035.013a3.3,3.3,0,0,1,1.133.709l.069.067a.651.651,0,0,0,.913-.927A4.826,4.826,0,0,0,28.311,58.695ZM43.752,34.84c-.34-.754-1.424-.121-1.129.626l.015.035a2.444,2.444,0,0,1-.153,2.108l-.033.061c-.406.737.709,1.4,1.115.661A3.853,3.853,0,0,0,43.752,34.84Zm9.373-9.393-.015-.076c-.153-.828-1.4-.477-1.245.348a3.582,3.582,0,0,0,2.5,2.722c.786.279,1.123-.986.343-1.264a2.272,2.272,0,0,1-1.579-1.731Zm20.34-1.326-.219-.01h0l.167.224h0C73.429,24.263,73.446,24.192,73.465,24.121Z" transform="translate(-8 -3)"/>
      </g>
      <g id="Group_10826" data-name="Group 10826">
        <g id="head_mono_Shaved-3" data-name="head/mono/Shaved-3">
          <path id="_-Background-2" data-name="ðŸŽ¨-Background" d="M128.829,45.747c-11.558-3.444-51.3.086-52.288.832-1.608,1.357-9.432,5.663-10.649,6.646-11.008,11.846-.514,29.436-1.321,43.726.051,5.069-2.076,9.7-3.054,14.573a11.245,11.245,0,0,0,.99,7.493c2.306,4.1,7.177,4.931,11.138,6.584a25.4,25.4,0,0,1,5.5,3.42c11.366,10.209,17.693,17.2,34.278,14.9.085.8.786,1.594,1.656,1.235,2.036-.842,4.058-1.735,6.112-2.533a1.471,1.471,0,0,0,2.554.432l0,.007c3.8-3.131,6.22-7.413,8.016-12a50.745,50.745,0,0,0,3.072-8.245,1.467,1.467,0,0,0,0-.856,113.471,113.471,0,0,0,4.016-39.255,71.034,71.034,0,0,1-.575-8.206c.112-2.467,1.159-4.8,1.957-7.1C144.349,57.634,138.058,48.823,128.829,45.747Z" transform="translate(-46.166 -27.746)" fill="#fff"/>
          <path id="_-Ink-3" data-name="ðŸ–-Ink" d="M77.108-28.859l.123-.1c1.333-1.061,2.589-2.453,4.468-1.931a3.9,3.9,0,0,1,2.65,3.288q.7-.747,1.37-1.547A2.558,2.558,0,0,1,90-28a29.406,29.406,0,0,1,.056,11.226c-.108.564-.236,1.126-.385,1.681a30.626,30.626,0,0,0,2.242-3.22,1.351,1.351,0,0,1,2.5.689c.03.338.048.68.052,1.025A1.175,1.175,0,0,1,95.2-15.21,101.427,101.427,0,0,1,92.349-4.43,7.222,7.222,0,0,1,98.2-5.31c3.087,1.115,3.822,4.534,3.219,7.477a14.14,14.14,0,0,1-6.223,8.827c-.365.557-.726,1.119-1.07,1.692a13.206,13.206,0,0,1-.88,4.73A10.067,10.067,0,0,1,90,21.661a2.932,2.932,0,0,1-3,1.694l-.061-.013,0,0c.3,1.084.556,2.179.778,3.277,1.724,8.5.851,17.351-.721,25.805l-.05.27C85.538,60.219,83.9,68.01,80.7,75c-2.888,6.316-7.784,11.871-14.781,13.249C57.691,89.867,48.58,87.3,41.5,83.01c-2.566-1.554-.214-5.649,2.341-4.069a35.873,35.873,0,0,0,11.93,4.708c3.96.781,8.389,1.047,12.187-.573,5.289-2.256,8.432-7.767,10.421-12.955a86.593,86.593,0,0,0,2.866-9.4c1.053-4.08,2.034-8.186,2.771-12.338a66.013,66.013,0,0,0,.365-23.555,48.678,48.678,0,0,0-1.971-7.368,4.158,4.158,0,0,1-.376-.564,39.394,39.394,0,0,1-2.172-5.114c-.581-1.025-1.217-2.01-1.891-2.974a26.562,26.562,0,0,1-2.848-2.546A20.54,20.54,0,0,0,81.554-.194a.8.8,0,0,0-.219-1.1A22.034,22.034,0,0,1,76.6,2.977a22.942,22.942,0,0,1-2.9,2.129c-.729.146-1.465.247-2.179.329a24.477,24.477,0,0,1-6.1-.127C61.046,4.715,42.543-.458,34.744,1.553c-1.625.419-2.391,1.9-3.251,3.288a10.553,10.553,0,0,1-2.834,3.032l-.127.091A31.687,31.687,0,0,0,19.948,18.9c-2.43,5.7-4.763,22.8-3.689,22.946,2.81.386,4.366,1.887,6.655,3.5.151.105.063.391-.132.318a26.854,26.854,0,0,0-4.729-1.148,8.315,8.315,0,0,0-4.325.233,5.853,5.853,0,0,0-3.584,4.642A12.707,12.707,0,0,0,9.9,51.837v.239c0,2.595.478,5.471,2.334,7.386a5.164,5.164,0,0,0,2.979,1.514c1.226.167,1.982-.4,3.108-.687A1.619,1.619,0,0,1,20.5,61.95c.275.244.54.5.8.762h0a2.09,2.09,0,0,1,.486.312,3.373,3.373,0,0,1,.614.689,1.657,1.657,0,0,1,1,.656q.888,1.162,1.647,2.357c.91.981,1.816,1.964,2.708,2.963,1.075,1.2,2.121,2.428,3.173,3.648l.527.609q.853.984,1.7,1.971l.169.193A3.185,3.185,0,0,1,34.4,78.171a1.038,1.038,0,0,1-1.3,1c-.937-.245-1.371-.992-1.932-1.732l-.847-1.1h0l-.8-1.04c-.4-.518-.8-1.034-1.193-1.549a2.208,2.208,0,0,1-2.012,1.758l-.211.008c-2.122.071-4.7-.232-6.315-1.751a6.519,6.519,0,0,1-2.743,1.681,5.184,5.184,0,0,1-6.137-2.77,9.293,9.293,0,0,1-6.364.4,1.783,1.783,0,0,1-.8-2.888l.039-.042.01-.011a1.491,1.491,0,0,1-.291-.834c-.019-.38.253-.782.2-1.137-.214-1.352-2.385-.35-3.075-.058a1.046,1.046,0,0,1-.371.086c-1.067.315-2.227-1.108-1.668-2.282,1.252-2.625,2.473-5.269,3.739-7.89-.16.055-.324.105-.486.147-2.276.593-5.036-.544-4.511-3.329a1.854,1.854,0,0,1,1.284-1.3c1.128-.4,1.976-.11,2.845-.478a12.416,12.416,0,0,0,2.862-1.883,15.119,15.119,0,0,0,2.414-2.539A10,10,0,0,1,8.287,44.9c.048-.066.1-.132.145-.2C3.441,43.494,4.095,38.511,1.894,34.1l-.186-.366c-1.5-2.954-2.8-6.284-2.045-9.648a8.18,8.18,0,0,1,.579-1.694c-.4.05-.8.1-1.2.143a1.566,1.566,0,0,1-1.487-1.982q.289-.695.633-1.345A15.206,15.206,0,0,1,.52,15.932c-1.543-.042-3.089-.042-4.615-.222-1.442-.169-2.957-.97-2.914-2.658.046-1.609,1.436-2.827,2.725-3.612a15.614,15.614,0,0,1,4.7-4.2,8.963,8.963,0,0,0-1.1-.181l-.186-.017a8.311,8.311,0,0,1-2.916-.814,1.424,1.424,0,0,1-.279-2.2C-2.278.08.392.717,2.47,1.838A5.611,5.611,0,0,0,1.994,1.3l-.105-.1C.868.233,2.4-1.316,3.417-.354A7.271,7.271,0,0,1,4.283.63L4.308.579h0A22.549,22.549,0,0,1,9.943-6.652l.547-.461c4.194-3.557,5.488-5.243,11.065-4.719a11.51,11.51,0,0,1-.161-3.137L21.4-15.1c.214-3.577,1.513-7.859,4.95-9.466a1.155,1.155,0,0,1,1.667,1.3,17.72,17.72,0,0,1-.623,2.146A23.845,23.845,0,0,1,29.8-23.354c3.471-2.809,8.11-5.226,12.673-4.435,2.507.437,4.474,2.034,6.573,3.369a16.345,16.345,0,0,0,6.936,2.427,34.363,34.363,0,0,0,10.33-.643A66.589,66.589,0,0,0,73.157-26.2,37.846,37.846,0,0,0,77.108-28.859ZM15.82,48.839a4.672,4.672,0,0,1,2.283,0,4.839,4.839,0,0,1,3.761,4.115,2.115,2.115,0,0,1-1.52,2.026,2.138,2.138,0,0,1-2.334-.966,17.634,17.634,0,0,0-1.481-2.43l-.169-.167c-.623-.6-1.565-1.387-2.429-1.246-.128.02-.223-.156-.093-.226A8.177,8.177,0,0,1,15.82,48.839Zm9.824-9.54a.388.388,0,0,1,.617.446l-.012.029a2.729,2.729,0,0,0,.549,2.55c.413.612-.367,1.194-.916.931C24.338,42.51,24.418,40.309,25.644,39.3Zm5.642-25.452a.162.162,0,0,1,.311-.088,25.245,25.245,0,0,1,1.295,9.992l-.018.319c-.2,3.458-.8,7.119-2.861,9.959a.714.714,0,0,1-1.3-.555c.633-3.3,1.85-6.439,2.324-9.782A33.651,33.651,0,0,0,31.286,13.847ZM20.526,26.188c.169-.906,1.541-1.839,2.235-.928.233.309-.041.689-.322.8-.264.105-.5-.04-.759.013a.687.687,0,0,0-.465.358l-.021.04C20.99,26.869,20.454,26.574,20.526,26.188Zm-.562-7.221a1.909,1.909,0,0,1,2.6-.939.4.4,0,0,1-.195.729l-.231-.009a2.888,2.888,0,0,0-1.966.433C20.041,19.279,19.9,19.093,19.964,18.968ZM21.7-6.325c-2.764-1.262-5.514-.123-7.771,1.654a.729.729,0,0,0-.3.491,28.755,28.755,0,0,1,4.645-1.309A25.186,25.186,0,0,1,22.061-6,.76.76,0,0,0,21.7-6.325Z" transform="translate(7.009 31)"/>
        </g>
        <g id="face_Calm" data-name="face/Calm" transform="translate(45.656 57.887)">
          <path id="_-Ink-4" data-name="ðŸ–-Ink" d="M83.222,101.982a10.015,10.015,0,0,1-5.688.031,10.189,10.189,0,0,1-4.7-3.1,7,7,0,0,1-1.8-4.6.758.758,0,0,1,.177-.482.825.825,0,0,1,.441-.269.8.8,0,0,1,.515.046.688.688,0,0,1,.34.339c.192.257.384.509.576.755,1.546,1.939,3.044,3.388,5.37,3.908a6.447,6.447,0,0,0,3.678-.273,7.879,7.879,0,0,0,3.233-2.307,1.718,1.718,0,0,1,1.321-.663A2.013,2.013,0,0,1,88.1,96a2.237,2.237,0,0,1,.656,1.452,1.951,1.951,0,0,1-.544,1.427A11.029,11.029,0,0,1,83.222,101.982ZM83.166,77.7c1.885,1.164,4.758,3.877,2.73,6.762-2.387,2.544-5.825-.373-7.519-1.692-1.571-1.022-3.335,1.607-1.878,2.8,12.24,9.2,17.207-7.566,7.62-9.238C83.064,76.147,82.672,77.339,83.166,77.7Zm-17.637-5.12a2.077,2.077,0,0,0-2.109-.164A6.918,6.918,0,0,0,60.966,74.9a4.984,4.984,0,0,0-.8,2.9.662.662,0,0,1-.21.554.811.811,0,0,1-.455.205,1.166,1.166,0,0,1-.48-.044.717.717,0,0,1-.474-.415,6.129,6.129,0,0,1,.291-4.443,9.026,9.026,0,0,1,3.2-4.074A5.275,5.275,0,0,1,67.2,69.56a9.609,9.609,0,0,1,3.112,3.3c.183.271.365.54.553.8a1.642,1.642,0,0,1,.268,1.505,1.923,1.923,0,0,1-3.637.057,5.852,5.852,0,0,0-1.967-2.649ZM96.305,74.77a1.412,1.412,0,0,1-1.2.146,1.7,1.7,0,0,1-.7-.426,1.428,1.428,0,0,1-.391-.718,2.95,2.95,0,0,0-1.017-1.718,2.018,2.018,0,0,0-1.622-.433,3.1,3.1,0,0,0-1.746,1.063,4.009,4.009,0,0,0-.377.561,3.963,3.963,0,0,1-.725.966.7.7,0,0,1-.449.172.667.667,0,0,1-.2-.032,2.143,2.143,0,0,1-.773-1.7,3.144,3.144,0,0,1,.567-1.584,6.174,6.174,0,0,1,3.3-2.38,4.848,4.848,0,0,1,3.859.845A5.56,5.56,0,0,1,97.057,73a1.879,1.879,0,0,1-.091,1.026A1.425,1.425,0,0,1,96.305,74.77ZM68.58,59.925a4.3,4.3,0,0,1-2.807,1.062,13.034,13.034,0,0,0-1.427.214A13.3,13.3,0,0,0,60.9,62.478,12.772,12.772,0,0,0,57.668,64.8c-.21.228-.407.467-.6.707-.18.218-.354.429-.537.632-.21.233-.41.477-.609.721a3.125,3.125,0,0,0-.172.309c-.037.079-.081.168-.13.262-.068.13-.147.272-.23.4-.138.236-.212.3-.277.33a.563.563,0,0,1-.305.059.508.508,0,0,1-.264-.13A1.985,1.985,0,0,1,54,66.49,6.992,6.992,0,0,1,54.7,63.8a14.542,14.542,0,0,1,3.051-4.258,14.81,14.81,0,0,1,4.8-2.967,9.616,9.616,0,0,1,3.632-.761,3.562,3.562,0,0,1,2.406.961,2.145,2.145,0,0,1,.628,1.56A2.246,2.246,0,0,1,68.58,59.925Zm29.414,7.52a.458.458,0,0,1-.207.185.472.472,0,0,1-.272.033.48.48,0,0,1-.246-.121.468.468,0,0,1-.138-.242,7.389,7.389,0,0,0-3.906-5.466,16.32,16.32,0,0,0-3.639-1.243c-.355-.085-.731-.141-1.109-.2a4.545,4.545,0,0,1-3.152-1.35,2.621,2.621,0,0,1-.551-2.021,2.147,2.147,0,0,1,1.151-1.592c1.681-.882,3.77-.017,5.467.721l.37.16a12.7,12.7,0,0,1,4.419,2.994,9.768,9.768,0,0,1,2.271,4.261A5.193,5.193,0,0,1,97.993,67.445Z" transform="translate(-54 -55.059)"/>
        </g>
      </g>
      <g id="Group_10827" data-name="Group 10827" transform="translate(267.183 8.848)">
        <g id="head_mono_Short-3" data-name="head/mono/Short-3" transform="translate(0)">
          <path id="_-Background-3" data-name="ðŸŽ¨-Background" d="M54.278,178.738c1.561-11.436,5.132-22.539,5.644-34.146q.457-7.45.915-14.9a2.975,2.975,0,0,1,5.6-1.4c3.446-3.88,9.617-3.309,14.325-3.191,27.714,1,54.051,20.022,63.565,46.549a2.583,2.583,0,0,1-.1,1.908c4.434,15.014-11.248,24.682-21.943,31.376a48.716,48.716,0,0,1-15.2,11.172,52.659,52.659,0,0,1-21.318,5.1,2.7,2.7,0,0,1-2.688-2.647c-2.335-.552-6.331.085-7.566-2.344C61.434,210,52.258,194.26,54.278,178.738Z" transform="translate(-47.635 -110.593)" fill="#fff"/>
          <path id="_-Ink-5" data-name="ðŸ–-Ink" d="M25.232,95.59c.04-.371-.487-.382-.6-.082-.892,2.469-1.818,4.92-2.525,7.452-.682,2.439-1.173,4.934-1.67,7.418q-1.237,6.184-2.12,12.442a4.029,4.029,0,0,0-4.436-.311,1.876,1.876,0,0,0-.828,2.066,17,17,0,0,0,.515,1.773,4.668,4.668,0,0,0-1.079,1.434,5.047,5.047,0,0,0,.156,4.4c-.049.083-.1.167-.142.256-.923,1.82-.429,3.449.245,5.225.5,1.329.223,2.824,1.312,3.827a10.216,10.216,0,0,0,1.774,3.421,2.232,2.232,0,0,0,.8.836,38.407,38.407,0,0,0,.668,5.817c1.48,7.476,6.177,14.138,11.992,18.836a38.271,38.271,0,0,0,19.583,8.233,35.168,35.168,0,0,0,10.48-.321l.433-.078c3.2-.59,7.082-1.567,9.3-4.021,1.165-1.291.484-4.131-1.576-3.863a12.125,12.125,0,0,0-3.069.728c-.8.319-1.6.626-2.427.887a28.43,28.43,0,0,1-4.842,1.1,31.875,31.875,0,0,1-10.321-.346,35.111,35.111,0,0,1-16.73-8.321,27.28,27.28,0,0,1-9.04-18.764c-.519-8.237.417-16.673,1.2-24.867q.607-6.394,1.536-12.753C24.423,103.88,24.785,99.747,25.232,95.59Zm47.836-26.6-.262-.041C62.4,67.343,51.452,67.457,41.671,71.817a35.539,35.539,0,0,0-5.437,3.015c-1.238-.131-2.482-.238-3.7-.255A2.951,2.951,0,0,0,29.3,76.948a5.3,5.3,0,0,0-3.617,1.8,3.5,3.5,0,0,0-.665,1.41,11.28,11.28,0,0,0-2.579.968,2.744,2.744,0,0,0-1.225,3.056q.122.367.278.716l.08.174-.047.066a2.84,2.84,0,0,0,.981,3.794,9.3,9.3,0,0,0,3,1.274c-.087.43-.167.862-.232,1.3-.025.177.2.3.3.129a26.39,26.39,0,0,1-.949,2.513c-.224.518.493.978.767.455.727-1.4,1.178-2.826,1.837-4.264a5.066,5.066,0,0,0,1.8-.452,2.009,2.009,0,0,0,.883-.832c.013.015.02.033.033.051,1.964,2.565,5.8,3.465,8.77,4.277a67.509,67.509,0,0,0,9.721,1.807c5.716.69,11.477.819,17.219,1.087.38.017.76.037,1.14.056a15.714,15.714,0,0,0,8.419,3.761,15.088,15.088,0,0,0,5.16-.257,5.216,5.216,0,0,0,2.309,1.394,10.691,10.691,0,0,0,4.724,8.273l-.049.2c-.683,2.827-.674,5.918,1.774,7.883a5.948,5.948,0,0,0,1.075.683l-.084.2c-1.265,3-1.669,6.317.709,8.807a2.177,2.177,0,0,0,3.379-.388l.035-.059c.04-.069.083-.135.125-.2a.613.613,0,0,0,.309.31c.9.395,1.265.1,2.089-.3a12.713,12.713,0,0,1,2.387-.882,13.6,13.6,0,0,1,2.009-.377c4.247,1.648,6.99,6.7,6.338,11.447a7.758,7.758,0,0,1-4.185,6.213,6.573,6.573,0,0,1-3.47.508c-1.561-.215-2.761-1.213-4.376-.642a1.533,1.533,0,0,0-1.07,1.428,3.076,3.076,0,0,0,.966,2.517,37.831,37.831,0,0,0-3.03,3.359c-1.23,1.332-2.477,2.664-3.806,3.892a33.91,33.91,0,0,1-4,3.208l-.149.1c-1.772,1.171-4,2.211-4.088,4.66a2.09,2.09,0,0,0,1.011,1.792c2.233,1.405,4.663-.44,6.413-1.792q1.057-.816,2.049-1.691a2.876,2.876,0,0,0,1.421-.263,10.1,10.1,0,0,0,.943-.485,3.3,3.3,0,0,0,2.728-.5,7.422,7.422,0,0,0,3.323.088,5.53,5.53,0,0,0,2.427-1.244,5.163,5.163,0,0,0,4.394-.5,4.605,4.605,0,0,0,1.85-2.141,1.944,1.944,0,0,0,.306-.994v-.141a4.482,4.482,0,0,0,3.386-1.377,4.792,4.792,0,0,0,1.337-3.162,6.127,6.127,0,0,0,3.2-2.2,6.48,6.48,0,0,0,.876-6.2c.048-.109.09-.22.127-.331A9.343,9.343,0,0,0,117.9,135.4a5.16,5.16,0,0,0-.107-.9,3.669,3.669,0,0,0,2.014-2.988,4,4,0,0,0-.973-2.851,5.058,5.058,0,0,0,.371-2.51,4.928,4.928,0,0,0-.857-2.287,3.569,3.569,0,0,0-.04-.708,6.718,6.718,0,0,0,.1-.725c.212-2.71-1.63-5.081-3.873-6.332a12.434,12.434,0,0,0-1.865-.824,6.145,6.145,0,0,1-1.568-.528c.017-.013-.152-.235-.182-.354-.032-.147-.067-.291-.085-.44a15.18,15.18,0,0,1,0-1.9,69.785,69.785,0,0,0-.329-8.566,37.815,37.815,0,0,0-4.551-15.024,33.939,33.939,0,0,0-8.738-9.817C90.283,73.267,81.626,70.342,73.068,68.991ZM105.216,134.5c.9-2.2-3.348-2.225-4.472-2.121l-.033,0c-2.53.256-6.485,1.491-7.521,4.083a1.528,1.528,0,0,0,1.855,1.883,7.946,7.946,0,0,0,2.348-1.736c.209-.17.427-.329.649-.483a2.4,2.4,0,0,1-.564.988l-.061.059c-1.224,1.117.965,2.872,1.778,1.393a3.971,3.971,0,0,0,.471-2.544,2.871,2.871,0,0,0-.211-.735c.081-.041.16-.085.242-.125l.146-.069c.974-.449,5.132-2.211,5.1-.635C104.937,134.635,105.16,134.635,105.216,134.5Z" transform="translate(-12 -68.001)"/>
        </g>
        <g id="face_Awe" data-name="face/Awe" transform="translate(11.848 42.269)">
          <path id="_-Ink-6" data-name="ðŸ–-Ink" d="M75.438,75.3a.167.167,0,0,0-.2-.026c-1.094.7-1.223,3.064-1.236,4.428-.453.12-.9.256-1.322.351-.9.2-1.8.378-2.7.563l-.675.141a52.217,52.217,0,0,1-6.855,1.019,32.76,32.76,0,0,1-6.754-.055,17.789,17.789,0,0,1-2.829-.615,21.317,21.317,0,0,1-2.976-1.359c-2.542-1.2-4.672,2.32-2.226,3.866a16.97,16.97,0,0,0,7.389,2.01,30.162,30.162,0,0,0,7.393-.418,39.361,39.361,0,0,0,7.748-2.05,26.833,26.833,0,0,0,3.091-1.434l.273-.148c.167-.091.34-.183.515-.276a18.188,18.188,0,0,0,1.383,4.924l.015-.028a2.155,2.155,0,0,0,2.936,1.466,2.242,2.242,0,0,0,.746-3.543l-.042-.056a16.648,16.648,0,0,1-2.242-4.617c-.288-.818-.555-1.655-.787-2.491C75.913,76.345,75.907,75.737,75.438,75.3ZM36.547,61.751a8.833,8.833,0,0,0,5.563,5.788c2.693.921,5.689.585,8.442.087.6-.109,1.213-.229,1.822-.37a6.766,6.766,0,0,0-1.361,1.222,5.016,5.016,0,0,0-1.36,2.281,2.1,2.1,0,0,0,.587,2,6.179,6.179,0,0,0,2.993,1.39,15.694,15.694,0,0,0,6.9-.091,1.737,1.737,0,0,0,1.2-.866,2.345,2.345,0,0,0,.137-1.7,2.3,2.3,0,0,0-.976-1.388,1.708,1.708,0,0,0-1.469-.114,11.63,11.63,0,0,1-3.477.67,13.173,13.173,0,0,1-1.532-.051q-.432-.04-.861-.111.252-.341.491-.693c.189-.277.372-.557.548-.842A18.062,18.062,0,0,0,55.5,66.4c.119-.287.229-.575.335-.863l.046-.125.1-.084a6.838,6.838,0,0,0,1.765-2.4,13.643,13.643,0,0,0,.268-8.642,10.949,10.949,0,0,0-3.47-5.6,5.666,5.666,0,0,0-.713-1.021,8.464,8.464,0,0,0-3.569-2.092,9.645,9.645,0,0,0-8.484,1.491A14.17,14.17,0,0,0,36.785,53.8,12.363,12.363,0,0,0,36.547,61.751ZM75.895,45.069a16.222,16.222,0,0,0-9.719,3.061c-2.667,1.972-4.761,4.884-4.758,8.352,0,3.377,1.78,6.7,3.752,9.311a10.467,10.467,0,0,0,8.742,4.383,42.968,42.968,0,0,0,5.671-.386l1.007-.129a18.944,18.944,0,0,0,4.1-.88c6.256-2.3,6.449-10.618,4.133-15.932-1.789-4.1-6.317-8.1-10.831-7.624A15.88,15.88,0,0,0,75.895,45.069Zm-5.8,3.91c4.3-1.961,9.529-1.374,13.7.719a14.657,14.657,0,0,1,3.35,6.258,12.365,12.365,0,0,1-.339,6.89c-.958,2.676-3.318,3.339-5.864,3.75l-.988.158-.415.064a23.058,23.058,0,0,1-7.64.2c-2.679-.529-4.381-2.727-5.72-4.98l-.063-.106c-1.391-2.361-2.555-5.232-1.388-7.937A10.464,10.464,0,0,1,70.093,48.979ZM44.7,49.662a5.719,5.719,0,0,1,4.755-.426A6.8,6.8,0,0,1,51.308,50.3l.229.176a7.8,7.8,0,0,1,1.9,1.574l.068.1a1.2,1.2,0,0,0,1.162.514,13.166,13.166,0,0,1,.706,4.375v.2l0,.2c-.032,1.75-.333,3.89-1.688,5.063-1.237,1.069-3.11,1.326-4.781,1.475l-1.289.109-.342.026a7.816,7.816,0,0,1-5.17-.977,5.538,5.538,0,0,1-2.05-4.034A9.913,9.913,0,0,1,44.7,49.662ZM76.837,50a6.8,6.8,0,0,0-7.222.619,1.982,1.982,0,0,1,.529.17,1.714,1.714,0,0,1,.846,1.19,1.055,1.055,0,0,1-.706,1.263,1.706,1.706,0,0,1-1.471-.068,1.309,1.309,0,0,1-.5-.607l-.015-.037-.019-.027-.007-.013s.007,0,.02.025c-.013-.032-.026-.063-.038-.1a1.244,1.244,0,0,1-.051-.117c-.026-.022-.049-.047-.072-.072a6.556,6.556,0,0,0-.833,1.929c-1.166,4.593,3.617,9.36,7.89,9.837a6.611,6.611,0,0,0,4.31-.98c-.011-.015-.024-.029-.034-.045a1.088,1.088,0,0,1-1.255-.689,2.673,2.673,0,0,1,1.534-3.541,2.713,2.713,0,0,1,2.682.711,7.934,7.934,0,0,0,.468-4.28,6.379,6.379,0,0,0-3.532-4.849A3.774,3.774,0,0,0,76.837,50ZM51.888,52.833l-.072-.115c-.732-1.144-2.132-2.547-3.582-2.161a2.136,2.136,0,0,0-.583.255,3.512,3.512,0,0,0-2.316.5l.019.048a.215.215,0,0,1,.008.025,1.142,1.142,0,0,1-.1.791,1.659,1.659,0,0,1-.6.7,1.167,1.167,0,0,1-.612.162,1.206,1.206,0,0,1-.809-.357.987.987,0,0,1-.254-.457,3.132,3.132,0,0,0-.321.364,6.326,6.326,0,0,0,.524,7.854c.08.081.164.153.248.228A4.894,4.894,0,0,0,46.948,62.7a5.228,5.228,0,0,0,3.8-1.115.817.817,0,0,1-.232-.184,2.515,2.515,0,0,1-.437-.663q-.041-.1-.079-.192l-.037-.1a1.253,1.253,0,0,1-.047-.153l0,.007-.02-.047a1.064,1.064,0,0,1,.335-1.323l.049-.031a1.015,1.015,0,0,1,.51-.128,1.656,1.656,0,0,1,1.774-.532l.022-.183c0-.031.006-.061.008-.092A6.42,6.42,0,0,0,51.888,52.833ZM73.831,36.084l-.164-.026a2.649,2.649,0,0,0-2.891,1.1,1.805,1.805,0,0,0,0,1.812c.859,1.694,3.222,1.344,4.814,1.681a22.61,22.61,0,0,1,4.559,1.426,29.577,29.577,0,0,1,4.235,2.346c1.228.811,2.343,2.031,3.746,2.5a.108.108,0,0,0,.135-.1c-.1-1.62-1.433-3.108-2.466-4.262A19.412,19.412,0,0,0,81.639,39.1a22.408,22.408,0,0,0-5-2.33A20.4,20.4,0,0,0,73.831,36.084Zm-18.9,2.2c-1.562-2.32-5.446-1.875-7.738-1.255a16.815,16.815,0,0,0-8,4.622,2.086,2.086,0,0,0,2.925,2.97l.542-.456L43,43.877a22.058,22.058,0,0,1,5-3.323,34.839,34.839,0,0,1,6.835-2.039A.158.158,0,0,0,54.927,38.285Z" transform="translate(-36 -36)"/>
        </g>
      </g>
      <g id="face_Loving-Grin-2" data-name="face/Loving-Grin-2" transform="translate(130.45 81.068)">
        <path id="_-Ink-7" data-name="ðŸ–-Ink" d="M75.371,78.072a30.154,30.154,0,0,1,5.488.064c3.021.449,6.08,2.629,6.07,6.018C86.913,89.839,80.6,91.99,76.1,92.732l-.5.082c-5.415.88-11.871,1.677-16.729-1.441a6.25,6.25,0,0,1-3.071-6.739,7.856,7.856,0,0,1,5.326-5.389c2.892-.962,5.884-.468,8.827-.072l.642.084c.685-.222,1.357-.521,2.044-.726A10.593,10.593,0,0,1,75.371,78.072Zm-.665,7.287-2.837.377h0q-1.593.212-3.186.409a35.858,35.858,0,0,1,.111,4.455,39.266,39.266,0,0,0,5.716-.614C74.634,88.447,74.707,86.9,74.706,85.358Zm-8.39,1.092q-3.867.428-7.745.757a5.8,5.8,0,0,0,3.221,2.278,17.341,17.341,0,0,0,4.03.9A37.779,37.779,0,0,0,66.316,86.45Zm18.715-2.184c-1.949.325-3.957.466-5.9.714l-2.272.29h0q.35,2.106.521,4.238l.354-.07a14.971,14.971,0,0,0,4.6-1.581l.119-.071C83.581,87.1,85.068,85.723,85.032,84.266Zm-18.5-2.184a30.844,30.844,0,0,0-3.85.413c-1.795.4-3.954,1.406-4.293,3.457a2.235,2.235,0,0,0,.038.935q3.985-.767,7.985-1.418C66.476,84.339,66.509,83.208,66.531,82.082Zm6.9-.655-1.746.154h0c-1.287.114-2.575.151-3.863.248a21.322,21.322,0,0,1,.687,3.092q1.588-.249,3.179-.486l3.018-.448h0l0-.774c0-.52-.01-1.045-.029-1.57l-.126-.01h0A9.045,9.045,0,0,1,73.431,81.427Zm10.74,1.219c-1.206-1.1-3.465-1.024-4.908-.979-1.082.034-2.179.148-3.267.147.2.664.4,1.331.556,2.016l2.325-.344h0C80.626,83.226,82.4,82.87,84.172,82.645ZM75.99,67.486c1.625,1,4.1,3.34,2.352,5.826-2.057,2.192-5.019-.321-6.478-1.458-1.353-.881-2.874,1.384-1.618,2.413,10.546,7.928,14.826-6.519,6.566-7.96C75.9,66.148,75.565,67.175,75.99,67.486ZM91.9,61.9c-.556,3.687-6.265,8.829-7.04,8.829s-7.408-6.542-7.408-9.452,2.866-6.817,7.408-1.9C87.447,56.09,92.459,58.208,91.9,61.9ZM66.54,58.618A5.392,5.392,0,0,1,66,64.9c-1.21,1.607-5.28,5.2-5.918,5.3-.786.114-4.382-4.015-5.214-4.708s-3.138-2.921-2.591-4.984c.527-1.985,3.346-5.342,7.462-1.888C61.053,55.323,65.326,56.819,66.54,58.618ZM53.164,52.206c2.108-2.4,6.574-4.93,9.035-1.688a1.647,1.647,0,0,1-.96,2.4c-1.136.265-2.284.1-3.4.433a10.592,10.592,0,0,0-2.878,1.508A18.051,18.051,0,0,0,52.2,57.182c-.5.52-1.137,1.751-1.912,1.774s.264-2.426.35-2.638A14.351,14.351,0,0,1,53.164,52.206ZM78.682,46.34a4.953,4.953,0,0,1,3.621.021l.526.148a12.394,12.394,0,0,1,3.81,1.612l.088.063c1.405,1.024,3.554,3.221,2.529,5.129a.245.245,0,0,1-.331.088c-1.322-.588-2.3-1.762-3.707-2.253l-.259-.09a13.659,13.659,0,0,0-4.512-.911,1.962,1.962,0,0,1-2.69-1.215l-.012-.062-.023-.132A2.176,2.176,0,0,1,78.682,46.34Z" transform="translate(-50 -46)"/>
      </g>
      <g id="face_Monster" data-name="face/Monster" transform="translate(194.97 71.956)">
        <path id="_-Ink-8" data-name="ðŸ–-Ink" d="M85.151,87.656c-2.083-.408-4.676.481-6.753.871l-.155.028c-2.52.447-5.034.987-7.581,1.251a33.674,33.674,0,0,1-7.348.014,23.31,23.31,0,0,1-3.461-.68q-.728-.2-1.443-.447l-.054-.021c-.349-.147-1.295-.7-1.283-.391a2.01,2.01,0,0,0-2.8-.242,1.422,1.422,0,0,0-1.957.454c-.71,1.019-.479,2.214-.387,3.4l.008.1c.078,1.115.2,2.222.344,3.328l.065.474c.229,1.637.292,4.336,2.245,4.872,1.545.425,2.958-1.189,3.954-2.47l.545-.709a15.86,15.86,0,0,0,1.7-2.633c.215-.43.423-.871.6-1.317.023-.056.039-.107.057-.158a32.438,32.438,0,0,0,8.669-.049,42.612,42.612,0,0,0,5.374-1.068l.8,1.461c.932,1.7,1.876,3.4,2.87,5.067l.077.127c.93,1.5,2.486,3.006,4.327,1.881,1.647-1.007,1.717-3.3,1.891-5.006.116-1.142.21-2.291.255-3.439l.016-.492a8.815,8.815,0,0,0-.213-3.444c-.061-.152-.276-.268-.405-.109-.881,1.087-1.147,2.771-1.527,4.105a36.645,36.645,0,0,0-1.257,4.644l-.061-.109h0c-.217-.418-.438-.834-.66-1.249l-.667-1.246q-.9-1.687-1.821-3.357c.7-.268,1.4-.555,2.088-.847l1.571-.667a7.418,7.418,0,0,0,2.486-1.519A.249.249,0,0,0,85.151,87.656Zm-29.8,4.109a24.187,24.187,0,0,0,4.778,1.405c-.105.109-.21.219-.308.334-.383.451-.79.883-1.2,1.311l-.246.256a16.048,16.048,0,0,1-2.529,2.354l-.052-.282c-.009-.049-.015-.091-.019-.124l-.1-.928q-.025-.232-.048-.464c-.083-.837-.149-1.675-.217-2.513C55.376,92.672,55.368,92.219,55.356,91.765ZM73.669,37.844a11.363,11.363,0,0,0-11.235,1.571c-3.248,2.471-4.669,6.488-4.857,10.5-2.569-2.227-6.269-.541-8.433,1.546a10.886,10.886,0,0,0-3.178,9.492,9.492,9.492,0,0,0,6.345,7.493,8.825,8.825,0,0,0,4.949.045,9.167,9.167,0,0,0,1.819-.729c-.035.143-.071.286-.1.429-.8,3.421-1.247,7.267-.053,10.65,1.92,5.437,8.739,8.48,13,3.654a11.513,11.513,0,0,0,2.87-7.444c-.053-1.357-.81-2.927-2.374-2.835A1.614,1.614,0,0,0,70.939,74.4l.019.063c.657,2.084-.465,5.1-2.09,6.517-2.493,2.18-5.914.283-7.277-2.273-1.589-2.979-1.4-6.8-.887-10.039a41.469,41.469,0,0,1,2.791-9.037c.125.023.252.044.382.062,2.348.323,7.124.445,9.718-1.281a11.691,11.691,0,0,0,1.759,7.665,9.734,9.734,0,0,0,7.078,4.253,24.727,24.727,0,0,0,8.9-.2c5.949-1.45,8.047-8.907,6.248-14.29a10.613,10.613,0,0,0-7.335-6.772A9.638,9.638,0,0,0,84.3,47.749a11.525,11.525,0,0,0-7.782,3.776,11.907,11.907,0,0,0-1.842,2.885,1.41,1.41,0,0,0-.556-.274,1.551,1.551,0,0,0-.937.019,2.011,2.011,0,0,0-.529.392l-.317.378a3.534,3.534,0,0,1-1.45,1.131,15.382,15.382,0,0,1-6.594.807c-5.228-.415-4.57-7.447-3.282-11.059a9.4,9.4,0,0,1,10.346-6.181,10.031,10.031,0,0,1,5.134,2.709c1.562,1.507,2.23,3.327,3.167,5.234a.149.149,0,0,0,.271-.036C80.7,43.508,77.048,39.309,73.669,37.844Zm27.847,32.423c.159-.189-.05-.522-.277-.365a12.152,12.152,0,0,1-5.534,2.2,10.723,10.723,0,0,1-2.843-.035,5.252,5.252,0,0,0-2.328-.15.571.571,0,0,0-.244.937c1.211,1.463,4.192,1.072,5.817.68A10.053,10.053,0,0,0,101.516,70.267ZM45.437,67.6a.971.971,0,0,0-1.308,1.328c1.242,2.113,4.843,2.285,6.931,1.779a.151.151,0,0,0-.039-.295,5.824,5.824,0,0,1-3.32-.84C46.818,69.024,46.291,68.132,45.437,67.6Zm39.92-16.888h.164c1.91.031,3.659.771,5.5,1.161a.794.794,0,0,0,.444-.035,8.989,8.989,0,0,1,4,7.046,9.981,9.981,0,0,1-1.65,6.331c-1.448,2.032-3.781,2.346-6.078,2.406l-.233.005c-4.343.086-9.121-.174-10.669-5.1a8.8,8.8,0,0,1,8.528-11.813ZM50.368,53.324l.127-.151c1.7-1.984,4.4-3.792,7.067-2.792l-.008.334c0,.056,0,.111,0,.167.008,3.832,1.471,7.408,5.065,8.533a21.859,21.859,0,0,0-2.36,4.555,1.741,1.741,0,0,0-.794-.269c-1.265-.13-1.991,1.077-3.088,1.527a5.745,5.745,0,0,1-3.277.313,6.339,6.339,0,0,1-4.62-4.858A8.44,8.44,0,0,1,50.368,53.324ZM86.48,56.549a2.1,2.1,0,0,0-3.525.036l-.038.06-.008-.011a3.713,3.713,0,0,0,1.219,5.386,3.4,3.4,0,0,0,4.457-.934,2.689,2.689,0,0,0,.424-1.135,2.336,2.336,0,0,0-.045-.818l.015.064c-.03-.137-.077-.352-.09-.4a3.442,3.442,0,0,0-.853-1.547A2.436,2.436,0,0,0,86.48,56.549ZM53.97,55.14a2.667,2.667,0,0,0-1.828.769,2.724,2.724,0,0,0-.665,2.554c.048.28.113.55.182.825l.059.249c.01.041.021.082.034.123a2.042,2.042,0,0,0,.193.477,2.1,2.1,0,0,0,3.844.463,1.938,1.938,0,0,0,.186-.439l.208-.5h0c.039-.12.063-.249.095-.372.07-.275.137-.546.186-.825a2.759,2.759,0,0,0-.665-2.554A2.646,2.646,0,0,0,53.97,55.14ZM69.4,45.315a3.086,3.086,0,0,0-3.083,1.5,3.279,3.279,0,0,0,0,3.171l.046.08h0a3.032,3.032,0,0,0,4.746.621l.068-.065h0a3.17,3.17,0,0,0,.64-3.432A3.035,3.035,0,0,0,69.4,45.315Z" transform="translate(-44 -37)"/>
      </g>
    </g>
  </g>
</svg>
